<?xml version="1.0" encoding="UTF-8"?>
<svg width="153px" height="32px" viewBox="0 0 153 32" version="1.1" xmlns="http://www.w3.org/2000/svg" xmlns:xlink="http://www.w3.org/1999/xlink">
    <!-- Generator: Sketch 60.1 (88133) - https://sketch.com -->
    <title>logotipi-placilne-metode</title>
    <desc>Created with Sketch.</desc>
    <g id="logotipi-placilne-metode" stroke="none" stroke-width="1" fill="none" fill-rule="evenodd" opacity="0.7">
        <g id="Group-6-Copy-3">
            <path d="M22.3110443,6.67167543 L14.6175808,24.9436514 L9.61682945,24.9436514 L5.86626597,10.3260706 C5.67392938,9.46055597 5.48159279,9.07588279 4.71224643,8.69120962 C3.5582269,8.11419985 1.63486101,7.53719008 0,7.1525169 L0.0961682945,6.57550714 L8.17430503,6.57550714 C9.23215627,6.57550714 10.0976709,7.2486852 10.3861758,8.40270473 L12.40571,18.9812171 L17.4064613,6.47933884 L22.3110443,6.47933884 L22.3110443,6.67167543 Z M42.0255447,18.9812171 C42.0255447,14.1728024 35.2937641,13.8842975 35.3899324,11.768595 C35.3899324,11.095417 36.0631104,10.4222389 37.4094666,10.2299023 C38.0826446,10.133734 40.0060105,10.0375657 42.121713,11.095417 L42.9872276,7.2486852 C41.8332081,6.86401202 40.3906837,6.47933884 38.5634861,6.47933884 C33.8512397,6.47933884 30.5815177,8.9797145 30.4853494,12.5379414 C30.4853494,15.1344853 32.8895567,16.6731781 34.620586,17.5386927 C36.4477836,18.4042074 37.1209617,18.9812171 37.1209617,19.8467318 C37.1209617,21.0969196 35.6784373,21.5777611 34.2359128,21.6739294 C31.8317055,21.6739294 30.4853494,21.0007513 29.3313298,20.5199098 L28.4658152,24.5589782 C29.6198347,25.0398197 31.6393689,25.5206612 33.7550714,25.5206612 C38.7558227,25.2321563 42.0255447,22.7317806 42.0255447,18.9812171 M54.527423,24.9436514 L58.9511645,24.9436514 L55.1044328,6.67167543 L51.0653644,6.67167543 C50.1036814,6.67167543 49.3343351,7.1525169 49.0458302,8.01803156 L41.9293764,24.9436514 L46.9301277,24.9436514 L47.8918107,22.2509391 L54.0465815,22.2509391 L54.527423,24.9436514 Z M49.1419985,18.4042074 L51.6423742,11.4800902 L53.0848986,18.4042074 L49.1419985,18.4042074 Z M29.1389932,6.67167543 L25.1960932,24.9436514 L20.3876784,24.9436514 L24.3305785,6.67167543 L29.1389932,6.67167543 Z" id="Shape" fill="#FFFFFF" fill-rule="nonzero"></path>
            <path d="M82.2914074,28.273719 L82.2914074,26.6869421 C82.3101212,26.4176784 82.2120406,26.1533859 82.0221983,25.9615186 C81.832356,25.7696513 81.569119,25.6687722 81.2996719,25.6846281 C80.9436611,25.6612887 80.603164,25.833564 80.4110768,26.1342149 C80.2359485,25.8425281 79.9152827,25.670018 79.5753743,25.6846281 C79.2794186,25.6696666 78.9976716,25.8125526 78.8348785,26.0601653 L78.8348785,25.7480992 L78.2847958,25.7480992 L78.2847958,28.273719 L78.8401677,28.273719 L78.8401677,26.8747107 C78.8152492,26.6994608 78.8703662,26.5222859 78.9903026,26.3920986 C79.1102389,26.2619113 79.2823094,26.1924809 79.4590107,26.2029752 C79.8239694,26.2029752 80.0090934,26.4409917 80.0090934,26.8694215 L80.0090934,28.273719 L80.5644653,28.273719 L80.5644653,26.8747107 C80.5415283,26.6998593 80.5973304,26.5238409 80.7168174,26.3941413 C80.8363044,26.2644417 81.0071662,26.1944232 81.1833082,26.2029752 C81.5588454,26.2029752 81.7386801,26.4409917 81.7386801,26.8694215 L81.7386801,28.273719 L82.2914074,28.273719 Z M85.3856223,27.0122314 L85.3856223,25.7507438 L84.8302504,25.7507438 L84.8302504,26.0575207 C84.6410179,25.8133211 84.345573,25.6754468 84.0368619,25.6872727 C83.3065681,25.6872727 82.7145479,26.2792929 82.7145479,27.0095868 C82.7145479,27.7398807 83.3065681,28.3319008 84.0368619,28.3319008 C84.345573,28.3437268 84.6410179,28.2058524 84.8302504,27.9616529 L84.8302504,28.2684298 L85.380333,28.2684298 L85.3856223,27.0122314 Z M83.3413248,27.0122314 C83.3657862,26.5972016 83.7175077,26.2778469 84.1329652,26.2934407 C84.5484227,26.3090345 84.8752149,26.6538566 84.8684959,27.0695524 C84.8617769,27.4852481 84.5240113,27.8193288 84.1082669,27.8214876 C83.8954154,27.8264796 83.6903172,27.7415301 83.5433319,27.5874976 C83.3963466,27.433465 83.3210882,27.2246161 83.3360355,27.0122314 L83.3413248,27.0122314 Z M97.1383495,25.6899174 C97.3194471,25.6894493 97.498969,25.7235585 97.6672752,25.7904132 C97.827926,25.8547487 97.9743862,25.9499927 98.0983495,26.0707438 C98.2207105,26.1904048 98.317832,26.3333891 98.3839694,26.4912397 C98.5221401,26.8303214 98.5221401,27.2100092 98.3839694,27.5490909 C98.3178954,27.7069758 98.2207659,27.8499721 98.0983495,27.9695868 C97.9743862,28.0903379 97.827926,28.1855819 97.6672752,28.2499174 C97.3185438,28.3854251 96.9317091,28.3854251 96.5829776,28.2499174 C96.4230762,28.1856458 96.2774706,28.090373 96.1545479,27.9695868 C96.0333562,27.8495034 95.9371766,27.7065824 95.8715727,27.5490909 C95.7336829,27.2099542 95.7336829,26.8303764 95.8715727,26.4912397 C95.9371766,26.3337482 96.0333562,26.1908272 96.1545479,26.0707438 C96.2774706,25.9499575 96.4230762,25.8546848 96.5829776,25.7904132 C96.7573319,25.7181429 96.9443226,25.6812841 97.1330603,25.6819737 L97.1383495,25.6899174 Z M97.1383495,26.218843 C97.0306424,26.2173738 96.9237015,26.2371444 96.8236388,26.2770248 C96.7293888,26.3148139 96.6438832,26.3715176 96.5723991,26.4436364 C96.4994741,26.5195578 96.4427837,26.6095425 96.4057876,26.7080992 C96.3249958,26.9192576 96.3249958,27.1528085 96.4057876,27.3639669 C96.4427169,27.4625568 96.4994153,27.5525543 96.5723991,27.6284298 C96.6438352,27.7006068 96.7293537,27.7573191 96.8236388,27.7950413 C97.0251167,27.8739344 97.2489378,27.8739344 97.4504157,27.7950413 C97.549209,27.7585236 97.6392864,27.7017749 97.7148785,27.6284298 C97.7879811,27.5526473 97.8446959,27.4626237 97.88149,27.3639669 C97.9622818,27.1528085 97.9622818,26.9192576 97.88149,26.7080992 C97.8446959,26.6094424 97.7879811,26.5194188 97.7148785,26.4436364 C97.6392864,26.3702912 97.549209,26.3135425 97.4504157,26.2770248 C97.3506515,26.2313539 97.2427348,26.2061734 97.1330603,26.2029752 L97.1383495,26.218843 Z M88.374052,27.0122314 C88.374052,26.218843 87.8821512,25.6899174 87.1760355,25.6899174 C86.4457417,25.7001415 85.8620098,26.30045 85.8722339,27.0307438 C85.8824581,27.7610376 86.4827664,28.3447695 87.2130603,28.3345455 C87.5895666,28.3474095 87.9576403,28.2212666 88.2471099,27.9801653 L87.9826471,27.5728926 C87.7738172,27.7403712 87.5151038,27.8334336 87.2474405,27.8373554 C86.8693555,27.8698711 86.5340733,27.5955493 86.4910768,27.2185124 L88.3661181,27.2185124 C88.374052,27.1523967 88.374052,27.086281 88.374052,27.0122314 Z M86.4937215,26.7900826 C86.5149488,26.44119 86.8080713,26.171424 87.1575231,26.1791736 C87.3237652,26.1756293 87.4846028,26.2382889 87.6046342,26.3533604 C87.7246657,26.4684318 87.7940529,26.6264836 87.7975231,26.7927273 L86.4937215,26.7900826 Z M90.6881016,26.3933884 C90.446586,26.2543221 90.1733877,26.1796479 89.8947132,26.1765289 C89.5932256,26.1765289 89.4133909,26.2876033 89.4133909,26.4727273 C89.4133909,26.6578512 89.6038041,26.6895868 89.8418206,26.7213223 L90.1062834,26.7583471 C90.6563661,26.837686 90.9895892,27.0704132 90.9895892,27.5147107 C90.9895892,27.9590083 90.5664487,28.3398347 89.839176,28.3398347 C89.4493893,28.3502033 89.0665562,28.2352606 88.7469446,28.0119008 L89.0114074,27.5834711 C89.2541058,27.7635252 89.5503304,27.8566776 89.8523991,27.8479339 C90.2279363,27.8479339 90.4289281,27.7368595 90.4289281,27.541157 C90.4289281,27.3983471 90.2861181,27.3190083 89.9846305,27.2766942 L89.7201677,27.2396694 C89.1542173,27.1603306 88.8474405,26.9064463 88.8474405,26.4938843 C88.8474405,25.991405 89.2600024,25.6846281 89.9052917,25.6846281 C90.2664529,25.6725275 90.623502,25.7643139 90.934052,25.9490909 L90.6881016,26.3933884 Z M93.3327297,26.2505785 L92.4362008,26.2505785 L92.4362008,27.3904132 C92.4362008,27.654876 92.5261181,27.8135537 92.8011595,27.8135537 C92.9728304,27.8078685 93.1402545,27.7587331 93.287771,27.6707438 L93.4464487,28.1414876 C93.2402491,28.2701694 93.0019022,28.3380065 92.7588454,28.3371974 C92.1082669,28.3371974 91.8808289,27.9880992 91.8808289,27.4009917 L91.8808289,26.2505785 L91.367771,26.2505785 L91.367771,25.7480992 L91.8808289,25.7480992 L91.8808289,24.981157 L92.4362008,24.981157 L92.4362008,25.7480992 L93.3327297,25.7480992 L93.3327297,26.2505785 Z M95.2342173,25.6846281 C95.3676447,25.6851437 95.5000083,25.7083967 95.6256223,25.7533884 L95.4563661,26.282314 C95.3470604,26.2387338 95.2302256,26.2171643 95.1125644,26.218843 C94.752895,26.218843 94.5836388,26.4515702 94.5836388,26.8694215 L94.5836388,28.2842975 L94.0335562,28.2842975 L94.0335562,25.7586777 L94.5783495,25.7586777 L94.5783495,26.0654545 C94.7158657,25.8292372 94.9715839,25.6871715 95.2447958,25.6952066 L95.2342173,25.6846281 Z M99.0371925,27.9061157 C99.0715761,27.9056944 99.1057118,27.9119826 99.1376884,27.9246281 C99.16806,27.9370219 99.1958608,27.9549579 99.2196719,27.9775207 C99.24291,28.000323 99.261738,28.0272202 99.2752091,28.0568595 C99.3022798,28.1192852 99.3022798,28.1901363 99.2752091,28.252562 C99.261738,28.2822013 99.24291,28.3090985 99.2196719,28.3319008 C99.1958608,28.3544636 99.16806,28.3723996 99.1376884,28.3847934 C99.1060275,28.3987637 99.0717986,28.4059698 99.0371925,28.4059505 C98.9348586,28.4051791 98.8421546,28.3454365 98.799176,28.252562 C98.7724187,28.1900716 98.7724187,28.1193499 98.799176,28.0568595 C98.812647,28.0272202 98.8314751,28.000323 98.8547132,27.9775207 C98.8785242,27.9549579 98.906325,27.9370219 98.9366967,27.9246281 C98.9645293,27.9135596 98.99404,27.9072998 99.0239694,27.9061157 L99.0371925,27.9061157 Z M99.0371925,28.3530613 C99.0635884,28.3532182 99.0897215,28.3478114 99.1138867,28.3371901 C99.1366402,28.3270314 99.1572756,28.3126763 99.1747132,28.294876 C99.2202515,28.2490126 99.2402093,28.1836234 99.2280431,28.1201476 C99.2158769,28.0566718 99.1731558,28.003296 99.1138867,27.9775207 C99.0896977,27.9669743 99.0635806,27.9615707 99.0371925,27.961652 C99.0108273,27.9617922 98.9847543,27.9671866 98.9604983,27.9775207 C98.9367375,27.9872635 98.9151594,28.0016489 98.8970272,28.0198347 C98.8284528,28.0946531 98.8284528,28.2094791 98.8970272,28.2842975 C98.9340213,28.3217551 98.9845469,28.3427279 99.0371925,28.3424793 L99.0371925,28.3530613 Z M99.0530603,28.0383471 C99.0777483,28.0371499 99.1020761,28.0446353 99.1218206,28.0595041 C99.1382444,28.0730965 99.1471063,28.0937742 99.1456223,28.1150413 C99.14639,28.1328014 99.1396746,28.1500694 99.1271099,28.1626446 C99.1117811,28.1765675 99.0922263,28.1849481 99.0715727,28.1864463 L99.1482669,28.273719 L99.0874405,28.273719 L99.0160355,28.1864463 L98.9922338,28.1864463 L98.9922338,28.273719 L98.9419859,28.273719 L98.9419859,28.0304132 L99.0530603,28.0383471 Z M98.9948785,28.0833058 L98.9948785,28.1467769 L99.0530603,28.1467769 C99.0634136,28.1498636 99.0744425,28.1498636 99.0847958,28.1467769 C99.0885678,28.1392913 99.0885678,28.1304608 99.0847958,28.1229752 C99.0885678,28.1154897 99.0885678,28.1066591 99.0847958,28.0991736 C99.0744425,28.0960868 99.0634136,28.0960868 99.0530603,28.0991736 L98.9948785,28.0833058 Z" id="Shape" fill="#FFFFFF" fill-rule="nonzero"></path>
            <g id="Group-9" transform="translate(72.410939, 4.443118)" fill="#FFFFFF" fill-rule="nonzero">
                <path d="M31.5055302,16.022658 L31.5055302,15.2448802 L31.6606457,15.2448802 L31.6606457,15.0782136 L31.2679064,15.0782136 L31.2679064,15.2448802 L31.4230219,15.2448802 L31.4230219,16.0504358 L31.5055302,16.022658 Z M32.2679064,16.022658 L32.2679064,15.0504358 L32.1490945,15.0504358 L32.0104807,15.7448802 L31.8718668,15.0504358 L31.7497546,15.0504358 L31.7497546,16.022658 L31.8355632,16.022658 L31.8355632,15.2934913 L31.964276,15.9254358 L32.053385,15.9254358 L32.1820978,15.2934913 L32.1820978,16.0296024 L32.2679064,16.022658 Z" id="Shape"></path>
                <path d="M15.9631403,2.32961922 C18.1700063,4.06398018 19.4585331,6.71545042 19.4585331,9.52227523 C19.4585331,12.2251436 18.2636852,14.783952 16.2045497,16.518489 L15.9631403,16.7149312 L15.9380874,16.7141934 L15.7301222,16.5457182 C13.6649265,14.8123633 12.4669601,12.2499156 12.4690926,9.54348106 C12.4660998,6.73591648 13.7546084,4.08299457 15.9631403,2.3495545 L15.9360874,2.32919341 L15.9631403,2.32961922 Z" id="Combined-Shape"></path>
                <path d="M11.7671952,9.52316305 C11.7640805,6.60124365 13.1050712,3.84026566 15.4035588,2.0362209 C11.5000323,-1.031534 5.89441163,-0.584688967 2.52617641,3.06272532 C-0.842058805,6.7101396 -0.842058805,12.3335419 2.52617641,15.9809562 C5.89441163,19.6283704 11.5000323,20.0752155 15.4035588,17.0074606 C13.1058024,15.2039885 11.7648936,12.4441544 11.7671952,9.52316305 L11.7671952,9.52316305 Z" id="_Path_-Copy"></path>
                <path d="M31.9545306,9.52316305 C31.9536501,13.1673728 29.8726428,16.4913656 26.5949118,18.0840818 C23.3171808,19.6767979 19.4178508,19.2587725 16.5522165,17.0074606 C18.8489703,15.2024574 20.18998,12.4429902 20.18998,9.52184074 C20.18998,6.60069125 18.8489703,3.84122406 16.5522165,2.0362209 C19.417827,-0.21670996 23.3182568,-0.635683209 26.5969783,0.957240703 C29.8756997,2.55016461 31.9571752,5.87532692 31.9571752,9.52051842 L31.9545306,9.52316305 Z" id="Path-Copy"></path>
            </g>
            <g id="Group-9-Copy" transform="translate(116.619672, 4.443118)" fill="#FFFFFF" fill-rule="nonzero">
                <path d="M31.5055302,16.022658 L31.5055302,15.2448802 L31.6606457,15.2448802 L31.6606457,15.0782136 L31.2679064,15.0782136 L31.2679064,15.2448802 L31.4230219,15.2448802 L31.4230219,16.0504358 L31.5055302,16.022658 Z M32.2679064,16.022658 L32.2679064,15.0504358 L32.1490945,15.0504358 L32.0104807,15.7448802 L31.8718668,15.0504358 L31.7497546,15.0504358 L31.7497546,16.022658 L31.8355632,16.022658 L31.8355632,15.2934913 L31.964276,15.9254358 L32.053385,15.9254358 L32.1820978,15.2934913 L32.1820978,16.0296024 L32.2679064,16.022658 Z" id="Shape"></path>
                <path d="M15.9631403,2.32961922 C18.1700063,4.06398018 19.4585331,6.71545042 19.4585331,9.52227523 C19.4585331,12.2251436 18.2636852,14.783952 16.2045497,16.518489 L15.9631403,16.7149312 L15.9380874,16.7141934 L15.7301222,16.5457182 C13.6649265,14.8123633 12.4669601,12.2499156 12.4690926,9.54348106 C12.4660998,6.73591648 13.7546084,4.08299457 15.9631403,2.3495545 L15.9360874,2.32919341 L15.9631403,2.32961922 Z" id="Combined-Shape"></path>
                <path d="M11.7671952,9.52316305 C11.7640805,6.60124365 13.1050712,3.84026566 15.4035588,2.0362209 C11.5000323,-1.031534 5.89441163,-0.584688967 2.52617641,3.06272532 C-0.842058805,6.7101396 -0.842058805,12.3335419 2.52617641,15.9809562 C5.89441163,19.6283704 11.5000323,20.0752155 15.4035588,17.0074606 C13.1058024,15.2039885 11.7648936,12.4441544 11.7671952,9.52316305 L11.7671952,9.52316305 Z" id="_Path_-Copy"></path>
                <path d="M31.9545306,9.52316305 C31.9536501,13.1673728 29.8726428,16.4913656 26.5949118,18.0840818 C23.3171808,19.6767979 19.4178508,19.2587725 16.5522165,17.0074606 C18.8489703,15.2024574 20.18998,12.4429902 20.18998,9.52184074 C20.18998,6.60069125 18.8489703,3.84122406 16.5522165,2.0362209 C19.417827,-0.21670996 23.3182568,-0.635683209 26.5969783,0.957240703 C29.8756997,2.55016461 31.9571752,5.87532692 31.9571752,9.52051842 L31.9545306,9.52316305 Z" id="Path-Copy"></path>
            </g>
            <g id="mc_vrt_rev" transform="translate(113.619672, 0.000000)">
                <rect id="Rectangle" x="0" y="0" width="38.8231405" height="31.8439669"></rect>
                <path d="M9.61322314,27.8373554 L9.61322314,26.2505785 C9.63193127,25.9806136 9.53357008,25.715652 9.34323336,25.5232905 C9.15289663,25.3309289 8.88899074,25.2297694 8.61884298,25.2456198 C8.26283217,25.2222804 7.92233508,25.3945557 7.73024793,25.6952066 C7.55511958,25.4035198 7.23445377,25.2310097 6.89454545,25.2456198 C6.59858972,25.2306584 6.31684272,25.3735443 6.15404959,25.621157 L6.15404959,25.3090909 L5.60396694,25.3090909 L5.60396694,27.8373554 L6.15933884,27.8373554 L6.15933884,26.446281 C6.1354204,26.2712305 6.19088335,26.0946399 6.31059233,25.9646994 C6.43030131,25.8347589 6.60176111,25.7650316 6.77818182,25.7745455 C7.1431405,25.7745455 7.32826446,26.012562 7.32826446,26.4409917 L7.32826446,27.8479339 L7.88363636,27.8479339 L7.88363636,26.446281 C7.86069939,26.2714295 7.91650148,26.0954112 8.03598851,25.9657116 C8.15547555,25.8360119 8.32633735,25.7659935 8.50247934,25.7745455 C8.87801653,25.7745455 9.05785124,26.012562 9.05785124,26.4409917 L9.05785124,27.8479339 L9.61322314,27.8373554 Z M17.8300826,25.3090909 L16.9256198,25.3090909 L16.9256198,24.5421488 L16.3702479,24.5421488 L16.3702479,25.3090909 L15.8677686,25.3090909 L15.8677686,25.8115702 L16.3808264,25.8115702 L16.3808264,26.9752066 C16.3808264,27.562314 16.6082645,27.9114122 17.258843,27.9114122 C17.5018998,27.9122214 17.7402467,27.8443842 17.9464463,27.7157025 L17.7877686,27.2449587 C17.6402521,27.332948 17.472828,27.3820834 17.301157,27.3877686 C17.0366942,27.3877686 16.9361983,27.2185124 16.9361983,26.9646281 L16.9361983,25.8115702 L17.8353719,25.8115702 L17.8300826,25.3090909 Z M22.5216529,25.2456198 C22.248441,25.2375848 21.9927228,25.3796504 21.8552066,25.6158678 L21.8552066,25.3090909 L21.3104132,25.3090909 L21.3104132,27.8373554 L21.8604959,27.8373554 L21.8604959,26.4198347 C21.8604959,26.0019835 22.0403306,25.7692562 22.3894215,25.7692562 C22.5070768,25.7676468 22.6238982,25.7892139 22.7332231,25.8327273 L22.9024793,25.3038017 C22.7768521,25.2588599 22.6444972,25.2356084 22.5110744,25.2350413 L22.5216529,25.2456198 Z M15.4287603,25.5100826 C15.1173884,25.3249526 14.7593917,25.2331586 14.3973554,25.2456198 C13.7573554,25.2456198 13.3395041,25.5523967 13.3395041,26.054876 C13.3395041,26.467438 13.646281,26.7213223 14.2122314,26.8006612 L14.4766942,26.837686 C14.7781818,26.88 14.9209917,26.9593388 14.9209917,27.1021488 C14.9209917,27.2978512 14.72,27.4089256 14.3444628,27.4089256 C14.042394,27.4176693 13.7461695,27.3245169 13.5034711,27.1444628 L13.2390083,27.5728926 C13.5594351,27.7966256 13.9432256,27.9115774 14.3338843,27.9008264 C15.0638017,27.9008264 15.4869421,27.5570248 15.4869421,27.0757025 C15.4869421,26.5943802 15.153719,26.3986777 14.6036364,26.3193388 L14.3391736,26.282314 C14.101157,26.2505785 13.9107438,26.2029752 13.9107438,26.033719 C13.9107438,25.8644628 14.0905785,25.7375207 14.3920661,25.7375207 C14.6707241,25.7407577 14.9438931,25.8154239 15.1854545,25.9543802 L15.4287603,25.5100826 Z M30.1619835,25.2456198 C29.8887715,25.2375848 29.6330534,25.3796504 29.4955372,25.6158678 L29.4955372,25.3090909 L28.9507438,25.3090909 L28.9507438,27.8373554 L29.5008264,27.8373554 L29.5008264,26.4198347 C29.5008264,26.0019835 29.6806612,25.7692562 30.0297521,25.7692562 C30.1474074,25.7676468 30.2642288,25.7892139 30.3735537,25.8327273 L30.5428099,25.3038017 C30.4171827,25.2588599 30.2848278,25.2356084 30.151405,25.2350413 L30.1619835,25.2456198 Z M23.0743802,26.5679339 C23.0611511,26.9271894 23.1999219,27.2753885 23.4566304,27.5270634 C23.7133389,27.7787384 24.0642173,27.9105876 24.4231405,27.8902479 C24.7534224,27.9070519 25.0780123,27.7994843 25.3328926,27.5887603 L25.0684298,27.1444628 C24.8782733,27.2894707 24.6463954,27.3692367 24.4072727,27.3719008 C23.9856399,27.337786 23.6608498,26.9856554 23.6608498,26.5626446 C23.6608498,26.1396339 23.9856399,25.7875033 24.4072727,25.7533884 C24.6463954,25.7560526 24.8782733,25.8358185 25.0684298,25.9808264 L25.3328926,25.5365289 C25.0780123,25.325805 24.7534224,25.2182374 24.4231405,25.2350413 C24.0642173,25.2147016 23.7133389,25.3465509 23.4566304,25.5982258 C23.1999219,25.8499008 23.0611511,26.1980999 23.0743802,26.5573554 L23.0743802,26.5679339 Z M28.2261157,26.5679339 L28.2261157,25.3090909 L27.6760331,25.3090909 L27.6760331,25.6158678 C27.4865199,25.3720198 27.1912665,25.2342349 26.8826446,25.2456198 C26.1523507,25.2456198 25.5603306,25.83764 25.5603306,26.5679339 C25.5603306,27.2982278 26.1523507,27.8902479 26.8826446,27.8902479 C27.1912665,27.9016329 27.4865199,27.7638479 27.6760331,27.52 L27.6760331,27.8267769 L28.2261157,27.8267769 L28.2261157,26.5679339 Z M26.1791736,26.5679339 C26.203635,26.1529041 26.5553565,25.8335493 26.970814,25.8491432 C27.3862715,25.864737 27.7130637,26.2095591 27.7063447,26.6252548 C27.6996257,27.0409506 27.3618601,27.3750313 26.9461157,27.3771901 C26.7344236,27.3798686 26.5312329,27.2940107 26.3856032,27.1403463 C26.2399736,26.9866819 26.165141,26.7791774 26.1791736,26.5679339 L26.1791736,26.5679339 Z M19.541157,25.2456198 C18.8108631,25.2558439 18.2271313,25.8561524 18.2373554,26.5864463 C18.2475795,27.3167402 18.8478879,27.900472 19.5781818,27.8902479 C19.9586749,27.9097782 20.3328543,27.7872509 20.6280992,27.5464463 L20.3636364,27.1391736 C20.1548065,27.3066522 19.896093,27.3997146 19.6284298,27.4036364 C19.2503448,27.4361521 18.9150626,27.1618302 18.8720661,26.7847934 L20.7497521,26.7847934 C20.7497521,26.7160331 20.7497521,26.6472727 20.7497521,26.5732231 C20.7497521,25.7798347 20.2578512,25.2509091 19.5490909,25.2509091 L19.541157,25.2456198 Z M19.541157,25.7375207 C19.7073991,25.7339764 19.8682367,25.796636 19.9882682,25.9117075 C20.1082996,26.026779 20.1776868,26.1848307 20.181157,26.3510744 L18.858843,26.3510744 C18.8787645,25.9979698 19.1771182,25.7254578 19.5305785,25.7375207 L19.541157,25.7375207 Z M33.322314,26.5732231 L33.322314,24.2935537 L32.7933884,24.2935537 L32.7933884,25.6158678 C32.6038753,25.3720198 32.3086218,25.2342349 32,25.2456198 C31.2697061,25.2456198 30.677686,25.83764 30.677686,26.5679339 C30.677686,27.2982278 31.2697061,27.8902479 32,27.8902479 C32.3086218,27.9016329 32.6038753,27.7638479 32.7933884,27.52 L32.7933884,27.8267769 L33.322314,27.8267769 L33.322314,26.5732231 Z M34.24,27.4697521 C34.2743836,27.4693308 34.3085193,27.475619 34.3404959,27.4882645 C34.3708675,27.5006583 34.3986683,27.5185943 34.4224793,27.541157 C34.4457175,27.5639594 34.4645455,27.5908566 34.4780165,27.6204959 C34.5050872,27.6829216 34.5050872,27.7537726 34.4780165,27.8161983 C34.4645455,27.8458377 34.4457175,27.8727348 34.4224793,27.8955372 C34.3986683,27.9180999 34.3708675,27.936036 34.3404959,27.9484298 C34.308835,27.9624001 34.2746061,27.9696062 34.24,27.9695868 C34.137666,27.9688154 34.0449621,27.9090729 34.0019835,27.8161983 C33.9752262,27.753708 33.9752262,27.6829863 34.0019835,27.6204959 C34.0154545,27.5908566 34.0342825,27.5639594 34.0575207,27.541157 C34.0813317,27.5185943 34.1091325,27.5006583 34.1395041,27.4882645 C34.1739504,27.4745622 34.2108926,27.468255 34.2479339,27.4697521 L34.24,27.4697521 Z M34.24,27.9166942 C34.2663959,27.9168546 34.292529,27.9114477 34.3166942,27.9008264 C34.3394476,27.8906678 34.3600831,27.8763127 34.3775207,27.8585124 C34.4460951,27.783694 34.4460951,27.668868 34.3775207,27.5940496 C34.3601247,27.5762002 34.3394792,27.5618382 34.3166942,27.5517355 C34.2925052,27.5411891 34.2663881,27.5357856 34.24,27.5358668 C34.2136347,27.5360071 34.1875618,27.5414015 34.1633058,27.5517355 C34.139545,27.5614784 34.1179668,27.5758638 34.0998347,27.5940496 C34.0312603,27.668868 34.0312603,27.783694 34.0998347,27.8585124 C34.1180114,27.8766438 34.139578,27.8910216 34.1633058,27.9008264 C34.1899874,27.9123327 34.2188963,27.9177531 34.2479339,27.9166942 L34.24,27.9166942 Z M34.2558678,27.6019835 C34.2805557,27.6007862 34.3048835,27.6082717 34.3246281,27.6231405 C34.3410519,27.6367328 34.3499138,27.6574106 34.3484298,27.6786777 C34.3491975,27.6964377 34.3424821,27.7137058 34.3299174,27.726281 C34.3145886,27.7402039 34.2950338,27.7485845 34.2743802,27.7500826 L34.3510744,27.8373554 L34.2902479,27.8373554 L34.218843,27.7500826 L34.1950413,27.7500826 L34.1950413,27.8373554 L34.1447934,27.8373554 L34.1447934,27.6046281 L34.2558678,27.6019835 Z M34.197686,27.6469421 L34.197686,27.7104132 L34.2558678,27.7104132 C34.2662211,27.7135 34.27725,27.7135 34.2876033,27.7104132 C34.2913753,27.7029277 34.2913753,27.6940971 34.2876033,27.6866116 C34.2913753,27.679126 34.2913753,27.6702955 34.2876033,27.6628099 C34.27725,27.6597231 34.2662211,27.6597231 34.2558678,27.6628099 L34.197686,27.6469421 Z M31.288595,26.5732231 C31.3130565,26.1581934 31.664778,25.8388386 32.0802355,25.8544324 C32.495693,25.8700262 32.8224852,26.2148484 32.8157662,26.6305441 C32.8090472,27.0462398 32.4712816,27.3803205 32.0555372,27.3824793 C31.8438451,27.3851579 31.6406544,27.2992999 31.4950247,27.1456356 C31.3493951,26.9919712 31.2745625,26.7844667 31.288595,26.5732231 L31.288595,26.5732231 Z M12.7153719,26.5732231 L12.7153719,25.3090909 L12.1652893,25.3090909 L12.1652893,25.6158678 C11.9757761,25.3720198 11.6805227,25.2342349 11.3719008,25.2456198 C10.6416069,25.2456198 10.0495868,25.83764 10.0495868,26.5679339 C10.0495868,27.2982278 10.6416069,27.8902479 11.3719008,27.8902479 C11.6805227,27.9016329 11.9757761,27.7638479 12.1652893,27.52 L12.1652893,27.8267769 L12.7153719,27.8267769 L12.7153719,26.5732231 Z M10.6684298,26.5732231 C10.6928912,26.1581934 11.0446127,25.8388386 11.4600702,25.8544324 C11.8755277,25.8700262 12.2023199,26.2148484 12.1956009,26.6305441 C12.1888819,27.0462398 11.8511163,27.3803205 11.4353719,27.3824793 C11.2227675,27.3866532 11.0181622,27.3014498 10.8713596,27.1476087 C10.7245571,26.9937677 10.649022,26.7853993 10.6631405,26.5732231 L10.6684298,26.5732231 Z" id="Shape" fill="#FFFFFF" fill-rule="nonzero"></path>
            </g>
        </g>
    </g>
</svg>