<?xml version="1.0" encoding="UTF-8"?>
<svg width="250px" height="180px" viewBox="0 0 250 180" version="1.1" xmlns="http://www.w3.org/2000/svg" xmlns:xlink="http://www.w3.org/1999/xlink">
    <!-- Generator: Sketch 54 (76480) - https://sketchapp.com -->
    <title>logos/12</title>
    <desc>Created with Sketch.</desc>
    <g id="logos/12" stroke="none" stroke-width="1" fill="none" fill-rule="evenodd">
        <g id="IMFM" transform="translate(28.000000, 39.000000)">
            <g id="XMLID_1_" transform="translate(27.000000, 0.000000)">
                <g id="Group" transform="translate(8.032787, 10.309091)" fill="#4E80BD" fill-rule="nonzero">
                    <path d="M111.923497,9.50727273 C112.420765,9.39272727 112.994536,9.43090909 113.568306,9.54545455 C112.994536,9.50727273 112.420765,9.46909091 111.923497,9.50727273 Z" id="Path"></path>
                    <path d="M117.737705,18.5563636 C115.786885,19.4727273 112.688525,18.2509091 110.89071,15.8454545 C109.092896,13.44 109.20765,10.6909091 111.120219,9.77454545 C111.349727,9.66 111.579235,9.58363636 111.808743,9.54545455 C111.846995,9.54545455 111.885246,9.54545455 111.923497,9.54545455 C112.420765,9.50727273 112.994536,9.54545455 113.568306,9.58363636 L113.568306,9.58363636 C115.136612,9.88909091 116.781421,10.9581818 117.928962,12.4854545 C119.765027,14.8909091 119.688525,17.64 117.737705,18.5563636 Z" id="Path"></path>
                    <path d="M99.9125683,49.8654545 C99.7213115,49.98 99.4153005,49.98 99.2240437,49.7509091 C98.726776,49.2927273 97.9234973,48.72 97.0819672,48.6436364 C95.7431694,48.4909091 94.3661202,48.5290909 93.0655738,48.8345455 C91.726776,49.14 90.273224,49.2163636 89.0874317,50.5527273 L88.5136612,50.0563636 L90.8469945,44.3672727 C93.0273224,37.0745455 94.7868852,29.5527273 97.3879781,22.4127273 C97.5027322,22.0690909 97.6557377,21.7636364 97.7704918,21.42 C98.9180328,18.4418182 100.52459,15.54 102.666667,13.2872727 C104.770492,11.1109091 107.715847,9.62181818 110.125683,8.89636364 C111.540984,8.47636364 116.131148,8.55272727 117.469945,10.1563636 C117.431694,10.4618182 117.622951,10.3472727 117.546448,10.6527273 C116.437158,10.08 114.945355,9.73636364 113.530055,9.62181818 L113.530055,9.62181818 C112.956284,9.50727273 112.420765,9.46909091 111.885246,9.58363636 C111.846995,9.58363636 111.808743,9.58363636 111.770492,9.58363636 C111.311475,9.62181818 110.852459,9.69818182 110.508197,9.81272727 C109.131148,10.3090909 107.945355,11.7218182 107.486339,13.3254545 C107.103825,14.5472727 106.759563,16.2272727 106.95082,17.7927273 C107.180328,19.3963636 107.218579,19.5490909 108.786885,21.4581818 C108.672131,21.7636364 108.174863,21.7254545 107.983607,21.9927273 C107.945355,22.0309091 107.945355,22.0690909 107.907104,22.1072727 C106.415301,27.4145455 103.699454,36.5781818 101.672131,43.6036364 C101.174863,45.6272727 100.448087,47.9181818 99.9125683,49.8654545 Z" id="Path"></path>
                    <path d="M71.568306,6.3 C70.9945355,7.17818182 70.0382514,7.67454545 69.3879781,8.59090909 C68.8907104,9.31636364 68.4699454,9.85090909 67.9726776,10.6527273 C68.2404372,9.81272727 68.5081967,8.93454545 68.8142077,8.05636364 C70.0382514,6.49090909 71.6065574,4.69636364 72.4480874,3.93272727 C73.9781421,2.52 76.6174863,0.992727273 78.6830601,0.649090909 C80.2513661,0.381818182 81.1693989,0.267272727 82.5464481,0.458181818 C83.579235,0.649090909 85.3005464,1.22181818 85.7978142,2.21454545 C86.3715847,3.28363636 86.5628415,4.88727273 86.295082,6.03272727 C84.9562842,11.7981818 82.6229508,17.5636364 81.1311475,23.2909091 C80.9016393,24.2072727 80.8251366,24.7036364 81.1311475,25.4290909 C81.3606557,26.0018182 82.1639344,26.4981818 82.6994536,26.1927273 C83.8087432,25.5818182 84.1147541,25.5436364 84.8415301,24.6272727 C85.6830601,23.5963636 86.6393443,22.3745455 87.442623,21.3054545 C88.0163934,20.58 88.7814208,18.5945455 89.0874317,18.2127273 C89.3934426,17.8690909 90.0437158,17.7163636 89.7377049,18.6327273 C89.3934426,19.6254545 87.7868852,22.4127273 86.6010929,24.2454545 C85.3387978,26.1163636 82.9672131,28.14 81.0928962,29.2854545 C79.4098361,30.3545455 78.2240437,30.6981818 76.1967213,30.8890909 C75.010929,31.0036364 73.9398907,30.7745455 72.8306011,30.3545455 C71.4153005,29.7818182 71.0327869,29.2854545 70.6502732,28.1781818 C70.3825137,27.3381818 70.0382514,25.0472727 70.2677596,24.2072727 C72.0655738,18.2127273 73.3661202,13.6309091 75.2021858,7.63636364 C75.2786885,6.79636364 75.5081967,6.37636364 75.5846995,5.53636364 C75.6612022,5.07818182 75.2021858,4.73454545 74.9344262,4.35272727 C74.3606557,4.46727273 74.0163934,4.31454545 73.5191257,4.65818182 C72.5628415,5.34545455 72.4098361,5.42181818 71.568306,6.3 Z" id="Path"></path>
                    <path d="M67.0163934,12.2563636 C66.5956284,12.9818182 65.7923497,12.8290909 66.0983607,11.8745455 C66.442623,10.92 66.3278689,11.76 67.2076503,10.2327273 C67.5136612,9.69818182 68.1256831,8.89636364 68.7759563,8.01818182 C68.5081967,8.89636364 68.2021858,9.77454545 67.9344262,10.6145455 C67.704918,11.0727273 67.3989071,11.5690909 67.0163934,12.2563636 Z" id="Path"></path>
                    <path d="M61.010929,44.2909091 C61.2786885,43.4509091 61.5464481,42.5727273 61.852459,41.6945455 C63.0765027,40.1290909 64.6448087,38.3345455 65.4863388,37.5327273 C67.0163934,36.12 69.6557377,34.5927273 71.7213115,34.2490909 C73.2896175,33.9818182 74.2076503,33.8672727 75.5846995,34.0581818 C76.6174863,34.2490909 78.3005464,34.8218182 78.8360656,35.8145455 C79.4098361,36.8454545 79.6010929,38.4490909 79.3333333,39.6327273 C77.9945355,45.3981818 75.6612022,51.1636364 74.1693989,56.8909091 C73.9398907,57.8072727 73.863388,58.3036364 74.1311475,59.0290909 C74.3989071,59.6018182 75.2021858,60.0981818 75.7377049,59.7927273 C76.8469945,59.1818182 77.1530055,59.1436364 77.8797814,58.2272727 C78.6830601,57.1963636 79.6775956,55.9745455 80.4808743,54.9054545 C81.0546448,54.18 81.7814208,52.1945455 82.1256831,51.8127273 C82.3934426,51.4690909 83.0819672,51.3163636 82.7759563,52.2327273 C82.431694,53.2254545 80.8251366,56.0127273 79.6010929,57.8454545 C78.3387978,59.7163636 75.9672131,61.74 74.1311475,62.9236364 C72.4480874,63.9545455 71.2240437,64.3363636 69.2349727,64.5272727 C68.0491803,64.6418182 66.9781421,64.4127273 65.8688525,63.9927273 C64.4153005,63.4581818 64.0327869,62.9236364 63.6885246,61.8163636 C63.420765,60.9763636 63.0765027,58.6854545 63.3060109,57.8454545 C65.1038251,51.8509091 66.4043716,47.2690909 68.2404372,41.2745455 C68.3169399,40.4345455 68.5464481,39.9763636 68.6612022,39.1745455 C68.7377049,38.7163636 68.2786885,38.3727273 68.010929,37.9909091 C67.4371585,38.1054545 67.0928962,37.9527273 66.5956284,38.2963636 C65.6393443,38.9836364 65.4480874,39.06 64.6448087,39.9381818 C64.0710383,40.8163636 63.0765027,41.3127273 62.4644809,42.2290909 C61.9289617,42.9545455 61.5081967,43.5272727 61.010929,44.2909091 Z" id="Path"></path>
                    <path d="M61.852459,41.6945455 C61.5846995,42.5727273 61.2786885,43.4127273 61.010929,44.2909091 C60.704918,44.7490909 60.3989071,45.2454545 60.0546448,45.8945455 C59.6338798,46.62 58.8306011,46.4672727 59.1748634,45.5127273 C59.4808743,44.5963636 59.4043716,45.3981818 60.284153,43.8709091 C60.5901639,43.3363636 61.1639344,42.5727273 61.852459,41.6945455 Z" id="Path"></path>
                    <path d="M52.6338798,9.12545455 C51.8688525,10.2327273 51.4863388,10.7290909 50.4918033,12.5236364 C50.4918033,12.5618182 50.4535519,12.5618182 50.4153005,12.6 C50.7213115,11.6072727 51.0655738,10.6145455 51.3715847,9.62181818 C52.1748634,8.32363636 53.2076503,6.75818182 54.9289617,4.96363636 C56.420765,3.43636364 59.7868852,1.37454545 61.852459,0.992727273 C63.420765,0.725454545 64.4918033,0.763636364 66.0218579,1.10727273 C67.0928962,1.33636364 68.3169399,1.90909091 68.8142077,2.90181818 C69.3879781,3.93272727 69.6557377,5.38363636 69.2349727,6.68181818 C69.0819672,7.14 68.9289617,7.59818182 68.7759563,8.05636364 C68.0874317,8.93454545 67.5136612,9.69818182 67.2076503,10.2709091 C66.3278689,11.7981818 66.4043716,10.9581818 66.0983607,11.9127273 C65.7923497,12.8290909 66.5956284,12.9818182 67.0163934,12.2945455 C67.3989071,11.6454545 67.704918,11.1109091 67.9726776,10.6909091 C66.4808743,15.3109091 65.1038251,19.8927273 64.0327869,24.0545455 C63.420765,26.4218182 63.1147541,27.8345455 62.6939891,29.9345455 C62.3114754,30.0109091 62.1967213,30.5072727 62.0054645,30.0872727 C60.4754098,28.8272727 60.7814208,29.0945455 60.0546448,28.7890909 C58.9453552,28.3309091 57.7213115,28.14 56.420765,28.4836364 C54.852459,28.9036364 53.3224044,29.0181818 51.7923497,30.5072727 C51.5628415,30.4309091 51.4098361,30.5454545 51.1420765,30.2018182 C53.2459016,24.5890909 56.2295082,14.3945455 58.0273224,8.4 C58.2185792,7.48363636 58.5245902,7.14 58.6010929,6.3 C58.6775956,4.88727273 57.989071,5.34545455 57.7213115,5.00181818 C57.147541,5.11636364 56.9180328,4.92545455 56.420765,5.26909091 C55.4644809,5.91818182 55.3114754,6.07090909 54.4699454,6.87272727 C53.9344262,7.67454545 53.2459016,8.20909091 52.6338798,9.12545455 Z" id="Path"></path>
                    <path d="M50.7213115,10.7672727 C50.9508197,10.4236364 51.1420765,10.0418182 51.4098361,9.62181818 C51.1038251,10.6145455 50.7595628,11.6072727 50.4535519,12.6 C50.4535519,12.6 50.4535519,12.6 50.4535519,12.6 C50.0327869,13.2109091 49.2677596,12.8290909 49.5737705,11.9509091 C49.8797814,11.0727273 49.8032787,12.3327273 50.7213115,10.7672727 Z" id="Path"></path>
                    <path d="M43.4153005,46.3145455 C43.7213115,45.3218182 44.0273224,44.3290909 44.3715847,43.2981818 C44.3715847,43.2981818 44.4098361,43.26 44.4098361,43.26 C45.2131148,41.9618182 46.2459016,40.4345455 47.9672131,38.64 C49.4590164,37.1127273 52.8251366,35.0509091 54.8907104,34.7072727 C56.4590164,34.44 57.5300546,34.44 59.0601093,34.8218182 C60.0928962,35.0509091 61.3551913,35.6236364 61.852459,36.5781818 C62.4262295,37.6472727 62.6939891,39.06 62.273224,40.3581818 C62.1202186,40.8163636 61.9672131,41.2745455 61.852459,41.7327273 C61.1639344,42.5727273 60.5901639,43.3745455 60.284153,43.9090909 C59.4043716,45.4363636 59.4808743,44.6345455 59.1748634,45.5509091 C58.8306011,46.4672727 59.6721311,46.62 60.0546448,45.9327273 C60.4371585,45.2836364 60.7431694,44.7490909 61.010929,44.3290909 C59.5191257,48.9490909 58.1420765,53.5309091 57.0710383,57.6927273 C56.4590164,60.06 56.1530055,61.4727273 55.7322404,63.5727273 C55.3497268,63.6490909 55.2349727,64.1454545 55.0437158,63.7254545 C53.5136612,62.4654545 53.8196721,62.7327273 53.0928962,62.4272727 C51.9836066,61.9690909 50.7595628,61.7781818 49.4590164,62.1218182 C47.8907104,62.5418182 46.3224044,62.6563636 44.8306011,64.1454545 C44.6010929,64.0690909 44.4480874,64.1836364 44.1803279,63.84 C46.284153,58.2272727 49.2677596,48.0327273 51.0655738,42.0381818 C51.2568306,41.1218182 51.5628415,40.7781818 51.6393443,39.9381818 C51.7540984,38.4872727 51.0273224,38.9836364 50.7595628,38.6018182 C50.1857923,38.7163636 49.9562842,38.5254545 49.4590164,38.8690909 C48.5027322,39.5181818 48.3497268,39.6709091 47.5081967,40.4727273 C46.9344262,41.3509091 46.2459016,41.8854545 45.6338798,42.8018182 C44.8688525,43.9090909 44.4863388,44.4054545 43.4918033,46.2 C43.4535519,46.2381818 43.4535519,46.2763636 43.4153005,46.3145455 Z" id="Path"></path>
                    <path d="M44.4098361,43.2981818 C44.0655738,44.3290909 43.7595628,45.3218182 43.4535519,46.3145455 C43.0327869,46.9254545 42.2677596,46.5436364 42.5737705,45.6654545 C42.9180328,44.7490909 42.8415301,46.0090909 43.7595628,44.4818182 C43.9125683,44.1 44.1420765,43.7181818 44.4098361,43.2981818 Z" id="Path"></path>
                    <path d="M39.3224044,28.98 C37.7540984,29.4 36.1857923,29.5145455 34.6939891,31.0036364 C34.4644809,30.9272727 34.3114754,31.0418182 34.0437158,30.7363636 C36.147541,25.1236364 39.1311475,14.9290909 40.9289617,8.93454545 C41.0054645,8.09454545 41.2349727,7.63636364 41.3497268,6.83454545 C41.4262295,6.37636364 40.6229508,5.68909091 40.3169399,5.30727273 C39.7431694,5.42181818 39.704918,5.38363636 39.2076503,5.72727273 C38.2513661,6.37636364 38.0601093,6.45272727 37.2568306,7.33090909 C36.6830601,8.20909091 36.1092896,8.78181818 35.4972678,9.69818182 C34.7322404,10.8054545 34.3497268,11.3018182 33.3551913,13.0963636 C32.9344262,13.8218182 32.0928962,13.4781818 32.3989071,12.5236364 C32.7431694,11.5690909 32.3989071,12.4472727 33.2786885,10.92 C34.1584699,9.39272727 35.3442623,7.67454545 37.6010929,5.30727273 C39.0928962,3.78 42.6502732,1.90909091 44.715847,1.56545455 C46.284153,1.29818182 47.3551913,1.33636364 48.8852459,1.68 C49.9180328,1.90909091 51.1803279,2.48181818 51.6775956,3.47454545 C52.2513661,4.50545455 52.4808743,5.91818182 52.0983607,7.25454545 C51.8306011,8.05636364 51.5628415,8.82 51.3333333,9.62181818 C51.1038251,10.0418182 50.8743169,10.4236364 50.6448087,10.7672727 C49.7650273,12.2945455 49.8032787,11.0345455 49.4590164,11.9509091 C49.1530055,12.8290909 49.9180328,13.2109091 50.3387978,12.6 C49.0382514,16.7236364 47.8142077,20.7709091 46.8579235,24.5127273 C46.2459016,26.9181818 45.9398907,28.3309091 45.5191257,30.3927273 C45.136612,30.4690909 45.0218579,30.9654545 44.8306011,30.5454545 C43.2622951,29.2854545 43.6065574,29.5527273 42.8797814,29.2472727 C41.8087432,28.8272727 40.5846995,28.6363636 39.3224044,28.98 Z" id="Path"></path>
                    <path d="M32.2459016,39.4036364 C31.2896175,40.0527273 31.0983607,40.1290909 30.295082,41.0072727 C29.7213115,41.8854545 29.147541,42.4581818 28.5355191,43.3745455 C27.7704918,44.4818182 27.3879781,44.9781818 26.3934426,46.7727273 C25.9726776,47.4981818 25.1311475,47.1545455 25.4371585,46.2 C25.7814208,45.2454545 25.4371585,46.1236364 26.3169399,44.5963636 C27.1967213,43.0690909 28.3825137,41.3509091 30.6393443,39.0218182 C32.1311475,37.4945455 35.6885246,35.6236364 37.7540984,35.2418182 C39.3224044,34.9745455 40.3934426,35.0127273 41.9234973,35.3563636 C42.9562842,35.5854545 44.2185792,36.1581818 44.715847,37.1509091 C45.2896175,38.1818182 45.5191257,39.5945455 45.136612,40.9309091 C44.8688525,41.6945455 44.6393443,42.4963636 44.3715847,43.26 C44.3715847,43.26 44.3715847,43.2981818 44.3333333,43.2981818 C44.1038251,43.7181818 43.8743169,44.1 43.6448087,44.4436364 C42.7650273,45.9709091 42.8032787,44.7109091 42.4590164,45.6272727 C42.1530055,46.5054545 42.9180328,46.8872727 43.3387978,46.2763636 C42.0382514,50.4 40.8142077,54.4472727 39.8579235,58.1890909 C39.2459016,60.5563636 38.9398907,61.9690909 38.5191257,64.0690909 C38.136612,64.1454545 38.0218579,64.6418182 37.8306011,64.2218182 C36.3005464,62.9618182 36.6065574,63.2290909 35.8797814,62.9236364 C34.7704918,62.4654545 33.5464481,62.2745455 32.2459016,62.6181818 C30.6775956,63.0381818 29.147541,63.1527273 27.6174863,64.6418182 C27.3879781,64.5654545 27.2349727,64.68 26.9672131,64.3745455 C29.0710383,58.7618182 32.0546448,48.5672727 33.852459,42.5727273 C33.9289617,41.7327273 34.1584699,41.2745455 34.273224,40.4727273 C34.3114754,40.0145455 33.5081967,39.3272727 33.2404372,38.9836364 C32.7431694,39.0981818 32.7431694,39.06 32.2459016,39.4036364 Z" id="Path"></path>
                    <path d="M20.3879781,15.4636364 C17.0983607,16.5327273 13.7704918,15.8072727 12.9672131,13.86 C12.1639344,11.9127273 14.1912568,9.43090909 17.4808743,8.36181818 C20.7704918,7.29272727 24.0983607,8.01818182 24.9016393,9.96545455 C25.704918,11.9509091 23.6775956,14.3945455 20.3879781,15.4636364 Z" id="Path"></path>
                    <path d="M8.53005464,24.5127273 C7.95628415,24.6272727 7.61202186,24.4745455 7.1147541,24.8181818 C6.15846995,25.4672727 6.00546448,25.62 5.20218579,26.4981818 C4.6284153,27.3763636 4.01639344,28.0636364 3.36612022,28.98 C2.6010929,30.0872727 2.18032787,31.08 1.18579235,32.8745455 C0.765027322,33.6 -0.0382513661,33.18 0.306010929,32.2636364 C0.612021858,31.3090909 0.229508197,32.3018182 1.14754098,30.7745455 C2.06557377,29.2472727 3.78688525,26.2309091 6.08196721,23.9018182 C7.57377049,22.3745455 10.4808743,20.7327273 12.5464481,20.3509091 C14.1147541,20.0836364 14.9945355,19.7018182 16.4480874,20.2363636 C17.442623,20.58 18.8961749,21.3818182 19.431694,22.3363636 C20.0054645,23.3672727 20.0437158,24.8945455 19.7759563,26.04 C18.4371585,31.8054545 16.2185792,37.6472727 14.7650273,43.4127273 C14.5355191,44.3290909 14.3442623,45.1690909 14.6885246,46.0472727 C14.9180328,46.62 15.6448087,47.04 16.1803279,46.7345455 C17.2896175,46.1236364 17.9781421,45.6654545 18.704918,44.7872727 C19.5464481,43.7563636 20.273224,42.5345455 21.0765027,41.4654545 C21.6502732,40.74 22.0710383,39.0981818 22.5300546,38.9836364 C23.2568306,38.7927273 23.4480874,38.8690909 23.1420765,39.8236364 C22.7978142,40.8163636 21.4972678,42.6872727 20.273224,44.52 C19.010929,46.4290909 16.5628415,48.3381818 14.726776,49.4836364 C13.0437158,50.5145455 11.8579235,50.8963636 9.83060109,51.0872727 C8.64480874,51.2018182 7.38251366,51.2781818 6.27322404,50.8581818 C4.8579235,50.3236364 4.16939891,49.6363636 3.78688525,48.5290909 C3.51912568,47.6890909 3.28961749,46.4290909 3.51912568,45.5890909 C5.16393443,39.5563636 7,33.8290909 8.83606557,27.8345455 C8.91256831,26.9945455 9.1420765,26.5363636 9.2568306,25.7345455 C9.2568306,25.2 8.83606557,24.8945455 8.53005464,24.5127273 Z" id="Path"></path>
                </g>
                <g id="Group" stroke="#4E80BD">
                    <path d="M68.5464481,0.229090909 C107.027322,-1.18363636 139.081967,16.4563636 139.846995,39.4418182 C140.612022,62.4272727 109.857923,82.2818182 71.3770492,83.6945455 C32.8961749,85.0690909 0.841530055,67.4672727 0.0765027322,44.4818182 C-0.726775956,21.4963636 30.0273224,1.60363636 68.5464481,0.229090909 Z" id="Path" stroke-width="0.8504"></path>
                    <path d="M25.5136612,18.6709091 C28.8032787,17.6018182 32.1311475,18.3272727 32.9344262,20.2745455 C33.7377049,22.2218182 31.6721311,24.7036364 28.420765,25.7727273 C25.1311475,26.8418182 21.8032787,26.1163636 21,24.1690909 C20.1967213,22.2218182 22.2240437,19.74 25.5136612,18.6709091 Z" id="Path" stroke-width="0.216"></path>
                    <path d="M58.4480874,22.9472727 C58.0273224,23.5581818 57.2622951,23.1763636 57.568306,22.2981818 C57.9125683,21.3818182 57.8360656,22.6418182 58.7540984,21.1145455 C58.9836066,20.7709091 59.1748634,20.3890909 59.442623,19.9690909 C60.2459016,18.6709091 61.2786885,17.1054545 63,15.3109091 C64.4918033,13.7836364 67.8579235,11.7218182 69.9234973,11.34 C71.4918033,11.0727273 72.5628415,11.1109091 74.0928962,11.4545455 C75.1639344,11.6836364 76.3879781,12.2563636 76.8852459,13.2490909 C77.4590164,14.28 77.726776,15.7309091 77.3060109,17.0290909 C77.1530055,17.4872727 77,17.9454545 76.8469945,18.4036364 C76.579235,19.2818182 76.273224,20.16 76.0054645,21" id="Path" stroke-width="0.216"></path>
                    <path d="M119.84153,19.8163636 C119.382514,19.8545455 118.923497,19.9309091 118.579235,20.0454545 C117.202186,20.5418182 116.016393,21.9545455 115.557377,23.5581818 C115.174863,24.78 114.830601,26.46 115.021858,28.0254545 C115.251366,29.6290909 115.289617,29.7818182 116.857923,31.6909091 C116.743169,31.9963636 116.245902,31.9581818 116.054645,32.2254545" id="Path" stroke-width="0.216"></path>
                    <path d="M105.459016,32.6836364 C105.57377,32.34 105.726776,32.0345455 105.84153,31.6909091 C106.989071,28.7127273 108.595628,25.8109091 110.737705,23.5581818 C112.84153,21.3818182 115.786885,19.8927273 118.196721,19.1672727 C119.612022,18.7472727 124.202186,18.8236364 125.540984,20.4272727 C125.502732,20.7327273 125.693989,20.6181818 125.617486,20.9236364 C124.508197,20.3509091 123.016393,20.0072727 121.601093,19.8927273" id="Path" stroke-width="0.216"></path>
                    <path d="M121.639344,19.8545455 C123.20765,20.16 124.852459,21.2290909 126,22.7563636 C127.797814,25.1618182 127.721311,27.9109091 125.770492,28.8272727 C123.819672,29.7436364 120.721311,28.5218182 118.923497,26.1163636 C117.125683,23.7109091 117.240437,20.9618182 119.153005,20.0454545 C119.382514,19.9309091 119.612022,19.8545455 119.84153,19.8163636 C119.879781,19.8163636 119.918033,19.8163636 119.956284,19.8163636 C120.491803,19.74 121.027322,19.74 121.639344,19.8545455 L121.639344,19.8545455 Z" id="Path" stroke-width="0.216"></path>
                    <polyline id="Path" stroke-width="0.8504" stroke-linecap="round" points="99.6830601 32.8363636 105.459016 32.6836364 106.759563 32.6836364"></polyline>
                    <polyline id="Path" stroke-width="0.8504" stroke-linecap="round" points="114.677596 32.2636364 116.092896 32.2254545 121.754098 32.0727273"></polyline>
                </g>
            </g>
            <g id="Group" transform="translate(0.000000, 93.000000)" fill="#4E80BD" fill-rule="nonzero">
                <path d="M3.56286837,7.88461538 L3.56286837,8.07692308 L0.306483301,8.07692308 L0.306483301,7.88461538 L0.574656189,7.88461538 C0.881139489,7.88461538 1.11100196,7.80769231 1.26424361,7.61538462 C1.34086444,7.5 1.41748527,7.19230769 1.41748527,6.73076923 L1.41748527,1.80769231 C1.41748527,1.42307692 1.37917485,1.15384615 1.34086444,1.03846154 C1.30255403,0.961538462 1.2259332,0.846153846 1.11100196,0.807692308 C0.957760314,0.730769231 0.766208251,0.653846154 0.612966601,0.653846154 L0.344793713,0.653846154 L0.344793713,0.461538462 L3.60117878,0.461538462 L3.60117878,0.653846154 L3.33300589,0.653846154 C3.02652259,0.653846154 2.79666012,0.730769231 2.64341847,0.923076923 C2.56679764,1.03846154 2.49017682,1.34615385 2.49017682,1.80769231 L2.49017682,6.73076923 C2.49017682,7.11538462 2.52848723,7.38461538 2.56679764,7.5 C2.60510806,7.57692308 2.68172888,7.69230769 2.79666012,7.73076923 C2.94990177,7.80769231 3.14145383,7.88461538 3.29469548,7.88461538 L3.56286837,7.88461538 Z" id="Path"></path>
                <path d="M5.66994106,3.84615385 C6.28290766,3.11538462 6.85756385,2.76923077 7.39390963,2.76923077 C7.66208251,2.76923077 7.9302554,2.84615385 8.12180747,2.96153846 C8.31335953,3.11538462 8.46660118,3.34615385 8.61984283,3.65384615 C8.69646365,3.88461538 8.73477407,4.23076923 8.73477407,4.69230769 L8.73477407,6.88461538 C8.73477407,7.19230769 8.77308448,7.42307692 8.81139489,7.53846154 C8.8497053,7.61538462 8.92632613,7.69230769 9.00294695,7.76923077 C9.07956778,7.84615385 9.27111984,7.84615385 9.50098232,7.84615385 L9.50098232,8.03846154 L6.97249509,8.03846154 L6.97249509,7.84615385 L7.08742633,7.84615385 C7.3172888,7.84615385 7.50884086,7.80769231 7.58546169,7.73076923 C7.66208251,7.65384615 7.73870334,7.53846154 7.77701375,7.42307692 C7.77701375,7.38461538 7.81532417,7.19230769 7.81532417,6.88461538 L7.81532417,4.76923077 C7.81532417,4.30769231 7.73870334,3.96153846 7.6237721,3.73076923 C7.50884086,3.5 7.27897839,3.42307692 7.0108055,3.42307692 C6.55108055,3.42307692 6.12966601,3.65384615 5.66994106,4.15384615 L5.66994106,6.88461538 C5.66994106,7.23076923 5.70825147,7.46153846 5.74656189,7.53846154 C5.7848723,7.65384615 5.86149312,7.73076923 5.97642436,7.76923077 C6.05304519,7.80769231 6.24459725,7.84615385 6.55108055,7.84615385 L6.55108055,8.03846154 L4.02259332,8.03846154 L4.02259332,7.84615385 L4.13752456,7.84615385 C4.40569745,7.84615385 4.5589391,7.76923077 4.67387033,7.65384615 C4.78880157,7.53846154 4.82711198,7.26923077 4.82711198,6.88461538 L4.82711198,4.96153846 C4.82711198,4.34615385 4.82711198,3.96153846 4.78880157,3.84615385 C4.75049116,3.73076923 4.71218075,3.61538462 4.67387033,3.57692308 C4.63555992,3.53846154 4.52062868,3.5 4.44400786,3.5 C4.32907662,3.5 4.21414538,3.53846154 4.06090373,3.57692308 L3.98428291,3.38461538 L5.51669941,2.76923077 L5.74656189,2.76923077 L5.74656189,3.84615385 L5.66994106,3.84615385 Z" id="Path"></path>
                <path d="M13.2554028,2.76923077 L13.2554028,4.53846154 L13.0638507,4.53846154 C12.910609,4 12.7573674,3.61538462 12.5275049,3.42307692 C12.2976424,3.23076923 12.0294695,3.11538462 11.6846758,3.11538462 C11.4165029,3.11538462 11.2249509,3.19230769 11.0333988,3.30769231 C10.8418468,3.42307692 10.8035363,3.61538462 10.8035363,3.76923077 C10.8035363,3.96153846 10.8801572,4.15384615 10.9950884,4.30769231 C11.1100196,4.46153846 11.3398821,4.61538462 11.6846758,4.80769231 L12.4891945,5.19230769 C13.2554028,5.57692308 13.6385069,6.03846154 13.6385069,6.65384615 C13.6385069,7.11538462 13.4469548,7.5 13.1021611,7.80769231 C12.7573674,8.07692308 12.3359528,8.23076923 11.9145383,8.23076923 C11.608055,8.23076923 11.2249509,8.19230769 10.8418468,8.07692308 C10.7269155,8.03846154 10.6119843,8.03846154 10.5353635,8.03846154 C10.4587426,8.03846154 10.3821218,8.07692308 10.3438114,8.19230769 L10.1522593,8.19230769 L10.1522593,6.34615385 L10.3438114,6.34615385 C10.4587426,6.88461538 10.6502947,7.26923077 10.956778,7.53846154 C11.2632613,7.80769231 11.5697446,7.92307692 11.9528487,7.92307692 C12.2210216,7.92307692 12.4125737,7.84615385 12.5658153,7.69230769 C12.719057,7.53846154 12.7956778,7.34615385 12.7956778,7.15384615 C12.7956778,6.88461538 12.719057,6.69230769 12.5275049,6.5 C12.3359528,6.30769231 11.9911591,6.11538462 11.4548134,5.84615385 C10.9184676,5.57692308 10.5736739,5.34615385 10.3821218,5.11538462 C10.2288802,4.88461538 10.1139489,4.61538462 10.1139489,4.30769231 C10.1139489,3.88461538 10.2671906,3.53846154 10.5353635,3.23076923 C10.8035363,2.92307692 11.1866405,2.80769231 11.6463654,2.80769231 C11.8379175,2.80769231 12.1060904,2.84615385 12.3742633,2.92307692 C12.5658153,2.96153846 12.6807466,3 12.7573674,3 C12.8339882,3 12.8722986,3 12.910609,2.96153846 C12.9489194,2.92307692 12.9872299,2.88461538 13.0255403,2.76923077 L13.2554028,2.76923077 Z M12.3359528,2.15384615 L11.3015717,2.15384615 L10.2288802,0.307692308 L10.4204322,0.307692308 L11.9528487,1.5 L13.2554028,0.307692308 L13.4086444,0.307692308 L12.3359528,2.15384615 Z" id="Shape"></path>
                <path d="M15.8988212,1.23076923 L15.8988212,2.92307692 L17.086444,2.92307692 L17.086444,3.30769231 L15.8988212,3.30769231 L15.8988212,6.65384615 C15.8988212,7 15.9371316,7.23076923 16.0520629,7.34615385 C16.1669941,7.46153846 16.2819253,7.53846154 16.435167,7.53846154 C16.5500982,7.53846154 16.6650295,7.5 16.7799607,7.42307692 C16.8948919,7.34615385 16.9715128,7.23076923 17.0481336,7.07692308 L17.2779961,7.07692308 C17.1630648,7.46153846 16.9715128,7.73076923 16.7033399,7.92307692 C16.4734774,8.11538462 16.2053045,8.19230769 15.975442,8.19230769 C15.8222004,8.19230769 15.6306483,8.15384615 15.4774067,8.03846154 C15.324165,7.96153846 15.2092338,7.80769231 15.0943026,7.61538462 C14.9793713,7.42307692 14.9793713,7.15384615 14.9793713,6.80769231 L14.9793713,3.34615385 L14.1748527,3.34615385 L14.1748527,3.15384615 C14.3664047,3.07692308 14.5962672,2.92307692 14.7878193,2.73076923 C15.0176817,2.53846154 15.2092338,2.30769231 15.3624754,2.03846154 C15.4390963,1.88461538 15.5540275,1.65384615 15.7072692,1.26923077 L15.8988212,1.26923077 L15.8988212,1.23076923 Z" id="Path"></path>
                <path d="M19.3850688,2.76923077 L19.3850688,6.92307692 C19.3850688,7.23076923 19.4233792,7.46153846 19.4616896,7.57692308 C19.5,7.69230769 19.5766208,7.76923077 19.6532417,7.80769231 C19.7298625,7.84615385 19.9214145,7.88461538 20.151277,7.88461538 L20.151277,8.07692308 L17.6611002,8.07692308 L17.6611002,7.88461538 C17.9292731,7.88461538 18.0825147,7.84615385 18.1591356,7.80769231 C18.2357564,7.76923077 18.3123772,7.69230769 18.3506876,7.57692308 C18.388998,7.46153846 18.4273084,7.23076923 18.4273084,6.92307692 L18.4273084,4.92307692 C18.4273084,4.34615385 18.4273084,4 18.388998,3.84615385 C18.3506876,3.73076923 18.3123772,3.65384615 18.2740668,3.57692308 C18.2357564,3.5 18.1591356,3.5 18.0442043,3.5 C17.9292731,3.5 17.8143418,3.53846154 17.6611002,3.57692308 L17.5844794,3.38461538 L19.1168959,2.76923077 L19.3850688,2.76923077 Z M18.9253438,0.0769230769 C19.0785855,0.0769230769 19.2318271,0.115384615 19.3084479,0.230769231 C19.4233792,0.346153846 19.4616896,0.461538462 19.4616896,0.615384615 C19.4616896,0.769230769 19.4233792,0.923076923 19.3084479,1.03846154 C19.1935167,1.15384615 19.0785855,1.19230769 18.9253438,1.19230769 C18.7721022,1.19230769 18.6188605,1.15384615 18.5039293,1.03846154 C18.388998,0.923076923 18.3506876,0.807692308 18.3506876,0.615384615 C18.3506876,0.423076923 18.388998,0.307692308 18.5039293,0.230769231 C18.6188605,0.115384615 18.7337917,0.0769230769 18.9253438,0.0769230769 Z" id="Shape"></path>
                <path d="M22.2966601,1.23076923 L22.2966601,2.92307692 L23.4842829,2.92307692 L23.4842829,3.30769231 L22.2966601,3.30769231 L22.2966601,6.65384615 C22.2966601,7 22.3349705,7.23076923 22.4499018,7.34615385 C22.564833,7.46153846 22.6797642,7.53846154 22.8330059,7.53846154 C22.9479371,7.53846154 23.0628684,7.5 23.1777996,7.42307692 C23.2927308,7.34615385 23.3693517,7.23076923 23.4459725,7.07692308 L23.675835,7.07692308 C23.5609037,7.46153846 23.3693517,7.73076923 23.1011788,7.92307692 C22.8713163,8.11538462 22.6031434,8.19230769 22.3732809,8.19230769 C22.2200393,8.19230769 22.0284872,8.15384615 21.8752456,8.03846154 C21.7220039,7.96153846 21.6070727,7.80769231 21.4921415,7.61538462 C21.3772102,7.42307692 21.3772102,7.15384615 21.3772102,6.80769231 L21.3772102,3.34615385 L20.5726916,3.34615385 L20.5726916,3.15384615 C20.7642436,3.07692308 20.9941061,2.92307692 21.1856582,2.73076923 C21.4155206,2.53846154 21.6070727,2.30769231 21.7603143,2.03846154 C21.8369352,1.88461538 21.9518664,1.65384615 22.1051081,1.26923077 L22.2966601,1.26923077 L22.2966601,1.23076923 Z" id="Path"></path>
                <path d="M28.502947,2.92307692 L28.502947,6.03846154 C28.502947,6.65384615 28.502947,7 28.5412574,7.11538462 C28.5795678,7.23076923 28.6178782,7.34615385 28.694499,7.38461538 C28.7711198,7.42307692 28.8094303,7.46153846 28.9243615,7.46153846 C29.0392927,7.46153846 29.154224,7.42307692 29.3074656,7.38461538 L29.3840864,7.57692308 L27.8516699,8.23076923 L27.5834971,8.23076923 L27.5834971,7.15384615 C27.1237721,7.61538462 26.8172888,7.92307692 26.5874263,8.07692308 C26.3575639,8.23076923 26.1277014,8.26923077 25.8595285,8.26923077 C25.5530452,8.26923077 25.3231827,8.19230769 25.0933202,8 C24.8634578,7.84615385 24.7485265,7.61538462 24.6719057,7.34615385 C24.5952849,7.07692308 24.5569745,6.69230769 24.5569745,6.23076923 L24.5569745,3.92307692 C24.5569745,3.69230769 24.518664,3.5 24.4803536,3.42307692 C24.4420432,3.34615385 24.3654224,3.26923077 24.2504912,3.19230769 C24.1355599,3.15384615 23.9440079,3.11538462 23.675835,3.11538462 L23.675835,2.92307692 L25.4764244,2.92307692 L25.4764244,6.38461538 C25.4764244,6.84615385 25.5530452,7.19230769 25.7445972,7.34615385 C25.9361493,7.5 26.1277014,7.57692308 26.3575639,7.57692308 C26.5108055,7.57692308 26.7023576,7.53846154 26.8939096,7.42307692 C27.0854617,7.30769231 27.3536346,7.11538462 27.6218075,6.84615385 L27.6218075,3.92307692 C27.6218075,3.61538462 27.5834971,3.42307692 27.4685658,3.34615385 C27.3536346,3.26923077 27.1237721,3.19230769 26.8172888,3.19230769 L26.8172888,3 L28.502947,3 L28.502947,2.92307692 Z" id="Path"></path>
                <path d="M31.2229862,1.23076923 L31.2229862,2.92307692 L32.410609,2.92307692 L32.410609,3.30769231 L31.2229862,3.30769231 L31.2229862,6.65384615 C31.2229862,7 31.2612967,7.23076923 31.3762279,7.34615385 C31.4911591,7.46153846 31.6060904,7.53846154 31.759332,7.53846154 C31.8742633,7.53846154 31.9891945,7.5 32.1041257,7.42307692 C32.219057,7.34615385 32.2956778,7.23076923 32.3722986,7.07692308 L32.6021611,7.07692308 C32.4872299,7.46153846 32.2956778,7.73076923 32.0275049,7.92307692 C31.7976424,8.11538462 31.5294695,8.19230769 31.2996071,8.19230769 C31.1463654,8.19230769 30.9548134,8.15384615 30.8015717,8.03846154 C30.6483301,7.96153846 30.5333988,7.80769231 30.4184676,7.61538462 C30.3035363,7.42307692 30.3035363,7.15384615 30.3035363,6.80769231 L30.3035363,3.34615385 L29.4990177,3.34615385 L29.4990177,3.15384615 C29.6905697,3.07692308 29.9204322,2.92307692 30.1119843,2.73076923 C30.3418468,2.53846154 30.5333988,2.30769231 30.6866405,2.03846154 C30.7632613,1.88461538 30.8781925,1.65384615 31.0314342,1.26923077 L31.2229862,1.26923077 L31.2229862,1.23076923 Z" id="Path"></path>
                <path d="M40.2642436,6.5 L40.1876228,8.07692308 L35.6669941,8.07692308 L35.6669941,7.88461538 L39.0766208,3.30769231 L37.3909627,3.30769231 C37.046169,3.30769231 36.7779961,3.34615385 36.6630648,3.38461538 C36.5481336,3.42307692 36.4715128,3.53846154 36.3948919,3.65384615 C36.2799607,3.84615385 36.2416503,4.07692308 36.2033399,4.34615385 L36.0117878,4.34615385 L36.0500982,2.92307692 L40.3408644,2.92307692 L40.3408644,3.11538462 L36.8929273,7.69230769 L38.7701375,7.69230769 C39.1532417,7.69230769 39.4214145,7.65384615 39.5746562,7.57692308 C39.7278978,7.5 39.8428291,7.38461538 39.9194499,7.23076923 C39.9960707,7.11538462 40.0343811,6.84615385 40.0726916,6.46153846 L40.2642436,6.46153846 L40.2642436,6.5 Z" id="Path"></path>
                <path d="M43.827112,7.34615385 C43.2907662,7.76923077 42.9842829,8 42.8310413,8.03846154 C42.6394892,8.11538462 42.4096267,8.19230769 42.1797642,8.19230769 C41.8349705,8.19230769 41.5284872,8.07692308 41.2986248,7.80769231 C41.0687623,7.53846154 40.953831,7.23076923 40.953831,6.84615385 C40.953831,6.57692308 40.9921415,6.38461538 41.1070727,6.19230769 C41.2603143,5.92307692 41.5284872,5.69230769 41.9115914,5.46153846 C42.2946955,5.23076923 42.9076621,4.96153846 43.7888016,4.65384615 L43.7888016,4.46153846 C43.7888016,3.96153846 43.7121807,3.57692308 43.5589391,3.38461538 C43.4056974,3.19230769 43.175835,3.11538462 42.8310413,3.11538462 C42.6011788,3.11538462 42.4096267,3.19230769 42.2563851,3.30769231 C42.1031434,3.42307692 42.0265226,3.57692308 42.0265226,3.73076923 L42.0265226,4.03846154 C42.0265226,4.19230769 41.9882122,4.34615385 41.9115914,4.42307692 C41.8349705,4.5 41.7200393,4.57692308 41.5667976,4.57692308 C41.413556,4.57692308 41.2986248,4.53846154 41.2220039,4.42307692 C41.1453831,4.30769231 41.1070727,4.19230769 41.1070727,4.03846154 C41.1070727,3.73076923 41.2603143,3.42307692 41.6051081,3.15384615 C41.9499018,2.88461538 42.4096267,2.73076923 42.9842829,2.73076923 C43.4440079,2.73076923 43.827112,2.80769231 44.0952849,2.96153846 C44.3251473,3.07692308 44.478389,3.26923077 44.5933202,3.5 C44.6699411,3.65384615 44.7082515,4 44.7082515,4.5 L44.7082515,6.26923077 C44.7082515,6.76923077 44.7082515,7.07692308 44.7465619,7.19230769 C44.7848723,7.30769231 44.7848723,7.38461538 44.8231827,7.42307692 C44.8614931,7.46153846 44.8998035,7.46153846 44.9764244,7.46153846 C45.0530452,7.46153846 45.0913556,7.46153846 45.129666,7.42307692 C45.2062868,7.38461538 45.3595285,7.23076923 45.589391,7 L45.589391,7.30769231 C45.1679764,7.88461538 44.7848723,8.15384615 44.4017682,8.15384615 C44.2102161,8.15384615 44.0569745,8.07692308 43.9803536,7.96153846 C43.9037328,7.84615385 43.827112,7.65384615 43.827112,7.34615385 Z M43.827112,6.96153846 L43.827112,5 C43.2524558,5.23076923 42.9076621,5.38461538 42.71611,5.46153846 C42.4096267,5.61538462 42.2180747,5.80769231 42.064833,5.96153846 C41.9115914,6.11538462 41.8732809,6.34615385 41.8732809,6.53846154 C41.8732809,6.80769231 41.9499018,7.03846154 42.1031434,7.23076923 C42.2563851,7.42307692 42.4479371,7.5 42.6777996,7.5 C42.9842829,7.53846154 43.3290766,7.34615385 43.827112,6.96153846 Z" id="Shape"></path>
                <path d="M50.4165029,3.84615385 C50.7996071,3.46153846 51.0294695,3.26923077 51.06778,3.19230769 C51.2210216,3.03846154 51.4125737,2.92307692 51.6041257,2.84615385 C51.7956778,2.76923077 51.9872299,2.73076923 52.1787819,2.73076923 C52.4852652,2.73076923 52.7917485,2.80769231 53.021611,3 C53.2514735,3.19230769 53.4047151,3.46153846 53.481336,3.80769231 C53.8644401,3.34615385 54.2092338,3.07692308 54.4390963,2.92307692 C54.7072692,2.76923077 54.975442,2.73076923 55.2436149,2.73076923 C55.5117878,2.73076923 55.7416503,2.80769231 55.9715128,2.92307692 C56.2013752,3.07692308 56.3546169,3.30769231 56.4695481,3.61538462 C56.546169,3.84615385 56.5844794,4.19230769 56.5844794,4.65384615 L56.5844794,6.88461538 C56.5844794,7.19230769 56.6227898,7.42307692 56.6611002,7.53846154 C56.6994106,7.61538462 56.7760314,7.69230769 56.8526523,7.73076923 C56.9292731,7.76923077 57.1208251,7.80769231 57.3506876,7.80769231 L57.3506876,8 L54.8222004,8 L54.8222004,7.80769231 L54.9371316,7.80769231 C55.1669941,7.80769231 55.3202358,7.76923077 55.435167,7.69230769 C55.5117878,7.61538462 55.5884086,7.53846154 55.6267191,7.42307692 C55.6267191,7.34615385 55.6650295,7.19230769 55.6650295,6.88461538 L55.6650295,4.65384615 C55.6650295,4.23076923 55.6267191,3.92307692 55.5117878,3.76923077 C55.3585462,3.53846154 55.1286837,3.42307692 54.8222004,3.42307692 C54.6306483,3.42307692 54.4390963,3.46153846 54.2092338,3.57692308 C54.0176817,3.69230769 53.7495088,3.84615385 53.481336,4.11538462 L53.481336,4.19230769 L53.481336,4.42307692 L53.481336,6.88461538 C53.481336,7.23076923 53.5196464,7.46153846 53.5579568,7.53846154 C53.5962672,7.61538462 53.672888,7.69230769 53.7878193,7.76923077 C53.9027505,7.84615385 54.0943026,7.84615385 54.3624754,7.84615385 L54.3624754,8.03846154 L51.7573674,8.03846154 L51.7573674,7.84615385 C52.0255403,7.84615385 52.2554028,7.80769231 52.3320236,7.73076923 C52.4086444,7.65384615 52.5235756,7.57692308 52.5618861,7.42307692 C52.5618861,7.34615385 52.6001965,7.19230769 52.6001965,6.84615385 L52.6001965,4.61538462 C52.6001965,4.19230769 52.5235756,3.88461538 52.4086444,3.69230769 C52.2554028,3.46153846 52.0255403,3.34615385 51.719057,3.34615385 C51.5275049,3.34615385 51.3359528,3.38461538 51.1060904,3.5 C50.7996071,3.65384615 50.5697446,3.84615385 50.3781925,4.07692308 L50.3781925,6.84615385 C50.3781925,7.19230769 50.4165029,7.42307692 50.4548134,7.5 C50.4931238,7.57692308 50.5697446,7.69230769 50.6463654,7.73076923 C50.7229862,7.76923077 50.9145383,7.80769231 51.2210216,7.80769231 L51.2210216,8 L48.6925344,8 L48.6925344,7.80769231 C48.9223969,7.80769231 49.0756385,7.76923077 49.1905697,7.73076923 C49.2671906,7.69230769 49.3438114,7.61538462 49.4204322,7.5 C49.4587426,7.38461538 49.497053,7.19230769 49.497053,6.84615385 L49.497053,4.88461538 C49.497053,4.30769231 49.497053,3.96153846 49.4587426,3.76923077 C49.4204322,3.65384615 49.3821218,3.57692308 49.3438114,3.5 C49.305501,3.42307692 49.2288802,3.42307692 49.1139489,3.42307692 C48.9990177,3.42307692 48.8840864,3.46153846 48.7308448,3.5 L48.654224,3.30769231 L50.1866405,2.69230769 L50.4165029,2.69230769 L50.4165029,3.84615385 Z" id="Path"></path>
                <path d="M60.7220039,7.34615385 C60.1856582,7.76923077 59.8791749,8 59.7259332,8.03846154 C59.5343811,8.11538462 59.3045187,8.19230769 59.0746562,8.19230769 C58.7298625,8.19230769 58.4233792,8.07692308 58.1935167,7.80769231 C57.9636542,7.53846154 57.848723,7.23076923 57.848723,6.84615385 C57.848723,6.57692308 57.8870334,6.38461538 58.0019646,6.19230769 C58.1552063,5.92307692 58.4233792,5.69230769 58.8064833,5.46153846 C59.1895874,5.23076923 59.802554,4.96153846 60.6836935,4.65384615 L60.6836935,4.46153846 C60.6836935,3.96153846 60.6070727,3.57692308 60.453831,3.38461538 C60.3005894,3.19230769 60.0707269,3.11538462 59.7259332,3.11538462 C59.4960707,3.11538462 59.3045187,3.19230769 59.151277,3.30769231 C58.9980354,3.42307692 58.9214145,3.57692308 58.9214145,3.73076923 L58.9214145,4.03846154 C58.9214145,4.19230769 58.8831041,4.34615385 58.8064833,4.42307692 C58.7298625,4.5 58.6149312,4.57692308 58.4616896,4.57692308 C58.3084479,4.57692308 58.1935167,4.53846154 58.1168959,4.42307692 C58.040275,4.30769231 58.0019646,4.19230769 58.0019646,4.03846154 C58.0019646,3.73076923 58.1552063,3.42307692 58.5,3.15384615 C58.8447937,2.88461538 59.3045187,2.73076923 59.8791749,2.73076923 C60.3388998,2.73076923 60.7220039,2.80769231 60.9901768,2.96153846 C61.2200393,3.07692308 61.3732809,3.26923077 61.4882122,3.5 C61.564833,3.65384615 61.6031434,4 61.6031434,4.5 L61.6031434,6.26923077 C61.6031434,6.76923077 61.6031434,7.07692308 61.6414538,7.19230769 C61.6797642,7.30769231 61.6797642,7.38461538 61.7180747,7.42307692 C61.7563851,7.46153846 61.7946955,7.46153846 61.8713163,7.46153846 C61.9479371,7.46153846 61.9862475,7.46153846 62.024558,7.42307692 C62.1011788,7.38461538 62.2544204,7.23076923 62.4842829,7 L62.4842829,7.30769231 C62.0628684,7.88461538 61.6797642,8.15384615 61.2966601,8.15384615 C61.1051081,8.15384615 60.9518664,8.07692308 60.8752456,7.96153846 C60.7986248,7.84615385 60.7220039,7.65384615 60.7220039,7.34615385 Z M60.7220039,6.96153846 L60.7220039,5 C60.1473477,5.23076923 59.802554,5.38461538 59.611002,5.46153846 C59.3045187,5.61538462 59.1129666,5.80769231 58.959725,5.96153846 C58.8064833,6.11538462 58.7681729,6.34615385 58.7681729,6.53846154 C58.7681729,6.80769231 58.8447937,7.03846154 58.9980354,7.23076923 C59.151277,7.42307692 59.3428291,7.5 59.5726916,7.5 C59.8791749,7.53846154 60.262279,7.34615385 60.7220039,6.96153846 Z" id="Shape"></path>
                <path d="M64.3998035,1.23076923 L64.3998035,2.92307692 L65.5874263,2.92307692 L65.5874263,3.30769231 L64.3998035,3.30769231 L64.3998035,6.65384615 C64.3998035,7 64.4381139,7.23076923 64.5530452,7.34615385 C64.6679764,7.46153846 64.7829077,7.53846154 64.9361493,7.53846154 C65.0510806,7.53846154 65.1660118,7.5 65.280943,7.42307692 C65.3958743,7.34615385 65.4724951,7.23076923 65.5491159,7.07692308 L65.7789784,7.07692308 C65.6640472,7.46153846 65.4724951,7.73076923 65.2043222,7.92307692 C64.9744597,8.11538462 64.7062868,8.19230769 64.4764244,8.19230769 C64.3231827,8.19230769 64.1316306,8.15384615 63.978389,8.03846154 C63.8251473,7.96153846 63.7102161,7.80769231 63.5952849,7.61538462 C63.4803536,7.42307692 63.4803536,7.15384615 63.4803536,6.80769231 L63.4803536,3.34615385 L62.675835,3.34615385 L62.675835,3.15384615 C62.867387,3.07692308 63.0972495,2.92307692 63.2888016,2.73076923 C63.518664,2.53846154 63.7102161,2.30769231 63.8634578,2.03846154 C63.9400786,1.88461538 64.0550098,1.65384615 64.2082515,1.26923077 L64.3998035,1.26923077 L64.3998035,1.23076923 Z" id="Path"></path>
                <path d="M66.9666012,4.84615385 C66.9666012,5.61538462 67.1581532,6.23076923 67.5412574,6.65384615 C67.9243615,7.07692308 68.345776,7.30769231 68.8438114,7.30769231 C69.1886051,7.30769231 69.456778,7.23076923 69.7249509,7.03846154 C69.9548134,6.84615385 70.1846758,6.53846154 70.3379175,6.07692308 L70.5294695,6.19230769 C70.4528487,6.69230769 70.2229862,7.19230769 69.8398821,7.61538462 C69.456778,8.03846154 68.997053,8.23076923 68.4223969,8.23076923 C67.8094303,8.23076923 67.2730845,8 66.8516699,7.5 C66.4302554,7 66.2003929,6.38461538 66.2003929,5.53846154 C66.2003929,4.65384615 66.4302554,3.96153846 66.8899804,3.46153846 C67.3497053,2.96153846 67.9243615,2.73076923 68.5756385,2.73076923 C69.1502947,2.73076923 69.6100196,2.92307692 69.9931238,3.30769231 C70.3762279,3.69230769 70.56778,4.19230769 70.56778,4.84615385 L66.9666012,4.84615385 L66.9666012,4.84615385 Z M66.9666012,4.53846154 L69.3418468,4.53846154 C69.3418468,4.19230769 69.2652259,3.96153846 69.2269155,3.84615385 C69.1502947,3.65384615 68.997053,3.46153846 68.805501,3.34615385 C68.6139489,3.23076923 68.4223969,3.15384615 68.2308448,3.15384615 C67.9243615,3.15384615 67.6561886,3.26923077 67.3880157,3.5 C67.1581532,3.76923077 67.0049116,4.11538462 66.9666012,4.53846154 Z" id="Shape"></path>
                <path d="M72.7514735,3.84615385 C73.1345776,3.46153846 73.3644401,3.26923077 73.4027505,3.19230769 C73.5559921,3.03846154 73.7475442,2.92307692 73.9390963,2.84615385 C74.1306483,2.76923077 74.3222004,2.73076923 74.5137525,2.73076923 C74.8202358,2.73076923 75.1267191,2.80769231 75.3565815,3 C75.586444,3.19230769 75.7396857,3.46153846 75.8163065,3.80769231 C76.1994106,3.34615385 76.5442043,3.07692308 76.7740668,2.92307692 C77.0422397,2.76923077 77.3104126,2.73076923 77.5785855,2.73076923 C77.8467583,2.73076923 78.0766208,2.80769231 78.3064833,2.92307692 C78.5363458,3.07692308 78.6895874,3.30769231 78.8045187,3.61538462 C78.8811395,3.84615385 78.9194499,4.19230769 78.9194499,4.65384615 L78.9194499,6.88461538 C78.9194499,7.19230769 78.9577603,7.42307692 78.9960707,7.53846154 C79.0343811,7.61538462 79.111002,7.69230769 79.1876228,7.73076923 C79.2642436,7.76923077 79.4557957,7.80769231 79.6856582,7.80769231 L79.6856582,8 L77.1571709,8 L77.1571709,7.80769231 L77.2721022,7.80769231 C77.5019646,7.80769231 77.6552063,7.76923077 77.7701375,7.69230769 C77.8467583,7.61538462 77.9233792,7.53846154 77.9616896,7.42307692 C77.9616896,7.34615385 78,7.19230769 78,6.88461538 L78,4.65384615 C78,4.23076923 77.9616896,3.92307692 77.8467583,3.76923077 C77.6935167,3.53846154 77.4636542,3.42307692 77.1571709,3.42307692 C76.9656189,3.42307692 76.7740668,3.46153846 76.5442043,3.57692308 C76.3526523,3.69230769 76.0844794,3.84615385 75.8163065,4.11538462 L75.8163065,4.19230769 L75.8163065,4.42307692 L75.8163065,6.88461538 C75.8163065,7.23076923 75.8546169,7.46153846 75.8929273,7.53846154 C75.9312377,7.61538462 76.0078585,7.69230769 76.1227898,7.76923077 C76.237721,7.84615385 76.4292731,7.84615385 76.697446,7.84615385 L76.697446,8.03846154 L74.0923379,8.03846154 L74.0923379,7.84615385 C74.3605108,7.84615385 74.5903733,7.80769231 74.6669941,7.73076923 C74.7436149,7.65384615 74.8585462,7.57692308 74.8968566,7.42307692 C74.8968566,7.34615385 74.935167,7.19230769 74.935167,6.84615385 L74.935167,4.61538462 C74.935167,4.19230769 74.8585462,3.88461538 74.7436149,3.69230769 C74.5903733,3.46153846 74.3605108,3.34615385 74.0540275,3.34615385 C73.8624754,3.34615385 73.6709234,3.38461538 73.4410609,3.5 C73.1345776,3.65384615 72.9047151,3.84615385 72.7131631,4.07692308 L72.7131631,6.84615385 C72.7131631,7.19230769 72.7514735,7.42307692 72.7897839,7.5 C72.8280943,7.57692308 72.9047151,7.69230769 72.981336,7.73076923 C73.0579568,7.76923077 73.2495088,7.80769231 73.5559921,7.80769231 L73.5559921,8 L71.0275049,8 L71.0275049,7.80769231 C71.2573674,7.80769231 71.410609,7.76923077 71.5255403,7.73076923 C71.6021611,7.69230769 71.6787819,7.61538462 71.7554028,7.5 C71.7937132,7.38461538 71.8320236,7.19230769 71.8320236,6.84615385 L71.8320236,4.88461538 C71.8320236,4.30769231 71.8320236,3.96153846 71.7937132,3.76923077 C71.7554028,3.65384615 71.7170923,3.57692308 71.6787819,3.5 C71.6404715,3.42307692 71.5638507,3.42307692 71.4489194,3.42307692 C71.3339882,3.42307692 71.219057,3.46153846 71.0658153,3.5 L70.9891945,3.30769231 L72.521611,2.69230769 L72.7514735,2.69230769 L72.7514735,3.84615385 Z" id="Path"></path>
                <path d="M83.0569745,7.34615385 C82.5206287,7.76923077 82.2141454,8 82.0609037,8.03846154 C81.8693517,8.11538462 81.6394892,8.19230769 81.4096267,8.19230769 C81.064833,8.19230769 80.7583497,8.07692308 80.5284872,7.80769231 C80.2986248,7.53846154 80.1836935,7.23076923 80.1836935,6.84615385 C80.1836935,6.57692308 80.2220039,6.38461538 80.3369352,6.19230769 C80.4901768,5.92307692 80.7583497,5.69230769 81.1414538,5.46153846 C81.524558,5.23076923 82.1375246,4.96153846 83.018664,4.65384615 L83.018664,4.46153846 C83.018664,3.96153846 82.9420432,3.57692308 82.7888016,3.38461538 C82.6355599,3.19230769 82.4056974,3.11538462 82.0609037,3.11538462 C81.8310413,3.11538462 81.6394892,3.19230769 81.4862475,3.30769231 C81.3330059,3.42307692 81.2563851,3.57692308 81.2563851,3.73076923 L81.2563851,4.03846154 C81.2563851,4.19230769 81.2180747,4.34615385 81.1414538,4.42307692 C81.064833,4.5 80.9499018,4.57692308 80.7966601,4.57692308 C80.6434185,4.57692308 80.5284872,4.53846154 80.4518664,4.42307692 C80.3752456,4.30769231 80.3369352,4.19230769 80.3369352,4.03846154 C80.3369352,3.73076923 80.4901768,3.42307692 80.8349705,3.15384615 C81.1797642,2.88461538 81.6394892,2.73076923 82.2141454,2.73076923 C82.6738703,2.73076923 83.0569745,2.80769231 83.3251473,2.96153846 C83.5550098,3.07692308 83.7082515,3.26923077 83.8231827,3.5 C83.8998035,3.65384615 83.9381139,4 83.9381139,4.5 L83.9381139,6.26923077 C83.9381139,6.76923077 83.9381139,7.07692308 83.9764244,7.19230769 C84.0147348,7.30769231 84.0147348,7.38461538 84.0530452,7.42307692 C84.0913556,7.46153846 84.129666,7.46153846 84.2062868,7.46153846 C84.2829077,7.46153846 84.3212181,7.46153846 84.3595285,7.42307692 C84.4361493,7.38461538 84.589391,7.23076923 84.8192534,7 L84.8192534,7.30769231 C84.3978389,7.88461538 84.0147348,8.15384615 83.6316306,8.15384615 C83.4400786,8.15384615 83.2868369,8.07692308 83.2102161,7.96153846 C83.1335953,7.84615385 83.0569745,7.65384615 83.0569745,7.34615385 Z M83.0569745,6.96153846 L83.0569745,5 C82.4823183,5.23076923 82.1375246,5.38461538 81.9459725,5.46153846 C81.6394892,5.61538462 81.4479371,5.80769231 81.2946955,5.96153846 C81.1414538,6.11538462 81.1031434,6.34615385 81.1031434,6.53846154 C81.1031434,6.80769231 81.1797642,7.03846154 81.3330059,7.23076923 C81.4862475,7.42307692 81.6777996,7.5 81.9076621,7.5 C82.2141454,7.53846154 82.5972495,7.34615385 83.0569745,6.96153846 Z" id="Shape"></path>
                <path d="M86.7347741,1.23076923 L86.7347741,2.92307692 L87.9223969,2.92307692 L87.9223969,3.30769231 L86.7347741,3.30769231 L86.7347741,6.65384615 C86.7347741,7 86.7730845,7.23076923 86.8880157,7.34615385 C87.002947,7.46153846 87.1178782,7.53846154 87.2711198,7.53846154 C87.3860511,7.53846154 87.5009823,7.5 87.6159136,7.42307692 C87.7308448,7.34615385 87.8074656,7.23076923 87.8840864,7.07692308 L88.1139489,7.07692308 C87.9990177,7.46153846 87.8074656,7.73076923 87.5392927,7.92307692 C87.3094303,8.11538462 87.0412574,8.19230769 86.8113949,8.19230769 C86.6581532,8.19230769 86.4666012,8.15384615 86.3133595,8.03846154 C86.1601179,7.96153846 86.0451866,7.80769231 85.9302554,7.61538462 C85.8153242,7.42307692 85.8153242,7.15384615 85.8153242,6.80769231 L85.8153242,3.34615385 L85.0108055,3.34615385 L85.0108055,3.15384615 C85.2023576,3.07692308 85.43222,2.92307692 85.6237721,2.73076923 C85.8536346,2.53846154 86.0451866,2.30769231 86.1984283,2.03846154 C86.2750491,1.88461538 86.3899804,1.65384615 86.543222,1.26923077 L86.7347741,1.26923077 L86.7347741,1.23076923 Z" id="Path"></path>
                <path d="M90.2210216,2.76923077 L90.2210216,6.92307692 C90.2210216,7.23076923 90.259332,7.46153846 90.2976424,7.57692308 C90.3359528,7.69230769 90.4125737,7.76923077 90.4891945,7.80769231 C90.5658153,7.84615385 90.7573674,7.88461538 90.9872299,7.88461538 L90.9872299,8.07692308 L88.497053,8.07692308 L88.497053,7.88461538 C88.7652259,7.88461538 88.9184676,7.84615385 88.9950884,7.80769231 C89.0717092,7.76923077 89.1483301,7.69230769 89.1866405,7.57692308 C89.2249509,7.46153846 89.2632613,7.23076923 89.2632613,6.92307692 L89.2632613,4.92307692 C89.2632613,4.34615385 89.2632613,4 89.2249509,3.84615385 C89.1866405,3.73076923 89.1483301,3.65384615 89.1100196,3.57692308 C89.0717092,3.5 88.9950884,3.5 88.8801572,3.5 C88.7652259,3.5 88.6502947,3.53846154 88.497053,3.57692308 L88.4204322,3.38461538 L89.9528487,2.76923077 L90.2210216,2.76923077 Z M89.7612967,0.0769230769 C89.9145383,0.0769230769 90.06778,0.115384615 90.1444008,0.230769231 C90.259332,0.346153846 90.2976424,0.461538462 90.2976424,0.615384615 C90.2976424,0.769230769 90.259332,0.923076923 90.1444008,1.03846154 C90.0294695,1.15384615 89.9145383,1.19230769 89.7612967,1.19230769 C89.608055,1.19230769 89.4548134,1.15384615 89.3398821,1.03846154 C89.2249509,0.923076923 89.1866405,0.807692308 89.1866405,0.615384615 C89.1866405,0.423076923 89.2249509,0.307692308 89.3398821,0.230769231 C89.4548134,0.115384615 89.608055,0.0769230769 89.7612967,0.0769230769 Z" id="Shape"></path>
                <path d="M93.1709234,0.0769230769 L93.1709234,5.23076923 L94.4734774,4.03846154 C94.7416503,3.76923077 94.8948919,3.61538462 94.9715128,3.53846154 C95.0098232,3.5 95.0098232,3.46153846 95.0098232,3.38461538 C95.0098232,3.30769231 94.9715128,3.23076923 94.9332024,3.19230769 C94.8948919,3.15384615 94.7799607,3.11538462 94.6267191,3.11538462 L94.6267191,2.92307692 L96.848723,2.92307692 L96.848723,3.11538462 C96.5422397,3.11538462 96.2740668,3.15384615 96.0825147,3.26923077 C95.8909627,3.38461538 95.6611002,3.5 95.3929273,3.73076923 L94.0903733,4.96153846 L95.3929273,6.65384615 C95.7760314,7.11538462 96.0058939,7.42307692 96.1208251,7.53846154 C96.3123772,7.73076923 96.4656189,7.84615385 96.5805501,7.88461538 C96.6571709,7.92307692 96.848723,7.92307692 97.0785855,7.92307692 L97.0785855,8.11538462 L94.5884086,8.11538462 L94.5884086,7.92307692 C94.7416503,7.92307692 94.8182711,7.88461538 94.8948919,7.84615385 C94.9332024,7.80769231 94.9715128,7.76923077 94.9715128,7.69230769 C94.9715128,7.61538462 94.8948919,7.46153846 94.7416503,7.26923077 L93.1709234,5.23076923 L93.1709234,6.96153846 C93.1709234,7.30769231 93.2092338,7.5 93.2475442,7.61538462 C93.2858546,7.73076923 93.3624754,7.80769231 93.4390963,7.84615385 C93.5157171,7.88461538 93.7072692,7.92307692 94.0137525,7.92307692 L94.0137525,8.11538462 L91.4086444,8.11538462 L91.4086444,7.92307692 C91.6768173,7.92307692 91.8683694,7.88461538 91.9833006,7.84615385 C92.0599214,7.80769231 92.1365422,7.73076923 92.1748527,7.65384615 C92.2131631,7.53846154 92.2514735,7.30769231 92.2514735,7 L92.2514735,2.30769231 C92.2514735,1.69230769 92.2514735,1.34615385 92.2131631,1.23076923 C92.1748527,1.11538462 92.1365422,1 92.0982318,0.961538462 C92.021611,0.923076923 91.9449902,0.884615385 91.8683694,0.884615385 C91.7917485,0.884615385 91.6768173,0.923076923 91.5235756,0.961538462 L91.4469548,0.769230769 L92.9793713,0.153846154 L93.1709234,0.153846154 L93.1709234,0.0769230769 Z" id="Path"></path>
                <path d="M99.913556,2.76923077 C100.679764,2.76923077 101.331041,3.07692308 101.790766,3.65384615 C102.17387,4.15384615 102.403733,4.73076923 102.403733,5.38461538 C102.403733,5.84615385 102.288802,6.30769231 102.058939,6.76923077 C101.829077,7.23076923 101.522593,7.61538462 101.139489,7.84615385 C100.756385,8.07692308 100.334971,8.19230769 99.8369352,8.19230769 C99.0707269,8.19230769 98.4577603,7.88461538 97.9980354,7.26923077 C97.6149312,6.73076923 97.4233792,6.15384615 97.4233792,5.5 C97.4233792,5.03846154 97.5383104,4.53846154 97.7681729,4.07692308 C97.9980354,3.61538462 98.3045187,3.26923077 98.6876228,3.03846154 C99.0707269,2.80769231 99.453831,2.76923077 99.913556,2.76923077 Z M99.7220039,3.11538462 C99.5304519,3.11538462 99.3388998,3.19230769 99.1090373,3.30769231 C98.9174853,3.42307692 98.7642436,3.61538462 98.611002,3.92307692 C98.4577603,4.23076923 98.4194499,4.61538462 98.4194499,5.07692308 C98.4194499,5.84615385 98.5726916,6.46153846 98.8791749,7.03846154 C99.1856582,7.61538462 99.5687623,7.84615385 100.066798,7.84615385 C100.411591,7.84615385 100.718075,7.69230769 100.947937,7.38461538 C101.1778,7.07692308 101.292731,6.57692308 101.292731,5.84615385 C101.292731,4.92307692 101.101179,4.19230769 100.718075,3.69230769 C100.488212,3.30769231 100.143418,3.11538462 99.7220039,3.11538462 Z" id="Shape"></path>
                <path d="M103.399804,10 L103.399804,9.76923077 C103.782908,9.65384615 104.089391,9.46153846 104.280943,9.19230769 C104.472495,8.92307692 104.587426,8.65384615 104.587426,8.34615385 C104.587426,8.26923077 104.587426,8.23076923 104.549116,8.15384615 C104.510806,8.11538462 104.510806,8.11538462 104.472495,8.11538462 C104.434185,8.11538462 104.357564,8.15384615 104.204322,8.23076923 C104.127701,8.26923077 104.051081,8.26923077 103.97446,8.26923077 C103.782908,8.26923077 103.629666,8.23076923 103.553045,8.11538462 C103.476424,8 103.399804,7.84615385 103.399804,7.65384615 C103.399804,7.46153846 103.476424,7.30769231 103.591356,7.19230769 C103.706287,7.07692308 103.897839,7 104.089391,7 C104.319253,7 104.549116,7.11538462 104.740668,7.30769231 C104.93222,7.53846154 105.047151,7.80769231 105.047151,8.15384615 C105.047151,8.53846154 104.93222,8.88461538 104.664047,9.23076923 C104.395874,9.53846154 103.97446,9.80769231 103.399804,10 Z" id="Path"></path>
                <path d="M110.870334,3.30769231 L110.870334,6.69230769 C110.870334,7.15384615 110.908644,7.46153846 111.023576,7.61538462 C111.176817,7.76923077 111.330059,7.84615385 111.598232,7.84615385 L112.057957,7.84615385 L112.057957,8.03846154 L108.993124,8.03846154 L108.993124,7.84615385 L109.222986,7.84615385 C109.376228,7.84615385 109.491159,7.80769231 109.644401,7.73076923 C109.797642,7.65384615 109.835953,7.53846154 109.912574,7.42307692 C109.950884,7.30769231 109.989194,7.03846154 109.989194,6.69230769 L109.989194,3.30769231 L108.993124,3.30769231 L108.993124,2.88461538 L109.989194,2.88461538 L109.989194,2.53846154 C109.989194,2.03846154 110.065815,1.57692308 110.219057,1.23076923 C110.372299,0.884615385 110.640472,0.576923077 110.985265,0.384615385 C111.330059,0.153846154 111.713163,0.0384615385 112.134578,0.0384615385 C112.517682,0.0384615385 112.900786,0.153846154 113.207269,0.423076923 C113.437132,0.576923077 113.513752,0.769230769 113.513752,1 C113.513752,1.11538462 113.475442,1.23076923 113.360511,1.30769231 C113.24558,1.42307692 113.168959,1.46153846 113.054028,1.46153846 C112.977407,1.46153846 112.862475,1.42307692 112.785855,1.38461538 C112.709234,1.30769231 112.555992,1.19230769 112.441061,1 C112.32613,0.807692308 112.172888,0.653846154 112.057957,0.576923077 C111.943026,0.5 111.828094,0.461538462 111.674853,0.461538462 C111.521611,0.461538462 111.368369,0.5 111.253438,0.615384615 C111.138507,0.730769231 111.061886,0.846153846 110.985265,1.03846154 C110.908644,1.23076923 110.908644,1.73076923 110.908644,2.53846154 L110.908644,2.92307692 L112.249509,2.92307692 L112.249509,3.34615385 L110.870334,3.34615385 L110.870334,3.30769231 Z" id="Path"></path>
                <path d="M114.471513,2.76923077 L114.471513,6.92307692 C114.471513,7.23076923 114.509823,7.46153846 114.548134,7.57692308 C114.586444,7.69230769 114.663065,7.76923077 114.739686,7.80769231 C114.816306,7.84615385 115.007859,7.88461538 115.237721,7.88461538 L115.237721,8.07692308 L112.747544,8.07692308 L112.747544,7.88461538 C113.015717,7.88461538 113.168959,7.84615385 113.24558,7.80769231 C113.3222,7.76923077 113.398821,7.69230769 113.437132,7.57692308 C113.475442,7.46153846 113.513752,7.23076923 113.513752,6.92307692 L113.513752,4.92307692 C113.513752,4.34615385 113.513752,4 113.475442,3.84615385 C113.437132,3.73076923 113.398821,3.65384615 113.360511,3.57692308 C113.3222,3.5 113.24558,3.5 113.130648,3.5 C113.015717,3.5 112.900786,3.53846154 112.747544,3.57692308 L112.670923,3.38461538 L114.20334,2.76923077 L114.471513,2.76923077 Z M114.011788,0.0769230769 C114.165029,0.0769230769 114.318271,0.115384615 114.394892,0.230769231 C114.509823,0.346153846 114.548134,0.461538462 114.548134,0.615384615 C114.548134,0.769230769 114.509823,0.923076923 114.394892,1.03846154 C114.279961,1.15384615 114.165029,1.19230769 114.011788,1.19230769 C113.858546,1.19230769 113.705305,1.15384615 113.590373,1.03846154 C113.475442,0.923076923 113.437132,0.807692308 113.437132,0.615384615 C113.437132,0.423076923 113.475442,0.307692308 113.590373,0.230769231 C113.705305,0.115384615 113.858546,0.0769230769 114.011788,0.0769230769 Z" id="Shape"></path>
                <path d="M120.371316,6.5 L120.294695,8.07692308 L115.774067,8.07692308 L115.774067,7.88461538 L119.183694,3.30769231 L117.498035,3.30769231 C117.153242,3.30769231 116.885069,3.34615385 116.770138,3.38461538 C116.655206,3.42307692 116.578585,3.53846154 116.501965,3.65384615 C116.387033,3.84615385 116.348723,4.07692308 116.310413,4.34615385 L116.08055,4.34615385 L116.118861,2.92307692 L120.409627,2.92307692 L120.409627,3.11538462 L116.96169,7.69230769 L118.8389,7.69230769 C119.222004,7.69230769 119.490177,7.65384615 119.643418,7.57692308 C119.79666,7.5 119.911591,7.38461538 119.988212,7.23076923 C120.064833,7.11538462 120.103143,6.84615385 120.141454,6.46153846 L120.371316,6.46153846 L120.371316,6.5 Z" id="Path"></path>
                <path d="M122.784872,2.76923077 L122.784872,6.92307692 C122.784872,7.23076923 122.823183,7.46153846 122.861493,7.57692308 C122.899804,7.69230769 122.976424,7.76923077 123.053045,7.80769231 C123.129666,7.84615385 123.321218,7.88461538 123.551081,7.88461538 L123.551081,8.07692308 L121.060904,8.07692308 L121.060904,7.88461538 C121.329077,7.88461538 121.482318,7.84615385 121.558939,7.80769231 C121.63556,7.76923077 121.712181,7.69230769 121.750491,7.57692308 C121.788802,7.46153846 121.827112,7.23076923 121.827112,6.92307692 L121.827112,4.92307692 C121.827112,4.34615385 121.827112,4 121.788802,3.84615385 C121.750491,3.73076923 121.712181,3.65384615 121.67387,3.57692308 C121.63556,3.5 121.558939,3.5 121.444008,3.5 C121.329077,3.5 121.214145,3.53846154 121.060904,3.57692308 L120.984283,3.38461538 L122.516699,2.76923077 L122.784872,2.76923077 Z M122.286837,0.0769230769 C122.440079,0.0769230769 122.59332,0.115384615 122.669941,0.230769231 C122.784872,0.346153846 122.823183,0.461538462 122.823183,0.615384615 C122.823183,0.769230769 122.784872,0.923076923 122.669941,1.03846154 C122.55501,1.15384615 122.440079,1.19230769 122.286837,1.19230769 C122.133595,1.19230769 121.980354,1.15384615 121.865422,1.03846154 C121.750491,0.923076923 121.712181,0.807692308 121.712181,0.615384615 C121.712181,0.423076923 121.750491,0.307692308 121.865422,0.230769231 C122.018664,0.115384615 122.133595,0.0769230769 122.286837,0.0769230769 Z" id="Shape"></path>
                <path d="M125.696464,0.0769230769 L125.696464,5.23076923 L126.999018,4.03846154 C127.267191,3.76923077 127.420432,3.61538462 127.497053,3.53846154 C127.535363,3.5 127.535363,3.46153846 127.535363,3.38461538 C127.535363,3.30769231 127.497053,3.23076923 127.458743,3.19230769 C127.382122,3.15384615 127.305501,3.11538462 127.152259,3.11538462 L127.152259,2.92307692 L129.374263,2.92307692 L129.374263,3.11538462 C129.06778,3.11538462 128.799607,3.15384615 128.608055,3.26923077 C128.416503,3.34615385 128.18664,3.5 127.918468,3.73076923 L126.615914,4.96153846 L127.918468,6.65384615 C128.301572,7.11538462 128.531434,7.42307692 128.646365,7.53846154 C128.837917,7.73076923 128.991159,7.84615385 129.10609,7.88461538 C129.182711,7.92307692 129.374263,7.92307692 129.604126,7.92307692 L129.604126,8.11538462 L127.113949,8.11538462 L127.113949,7.92307692 C127.267191,7.92307692 127.343811,7.88461538 127.420432,7.84615385 C127.458743,7.80769231 127.497053,7.76923077 127.497053,7.69230769 C127.497053,7.61538462 127.420432,7.46153846 127.267191,7.26923077 L125.696464,5.23076923 L125.696464,6.96153846 C125.696464,7.30769231 125.734774,7.5 125.773084,7.61538462 C125.811395,7.73076923 125.888016,7.80769231 125.964637,7.84615385 C126.041257,7.88461538 126.232809,7.92307692 126.539293,7.92307692 L126.539293,8.11538462 L123.934185,8.11538462 L123.934185,7.92307692 C124.202358,7.92307692 124.39391,7.88461538 124.508841,7.84615385 C124.585462,7.80769231 124.662083,7.73076923 124.700393,7.65384615 C124.738703,7.53846154 124.777014,7.30769231 124.777014,7 L124.777014,2.30769231 C124.777014,1.69230769 124.777014,1.34615385 124.738703,1.23076923 C124.700393,1.11538462 124.662083,1 124.623772,0.961538462 C124.547151,0.923076923 124.47053,0.884615385 124.39391,0.884615385 C124.317289,0.884615385 124.202358,0.923076923 124.049116,0.961538462 L123.972495,0.769230769 L125.504912,0.153846154 L125.696464,0.153846154 L125.696464,0.0769230769 Z" id="Path"></path>
                <path d="M132.439096,2.76923077 C133.205305,2.76923077 133.856582,3.07692308 134.316306,3.65384615 C134.699411,4.15384615 134.929273,4.73076923 134.929273,5.38461538 C134.929273,5.84615385 134.814342,6.30769231 134.584479,6.76923077 C134.354617,7.23076923 134.048134,7.61538462 133.665029,7.84615385 C133.281925,8.07692308 132.860511,8.19230769 132.362475,8.19230769 C131.596267,8.19230769 130.983301,7.88461538 130.523576,7.26923077 C130.140472,6.73076923 129.948919,6.15384615 129.948919,5.5 C129.948919,5.03846154 130.063851,4.53846154 130.293713,4.07692308 C130.523576,3.61538462 130.830059,3.26923077 131.213163,3.03846154 C131.596267,2.80769231 132.017682,2.76923077 132.439096,2.76923077 Z M132.285855,3.11538462 C132.094303,3.11538462 131.90275,3.19230769 131.672888,3.30769231 C131.481336,3.42307692 131.328094,3.61538462 131.174853,3.92307692 C131.021611,4.23076923 130.983301,4.61538462 130.983301,5.07692308 C130.983301,5.84615385 131.136542,6.46153846 131.443026,7.03846154 C131.749509,7.57692308 132.132613,7.84615385 132.630648,7.84615385 C132.975442,7.84615385 133.281925,7.69230769 133.511788,7.38461538 C133.74165,7.07692308 133.856582,6.57692308 133.856582,5.84615385 C133.856582,4.92307692 133.665029,4.19230769 133.281925,3.69230769 C133.013752,3.30769231 132.707269,3.11538462 132.285855,3.11538462 Z" id="Shape"></path>
                <path d="M140.331041,2.76923077 L140.331041,6.92307692 C140.331041,7.23076923 140.369352,7.46153846 140.407662,7.57692308 C140.445972,7.69230769 140.522593,7.76923077 140.599214,7.80769231 C140.675835,7.84615385 140.867387,7.88461538 141.09725,7.88461538 L141.09725,8.07692308 L138.607073,8.07692308 L138.607073,7.88461538 C138.875246,7.88461538 139.028487,7.84615385 139.105108,7.80769231 C139.181729,7.76923077 139.25835,7.69230769 139.29666,7.57692308 C139.334971,7.46153846 139.373281,7.23076923 139.373281,6.92307692 L139.373281,4.92307692 C139.373281,4.34615385 139.373281,4 139.334971,3.84615385 C139.29666,3.73076923 139.25835,3.65384615 139.220039,3.57692308 C139.181729,3.5 139.105108,3.5 138.990177,3.5 C138.875246,3.5 138.760314,3.53846154 138.607073,3.57692308 L138.530452,3.38461538 L140.062868,2.76923077 L140.331041,2.76923077 Z M139.871316,0.0769230769 C140.024558,0.0769230769 140.1778,0.115384615 140.25442,0.230769231 C140.369352,0.346153846 140.407662,0.461538462 140.407662,0.615384615 C140.407662,0.769230769 140.369352,0.923076923 140.25442,1.03846154 C140.139489,1.15384615 140.024558,1.19230769 139.871316,1.19230769 C139.718075,1.19230769 139.564833,1.15384615 139.449902,1.03846154 C139.334971,0.923076923 139.29666,0.807692308 139.29666,0.615384615 C139.29666,0.423076923 139.334971,0.307692308 139.449902,0.230769231 C139.564833,0.115384615 139.718075,0.0769230769 139.871316,0.0769230769 Z" id="Shape"></path>
                <path d="M143.242633,3.84615385 C143.855599,3.11538462 144.430255,2.76923077 144.966601,2.76923077 C145.234774,2.76923077 145.502947,2.84615385 145.694499,2.96153846 C145.886051,3.11538462 146.039293,3.34615385 146.192534,3.65384615 C146.269155,3.88461538 146.307466,4.23076923 146.307466,4.69230769 L146.307466,6.88461538 C146.307466,7.19230769 146.345776,7.42307692 146.384086,7.53846154 C146.422397,7.61538462 146.499018,7.69230769 146.575639,7.76923077 C146.652259,7.80769231 146.843811,7.84615385 147.073674,7.84615385 L147.073674,8.03846154 L144.545187,8.03846154 L144.545187,7.84615385 L144.660118,7.84615385 C144.88998,7.84615385 145.081532,7.80769231 145.158153,7.73076923 C145.234774,7.65384615 145.311395,7.53846154 145.349705,7.42307692 C145.349705,7.38461538 145.388016,7.19230769 145.388016,6.88461538 L145.388016,4.76923077 C145.388016,4.30769231 145.311395,3.96153846 145.196464,3.73076923 C145.081532,3.5 144.85167,3.42307692 144.583497,3.42307692 C144.123772,3.42307692 143.702358,3.65384615 143.242633,4.15384615 L143.242633,6.88461538 C143.242633,7.23076923 143.280943,7.46153846 143.319253,7.53846154 C143.357564,7.65384615 143.434185,7.73076923 143.549116,7.76923077 C143.625737,7.80769231 143.817289,7.84615385 144.123772,7.84615385 L144.123772,8.03846154 L141.595285,8.03846154 L141.595285,7.84615385 L141.710216,7.84615385 C141.978389,7.84615385 142.131631,7.76923077 142.246562,7.65384615 C142.361493,7.53846154 142.399804,7.26923077 142.399804,6.88461538 L142.399804,4.96153846 C142.399804,4.34615385 142.399804,3.96153846 142.361493,3.84615385 C142.323183,3.69230769 142.284872,3.61538462 142.246562,3.57692308 C142.208251,3.53846154 142.09332,3.5 142.016699,3.5 C141.901768,3.5 141.786837,3.53846154 141.633595,3.57692308 L141.556974,3.38461538 L143.089391,2.76923077 L143.319253,2.76923077 L143.319253,3.84615385 L143.242633,3.84615385 Z" id="Path"></path>
                <path d="M151.900786,3.84615385 C152.28389,3.46153846 152.513752,3.26923077 152.552063,3.19230769 C152.705305,3.03846154 152.896857,2.92307692 153.088409,2.84615385 C153.279961,2.76923077 153.471513,2.73076923 153.663065,2.73076923 C153.969548,2.73076923 154.276031,2.80769231 154.505894,3 C154.735756,3.19230769 154.888998,3.46153846 154.965619,3.80769231 C155.348723,3.34615385 155.693517,3.07692308 155.923379,2.92307692 C156.191552,2.76923077 156.459725,2.73076923 156.727898,2.73076923 C156.996071,2.73076923 157.225933,2.80769231 157.455796,2.92307692 C157.685658,3.07692308 157.8389,3.30769231 157.953831,3.61538462 C158.030452,3.84615385 158.068762,4.19230769 158.068762,4.65384615 L158.068762,6.88461538 C158.068762,7.19230769 158.107073,7.42307692 158.145383,7.53846154 C158.183694,7.61538462 158.260314,7.69230769 158.336935,7.73076923 C158.413556,7.76923077 158.605108,7.80769231 158.834971,7.80769231 L158.834971,8 L156.306483,8 L156.306483,7.80769231 L156.421415,7.80769231 C156.651277,7.80769231 156.804519,7.76923077 156.91945,7.69230769 C156.996071,7.61538462 157.072692,7.53846154 157.111002,7.42307692 C157.111002,7.34615385 157.149312,7.19230769 157.149312,6.88461538 L157.149312,4.65384615 C157.149312,4.23076923 157.111002,3.92307692 156.996071,3.76923077 C156.842829,3.53846154 156.612967,3.42307692 156.306483,3.42307692 C156.114931,3.42307692 155.923379,3.46153846 155.693517,3.57692308 C155.501965,3.69230769 155.233792,3.84615385 154.965619,4.11538462 L154.965619,4.19230769 L154.965619,4.42307692 L154.965619,6.88461538 C154.965619,7.23076923 155.003929,7.46153846 155.04224,7.53846154 C155.08055,7.61538462 155.157171,7.69230769 155.272102,7.76923077 C155.387033,7.84615385 155.578585,7.84615385 155.846758,7.84615385 L155.846758,8.03846154 L153.24165,8.03846154 L153.24165,7.84615385 C153.509823,7.84615385 153.739686,7.80769231 153.816306,7.73076923 C153.931238,7.65384615 154.007859,7.57692308 154.046169,7.42307692 C154.046169,7.34615385 154.084479,7.19230769 154.084479,6.84615385 L154.084479,4.61538462 C154.084479,4.19230769 154.007859,3.88461538 153.892927,3.69230769 C153.739686,3.46153846 153.509823,3.34615385 153.20334,3.34615385 C153.011788,3.34615385 152.820236,3.38461538 152.590373,3.5 C152.28389,3.65384615 152.054028,3.84615385 151.862475,4.07692308 L151.862475,6.84615385 C151.862475,7.19230769 151.900786,7.42307692 151.939096,7.5 C151.977407,7.61538462 152.054028,7.69230769 152.130648,7.73076923 C152.207269,7.76923077 152.398821,7.80769231 152.705305,7.80769231 L152.705305,8 L150.176817,8 L150.176817,7.80769231 C150.40668,7.80769231 150.559921,7.76923077 150.674853,7.73076923 C150.751473,7.69230769 150.828094,7.61538462 150.904715,7.5 C150.943026,7.38461538 150.981336,7.19230769 150.981336,6.84615385 L150.981336,4.88461538 C150.981336,4.30769231 150.981336,3.96153846 150.943026,3.76923077 C150.904715,3.65384615 150.866405,3.57692308 150.828094,3.5 C150.789784,3.42307692 150.713163,3.42307692 150.598232,3.42307692 C150.483301,3.42307692 150.368369,3.46153846 150.215128,3.5 L150.138507,3.30769231 L151.670923,2.69230769 L151.900786,2.69230769 L151.900786,3.84615385 Z" id="Path"></path>
                <path d="M160.175835,4.84615385 C160.175835,5.61538462 160.367387,6.23076923 160.750491,6.65384615 C161.133595,7.07692308 161.55501,7.30769231 162.053045,7.30769231 C162.397839,7.30769231 162.666012,7.23076923 162.934185,7.03846154 C163.164047,6.84615385 163.39391,6.53846154 163.547151,6.07692308 L163.738703,6.19230769 C163.662083,6.69230769 163.43222,7.19230769 163.049116,7.61538462 C162.666012,8.03846154 162.206287,8.23076923 161.631631,8.23076923 C161.018664,8.23076923 160.482318,8 160.060904,7.5 C159.639489,7 159.409627,6.38461538 159.409627,5.53846154 C159.409627,4.65384615 159.639489,3.96153846 160.099214,3.46153846 C160.558939,2.96153846 161.133595,2.73076923 161.784872,2.73076923 C162.359528,2.73076923 162.819253,2.92307692 163.202358,3.30769231 C163.585462,3.69230769 163.777014,4.19230769 163.777014,4.84615385 L160.175835,4.84615385 L160.175835,4.84615385 Z M160.175835,4.53846154 L162.551081,4.53846154 C162.551081,4.19230769 162.47446,3.96153846 162.436149,3.84615385 C162.359528,3.65384615 162.206287,3.46153846 162.014735,3.34615385 C161.823183,3.23076923 161.631631,3.15384615 161.440079,3.15384615 C161.133595,3.15384615 160.865422,3.26923077 160.59725,3.5 C160.367387,3.76923077 160.214145,4.11538462 160.175835,4.53846154 Z" id="Shape"></path>
                <path d="M165.922397,0.0769230769 L165.922397,3.84615385 C166.343811,3.38461538 166.650295,3.07692308 166.918468,2.96153846 C167.14833,2.84615385 167.416503,2.76923077 167.646365,2.76923077 C167.952849,2.76923077 168.182711,2.84615385 168.412574,3 C168.642436,3.15384615 168.795678,3.42307692 168.872299,3.76923077 C168.948919,4 168.98723,4.46153846 168.98723,5.07692308 L168.98723,6.88461538 C168.98723,7.19230769 169.02554,7.42307692 169.063851,7.53846154 C169.102161,7.61538462 169.178782,7.69230769 169.255403,7.76923077 C169.332024,7.84615385 169.523576,7.84615385 169.753438,7.84615385 L169.753438,8.03846154 L167.224951,8.03846154 L167.224951,7.84615385 L167.339882,7.84615385 C167.569745,7.84615385 167.761297,7.80769231 167.837917,7.73076923 C167.914538,7.65384615 167.991159,7.53846154 168.02947,7.42307692 C168.02947,7.34615385 168.02947,7.19230769 168.02947,6.88461538 L168.02947,5.07692308 C168.02947,4.5 167.991159,4.15384615 167.952849,3.96153846 C167.914538,3.76923077 167.799607,3.65384615 167.684676,3.57692308 C167.569745,3.5 167.416503,3.46153846 167.224951,3.46153846 C167.033399,3.46153846 166.841847,3.5 166.650295,3.61538462 C166.458743,3.73076923 166.22888,3.92307692 165.922397,4.19230769 L165.922397,6.92307692 C165.922397,7.26923077 165.960707,7.5 165.999018,7.57692308 C166.037328,7.65384615 166.113949,7.73076923 166.22888,7.80769231 C166.343811,7.88461538 166.535363,7.88461538 166.765226,7.88461538 L166.765226,8.07692308 L164.198428,8.07692308 L164.198428,7.88461538 C164.428291,7.88461538 164.619843,7.84615385 164.734774,7.76923077 C164.811395,7.73076923 164.888016,7.65384615 164.926326,7.53846154 C164.964637,7.42307692 165.002947,7.23076923 165.002947,6.88461538 L165.002947,2.23076923 C165.002947,1.65384615 165.002947,1.26923077 164.964637,1.15384615 C164.926326,1 164.888016,0.923076923 164.849705,0.884615385 C164.773084,0.846153846 164.696464,0.807692308 164.619843,0.807692308 C164.543222,0.807692308 164.428291,0.846153846 164.236739,0.884615385 L164.160118,0.692307692 L165.692534,0.0769230769 L165.922397,0.0769230769 L165.922397,0.0769230769 Z" id="Path"></path>
                <path d="M173.086444,7.34615385 C172.550098,7.76923077 172.243615,8 172.090373,8.03846154 C171.898821,8.11538462 171.668959,8.19230769 171.439096,8.19230769 C171.094303,8.19230769 170.787819,8.07692308 170.557957,7.80769231 C170.328094,7.57692308 170.213163,7.23076923 170.213163,6.84615385 C170.213163,6.57692308 170.251473,6.38461538 170.366405,6.19230769 C170.519646,5.92307692 170.787819,5.69230769 171.170923,5.46153846 C171.554028,5.23076923 172.166994,4.96153846 173.048134,4.65384615 L173.048134,4.46153846 C173.048134,3.96153846 172.971513,3.57692308 172.818271,3.38461538 C172.665029,3.19230769 172.435167,3.11538462 172.090373,3.11538462 C171.860511,3.11538462 171.668959,3.19230769 171.515717,3.30769231 C171.362475,3.42307692 171.285855,3.57692308 171.285855,3.73076923 L171.285855,4.03846154 C171.285855,4.19230769 171.247544,4.34615385 171.170923,4.42307692 C171.094303,4.5 170.979371,4.57692308 170.82613,4.57692308 C170.672888,4.57692308 170.557957,4.53846154 170.481336,4.42307692 C170.404715,4.30769231 170.366405,4.19230769 170.366405,4.03846154 C170.366405,3.73076923 170.519646,3.42307692 170.86444,3.15384615 C171.209234,2.88461538 171.668959,2.73076923 172.243615,2.73076923 C172.70334,2.73076923 173.086444,2.80769231 173.354617,2.96153846 C173.584479,3.07692308 173.737721,3.26923077 173.852652,3.5 C173.929273,3.65384615 173.967583,4 173.967583,4.5 L173.967583,6.26923077 C173.967583,6.76923077 173.967583,7.07692308 174.005894,7.19230769 C174.044204,7.30769231 174.044204,7.38461538 174.082515,7.42307692 C174.120825,7.46153846 174.159136,7.46153846 174.235756,7.46153846 C174.312377,7.46153846 174.350688,7.46153846 174.388998,7.42307692 C174.465619,7.38461538 174.618861,7.23076923 174.848723,7 L174.848723,7.30769231 C174.427308,7.88461538 174.044204,8.15384615 173.6611,8.15384615 C173.469548,8.15384615 173.316306,8.07692308 173.239686,7.96153846 C173.163065,7.84615385 173.086444,7.65384615 173.086444,7.34615385 Z M173.086444,6.96153846 L173.086444,5 C172.511788,5.23076923 172.166994,5.38461538 171.975442,5.46153846 C171.668959,5.61538462 171.477407,5.80769231 171.324165,5.96153846 C171.170923,6.11538462 171.132613,6.34615385 171.132613,6.53846154 C171.132613,6.80769231 171.209234,7.03846154 171.362475,7.23076923 C171.515717,7.42307692 171.707269,7.5 171.937132,7.5 C172.243615,7.53846154 172.588409,7.34615385 173.086444,6.96153846 Z" id="Shape"></path>
                <path d="M176.764244,3.84615385 C177.37721,3.11538462 177.951866,2.76923077 178.488212,2.76923077 C178.756385,2.76923077 179.024558,2.84615385 179.21611,2.96153846 C179.407662,3.11538462 179.560904,3.34615385 179.714145,3.65384615 C179.790766,3.88461538 179.829077,4.23076923 179.829077,4.69230769 L179.829077,6.88461538 C179.829077,7.19230769 179.867387,7.42307692 179.905697,7.53846154 C179.944008,7.61538462 180.020629,7.69230769 180.09725,7.76923077 C180.17387,7.80769231 180.365422,7.84615385 180.595285,7.84615385 L180.595285,8.03846154 L178.066798,8.03846154 L178.066798,7.84615385 L178.181729,7.84615385 C178.411591,7.84615385 178.603143,7.80769231 178.679764,7.73076923 C178.756385,7.65384615 178.833006,7.53846154 178.871316,7.42307692 C178.871316,7.38461538 178.909627,7.19230769 178.909627,6.88461538 L178.909627,4.76923077 C178.909627,4.30769231 178.833006,3.96153846 178.718075,3.73076923 C178.603143,3.5 178.373281,3.42307692 178.105108,3.42307692 C177.645383,3.42307692 177.223969,3.65384615 176.764244,4.15384615 L176.764244,6.88461538 C176.764244,7.23076923 176.802554,7.46153846 176.840864,7.53846154 C176.879175,7.65384615 176.955796,7.73076923 177.070727,7.76923077 C177.147348,7.80769231 177.3389,7.84615385 177.645383,7.84615385 L177.645383,8.03846154 L175.116896,8.03846154 L175.116896,7.84615385 L175.231827,7.84615385 C175.5,7.84615385 175.653242,7.76923077 175.768173,7.65384615 C175.883104,7.53846154 175.921415,7.26923077 175.921415,6.88461538 L175.921415,4.96153846 C175.921415,4.34615385 175.921415,3.96153846 175.883104,3.84615385 C175.844794,3.69230769 175.806483,3.61538462 175.768173,3.57692308 C175.729862,3.53846154 175.614931,3.5 175.53831,3.5 C175.423379,3.5 175.308448,3.53846154 175.155206,3.57692308 L175.078585,3.38461538 L176.611002,2.76923077 L176.840864,2.76923077 L176.840864,3.84615385 L176.764244,3.84615385 Z" id="Path"></path>
                <path d="M182.778978,2.76923077 L182.778978,6.92307692 C182.778978,7.23076923 182.817289,7.46153846 182.855599,7.57692308 C182.89391,7.69230769 182.97053,7.76923077 183.047151,7.80769231 C183.123772,7.84615385 183.315324,7.88461538 183.545187,7.88461538 L183.545187,8.07692308 L181.05501,8.07692308 L181.05501,7.88461538 C181.323183,7.88461538 181.476424,7.84615385 181.553045,7.80769231 C181.629666,7.76923077 181.706287,7.69230769 181.744597,7.57692308 C181.782908,7.46153846 181.821218,7.23076923 181.821218,6.92307692 L181.821218,4.92307692 C181.821218,4.34615385 181.821218,4 181.782908,3.84615385 C181.744597,3.73076923 181.706287,3.65384615 181.667976,3.57692308 C181.629666,3.5 181.553045,3.5 181.438114,3.5 C181.323183,3.5 181.208251,3.53846154 181.05501,3.57692308 L180.978389,3.38461538 L182.510806,2.76923077 L182.778978,2.76923077 Z M182.319253,0.0769230769 C182.472495,0.0769230769 182.625737,0.115384615 182.702358,0.230769231 C182.817289,0.346153846 182.855599,0.461538462 182.855599,0.615384615 C182.855599,0.769230769 182.817289,0.923076923 182.702358,1.03846154 C182.587426,1.15384615 182.472495,1.19230769 182.319253,1.19230769 C182.166012,1.19230769 182.01277,1.15384615 181.897839,1.03846154 C181.782908,0.923076923 181.744597,0.807692308 181.744597,0.615384615 C181.744597,0.423076923 181.782908,0.307692308 181.897839,0.230769231 C182.01277,0.115384615 182.166012,0.0769230769 182.319253,0.0769230769 Z" id="Shape"></path>
                <path d="M185.72888,0.0769230769 L185.72888,5.23076923 L187.031434,4.03846154 C187.299607,3.76923077 187.452849,3.61538462 187.52947,3.53846154 C187.56778,3.5 187.56778,3.46153846 187.56778,3.38461538 C187.56778,3.30769231 187.52947,3.23076923 187.491159,3.19230769 C187.414538,3.15384615 187.337917,3.11538462 187.184676,3.11538462 L187.184676,2.92307692 L189.40668,2.92307692 L189.40668,3.11538462 C189.100196,3.11538462 188.832024,3.15384615 188.640472,3.26923077 C188.448919,3.34615385 188.219057,3.5 187.950884,3.73076923 L186.64833,4.96153846 L187.950884,6.65384615 C188.333988,7.11538462 188.563851,7.42307692 188.678782,7.53846154 C188.870334,7.73076923 189.023576,7.84615385 189.138507,7.88461538 C189.215128,7.92307692 189.40668,7.92307692 189.636542,7.92307692 L189.636542,8.11538462 L187.146365,8.11538462 L187.146365,7.92307692 C187.299607,7.92307692 187.376228,7.88461538 187.452849,7.84615385 C187.491159,7.80769231 187.52947,7.76923077 187.52947,7.69230769 C187.52947,7.61538462 187.452849,7.46153846 187.299607,7.26923077 L185.72888,5.23076923 L185.72888,6.96153846 C185.72888,7.30769231 185.767191,7.5 185.805501,7.61538462 C185.843811,7.73076923 185.920432,7.80769231 185.997053,7.84615385 C186.073674,7.88461538 186.265226,7.92307692 186.571709,7.92307692 L186.571709,8.11538462 L183.966601,8.11538462 L183.966601,7.92307692 C184.234774,7.92307692 184.426326,7.88461538 184.541257,7.84615385 C184.617878,7.80769231 184.694499,7.73076923 184.732809,7.65384615 C184.77112,7.53846154 184.80943,7.30769231 184.80943,7 L184.80943,2.30769231 C184.80943,1.69230769 184.80943,1.34615385 184.77112,1.23076923 C184.732809,1.11538462 184.694499,1 184.656189,0.961538462 C184.579568,0.923076923 184.502947,0.884615385 184.426326,0.884615385 C184.349705,0.884615385 184.234774,0.923076923 184.081532,0.961538462 L184.004912,0.769230769 L185.537328,0.153846154 L185.72888,0.153846154 L185.72888,0.0769230769 Z" id="Path"></path>
                <path d="M192.471513,2.76923077 C193.237721,2.76923077 193.888998,3.07692308 194.348723,3.65384615 C194.731827,4.15384615 194.96169,4.73076923 194.96169,5.38461538 C194.96169,5.84615385 194.846758,6.30769231 194.616896,6.76923077 C194.387033,7.23076923 194.08055,7.61538462 193.697446,7.84615385 C193.314342,8.07692308 192.892927,8.19230769 192.394892,8.19230769 C191.628684,8.19230769 191.015717,7.88461538 190.555992,7.26923077 C190.172888,6.73076923 189.981336,6.15384615 189.981336,5.5 C189.981336,5.03846154 190.096267,4.53846154 190.32613,4.07692308 C190.555992,3.61538462 190.862475,3.26923077 191.24558,3.03846154 C191.628684,2.80769231 192.050098,2.76923077 192.471513,2.76923077 Z M192.279961,3.11538462 C192.088409,3.11538462 191.896857,3.19230769 191.666994,3.30769231 C191.475442,3.42307692 191.3222,3.61538462 191.168959,3.92307692 C191.015717,4.23076923 190.977407,4.61538462 190.977407,5.07692308 C190.977407,5.84615385 191.130648,6.46153846 191.437132,7.03846154 C191.743615,7.57692308 192.126719,7.84615385 192.624754,7.84615385 C192.969548,7.84615385 193.276031,7.69230769 193.505894,7.38461538 C193.735756,7.07692308 193.850688,6.57692308 193.850688,5.84615385 C193.850688,4.92307692 193.659136,4.19230769 193.276031,3.69230769 C193.046169,3.30769231 192.701375,3.11538462 192.279961,3.11538462 Z" id="Shape"></path>
            </g>
        </g>
    </g>
</svg>