<?xml version="1.0" encoding="utf-8"?>
<!-- Generator: Adobe Illustrator 18.1.1, SVG Export Plug-In . SVG Version: 6.00 Build 0)  -->
<svg version="1.1" id="Layer_1" xmlns="http://www.w3.org/2000/svg" xmlns:xlink="http://www.w3.org/1999/xlink" x="0px" y="0px"
	 viewBox="-180 307 250 180" enable-background="new -180 307 250 180" xml:space="preserve">
<title>logos/12b</title>
<desc>Created with Sketch.</desc>
<g id="Layer_2">
	<g id="Artboard1" transform="matrix(0.70916,0,0,0.469159,-252.695,45.5109)">
		<rect x="133.5" y="699.1" fill="none" width="290.5" height="100.2"/>
		<g transform="matrix(0.40657,0,0,0.614553,-2784.07,-641.656)">
			<g transform="matrix(4.16667,0,0,4.16667,10574.2,1569.67)">
				<path fill="#003040" d="M-724.3,166.9c1.4,0,1.6-0.9,1.6-2.3c0-2-1-2.8-3.8-2.8c-3.5,0-4.3,1-4.5,4.6c0,0.3,0.1,0.5,0.4,0.5
					H-724.3z M-726.4,176.7c-5.9,0-8.1-2.4-8.1-8.9c0-6.6,2.4-8.8,7.9-8.8c5.2,0,7.3,1.9,7.3,5.6c0,3-1.1,4.8-3.4,4.8h-7.7
					c-0.3,0-0.5,0.2-0.4,0.5c0.4,3.2,1.9,3.9,5,3.9c1.4,0,3.2-0.1,4.7-0.3c0.7-0.1,1.2,0.2,1.3,1c0.1,0.7-0.2,1.2-0.8,1.4
					C-722.4,176.5-724.8,176.7-726.4,176.7L-726.4,176.7z"/>
			</g>
			<g transform="matrix(4.16667,0,0,4.16667,10852,1187.73)">
				<path fill="#003040" d="M-782.1,263.8V245c0-0.8,0.4-1.2,1.2-1.2h1c0.8,0,1.2,0.4,1.2,1.2v18.1c0,1.4,0.8,2.2,2.2,2.2h0.5
					c0.7,0,1.2,0.4,1.3,1.1v0.4c0.1,0.7-0.2,1.2-0.9,1.4c-0.8,0.1-1.6,0.2-2.2,0.2C-780.4,268.2-782.1,266.7-782.1,263.8"/>
			</g>
			<g transform="matrix(4.16667,0,0,4.16667,11171.2,1085.46)">
				<path fill="#003040" d="M-848.4,291.3v-14.4c0-0.8,0.4-1.2,1.2-1.2h0.9c0.8,0,1.2,0.4,1.2,1.2v14.4c0,0.8-0.4,1.2-1.2,1.2h-0.9
					C-848,292.5-848.4,292-848.4,291.3 M-848.8,270.4c0-1.1,0.9-2.1,2.1-2.1c1.1,0,2.1,0.9,2.1,2.1s-0.9,2.1-2.1,2.1
					C-847.9,272.5-848.8,271.5-848.8,270.4"/>
			</g>
			<g transform="matrix(4.16667,0,0,4.16667,11432.9,1422.67)">
				<path fill="#003040" d="M-902.8,207.3v-11.4c0-0.8,0.4-1.2,1.2-1.2h1c0.8,0,1.2,0.4,1.2,1.2v10.5c0,2.1,0.6,2.8,2.1,2.8
					c1.7,0,3.3-0.4,5.6-1.5c0.2-0.1,0.3-0.2,0.3-0.4V196c0-0.8,0.4-1.2,1.2-1.2h1c0.8,0,1.2,0.4,1.2,1.2v14.3c0,0.8-0.4,1.2-1.2,1.2
					h-0.5c-0.7,0-1.1-0.3-1.2-0.8v-0.4c0-0.3-0.2-0.4-0.6-0.2c-2.2,1.3-4.4,1.8-6.6,1.8C-901.2,212-902.8,210.4-902.8,207.3"/>
			</g>
			<g transform="matrix(4.16667,0,0,4.16667,12079,1263.73)">
				<path fill="#003040" d="M-1037.3,249.7c-0.8,0-1.2-0.4-1.2-1.2v-14.4c0-0.8,0.4-1.2,1.2-1.2h0.4c0.7,0,1.1,0,1.3,0.8v0.3
					c0.1,0.3,0.3,0.5,0.6,0.3c2.1-1.4,4.8-1.8,6.1-1.8c1.8,0,3.1,0.3,4.1,1.8c0.2,0.3,0.4,0.3,0.7,0.1c2.1-1.4,4-1.8,6.1-1.8
					c3,0,4.6,1.6,4.6,4.6v11.4c0,0.8-0.4,1.2-1.2,1.2h-1c-0.8,0-1.2-0.4-1.2-1.2v-10.5c0-2-0.6-2.8-2.4-2.8c-1.3,0-2.6,0.2-4.9,1.5
					c-0.2,0.2-0.3,0.3-0.3,0.6c0,0.4,0,0.8,0,1.3v9.9c0,0.8-0.4,1.2-1.2,1.2h-0.9c-0.8,0-1.2-0.4-1.2-1.2v-10.5
					c0-2.1-0.8-2.8-2.4-2.8c-0.9,0-2.5,0.1-4.8,1.4c-0.2,0.1-0.3,0.3-0.3,0.6v11.2c0,0.8-0.4,1.2-1.2,1.2L-1037.3,249.7
					L-1037.3,249.7z"/>
			</g>
			<g transform="matrix(4.16667,0,0,4.16667,8528.54,1374.31)">
				<path fill="#006F9B" d="M-298.8,220.2c-3.5,0-5.1-2.9-6.6-4.9c-1.5-2.1-2.7-2.6-4.1-2.7c-1.1,0-2.9,0.6-2.9,2.7c0,2,2,2.7,3,2.7
					c1.4,0,2.1-0.7,2.4-0.9c0.1-0.1,0.2-0.1,0.3-0.1h1.1c0.3,0,0.6,0.3,0.6,0.6v2c0,0.2-0.1,0.3-0.2,0.4c-0.1,0.1-0.3,0.2-0.4,0.2
					h-0.8c-0.3,0-0.6-0.3-0.6-0.6l0,0c-0.6,0.3-1,0.6-2.3,0.6c-3.3,0-5.3-2.6-5.3-4.9c0-2.5,2.1-4.9,5.3-4.9c3.6,0,5.2,3.2,6.6,4.9
					c1.4,1.8,2.3,2.6,4.1,2.7c1.9,0,3-1.3,3-2.7c0-1.6-1.4-2.7-3-2.7c-1.3,0-2.1,0.7-2.4,0.9c-0.1,0.1-0.2,0.1-0.3,0.1h-1.1
					c-0.3,0-0.6-0.3-0.6-0.6v-4.5c0-0.3,0.3-0.6,0.6-0.6h0.8c0.3,0,0.6,0.3,0.6,0.6c0,0.7,0,1.8,0,2.4c0.7-0.3,1-0.6,2.3-0.6
					c2.3,0,5.3,1.7,5.3,4.9C-293.5,217.4-295.2,220.2-298.8,220.2 M-304.2,199.2c-8.6,0-15.7,7-15.7,15.7c0,8.6,6.5,15.7,15.7,15.7
					c8.6,0,15.7-7,15.7-15.7C-288.5,206.2-295.5,199.2-304.2,199.2"/>
			</g>
			<g transform="matrix(4.16667,0,0,4.16667,9916.84,1142.77)">
				<path fill="#003040" d="M-587.5,276.3L-587.5,276.3c-1.3,0-3-0.1-3.9-0.4c-0.4-0.1-0.6-0.3-0.6-0.7v-9.5c0-0.4,0.1-0.7,0.4-0.8
					c1.6-0.4,3-0.6,4.2-0.6c2.8,0,3.9,0.9,3.9,6C-583.5,274.9-584.6,276.2-587.5,276.3 M-587,261.4c-0.9,0-2.8,0.1-4.5,0.8
					c-0.4,0.2-0.7,0.2-0.6-0.3c0.1-1,0.2-1.6,0.2-2.8v-3.4c0-0.8-0.4-1.2-1.2-1.2h-1c-0.8,0-1.2,0.4-1.2,1.2v22.5v0.3
					c0.2,0.8,0.6,0.9,1.5,0.9h0.5c0.6,0,1-0.2,1.2-0.6c1.5,0.2,3.2,0.4,4.4,0.4l0,0c6,0,7.7-3.1,7.7-8.7
					C-580,262.7-582.9,261.4-587,261.4"/>
			</g>
			<g transform="matrix(4.16667,0,0,4.16667,9457.53,1385.02)">
				<path fill="#003040" d="M-492.1,217.1c0,0.4-0.2,0.6-0.6,0.7c-0.8,0.2-2.6,0.4-3.9,0.4l0,0c-2.9-0.1-4-1.4-4-6c0-5,1.1-6,3.9-6
					c1.2,0,2.6,0.2,4.2,0.6c0.3,0.1,0.4,0.3,0.4,0.8V217.1z M-488.8,204c-0.2-0.8-0.6-0.9-1.5-0.9h-0.5c-0.8,0-1.2,0.4-1.3,1.1
					c0,0-0.3,0-0.5-0.1c-1.8-0.7-3.7-0.8-4.5-0.8c-4.1,0-7,1.2-7,9c0,5.6,1.7,8.7,7.7,8.7l0,0c1.3,0,3-0.2,4.4-0.4
					c0.2,0.6,0.7,0.6,1.4,0.6h0.5c0.8,0,1.2-0.4,1.3-1.1l0,0V219v-0.1v-14.5l0,0V204z"/>
			</g>
		</g>
	</g>
</g>
</svg>
