<svg id="Layer_1" data-name="Layer 1" xmlns="http://www.w3.org/2000/svg" viewBox="0 0 328 218"><defs><style>.cls-1{fill:#b4162c;}.cls-2,.cls-3{fill:#231f20;}.cls-2{fill-rule:evenodd;}</style></defs><rect class="cls-1" x="131.62" y="152.99" width="64.03" height="64.03"/><path class="cls-2" d="M152.87,150.92H131.62V138.59h.4v11.74h20.85Zm4.62,0h-3.25v-.59h3.25Zm7.08,0h-5.71v-.59h5.71Zm5.45,0h-4.08v-.59H170Zm2.25,0h-.88v-.59h.88Zm23.4,0h-22v-.59h21.3V139.24h.73Zm-.73-13V123.86h.73v14.08Zm-19.23-15.29h18.95v.56Zm-13.54,1.84a2,2,0,0,1,1.48-.68,1.72,1.72,0,0,1,1.56.86v4h-.73v-3.76a1.33,1.33,0,0,0-1.28-.77A1.85,1.85,0,0,0,162.17,124.49Zm-.5-8.39,2-1.43,1.39.93a1.66,1.66,0,0,1,.68,1.31v2.17h-.6V116.9a1.39,1.39,0,0,0-.58-1.11l-1.19-.81ZM164.89,104v-2.4l-3.17-.57h3.76v3Zm-1.47-5.66V86.91h.4v11.4Zm-2,6.35h4.15l3.15,2.53h-.84L165.19,105Zm-3.77,3.22h11.2l2.16,8.75h-.6l-2.11-8.36Zm-26.1,28.36V123.56h.4v12.68Zm41.73,13.37h-.72V139.24h.72ZM154.7,138h17.58v.59Zm37.53-20.61-1.93-5.46-18.4-.45h18.87l2.13,5.91Zm-32.64-1.8,4-2.59,4.16,2.59v4.16h-.73v-4l-3.43-2.47Zm3.73-6.09a.3.3,0,0,1,.3-.3.31.31,0,0,1,.3.3.3.3,0,0,1-.3.3A.29.29,0,0,1,163.32,109.48Zm-.48,2.73.1-.47h1l-.33-1.41.8,1.88Zm-3.51-.44a.27.27,0,0,1,.53,0,.27.27,0,0,1-.53,0Zm-.26,2.15,0-.39h.79l-.21-1.09.63,1.48Zm-22.53,14.77H136v-3.15l-1.07-.2h1.66Zm16.64,7.55V123.86h.71v12.38Zm-19.25-13.59h18.93v.48Zm19.26,27V139.24h.7v10.37ZM133.93,138h18.93v.48Zm.68-20.26,1.89-6.2h19.19V112h-18.9Zm59.25,21-20-.7h20Zm-52.34-10h-.6v-3.15l-1.07-.2h1.67Zm4.84,0h-.6v-3.15l-1.06-.2h1.66Zm4.87,0h-.6v-3.15l-1.07-.2h1.67Zm7,0h-.6v-3.15l-1.07-.2h1.67Zm12.44,0h-.6v-3.15l-1.07-.2h1.67Zm6.4,0h-.6v-3.15l-1.06-.2h1.66Zm5,0h-.6v-3.15l-1.07-.2H182Zm4.84,0h-.6v-3.15l-1.07-.2h1.67Zm4.87,0h-.6v-3.15l-1.07-.2h1.67Zm-55.21,15H136v-3.15l-1.07-.2h1.66Zm5,0h-.6v-3.15l-1.07-.2h1.67Zm4.84,0h-.6v-3.15l-1.06-.2h1.66Zm4.87,0h-.6v-3.15l-1.07-.2h1.67Zm25.83,0h-.6v-3.15l-1.06-.2h1.66Zm5,0h-.6v-3.15l-1.07-.2H182Zm4.84,0h-.6v-3.15l-1.07-.2h1.67Zm4.87,0h-.6v-3.15l-1.07-.2h1.67Zm-55.21,5.46H136v-2.3l-1.07-.21h1.66Zm5,0h-.6v-2.3l-1.07-.21h1.67Zm4.84,0h-.6v-2.3l-1.06-.21h1.66Zm4.87,0h-.6v-2.3l-1.07-.21h1.67Zm25.83,0h-.6v-2.3l-1.06-.21h1.66Zm5,0h-.6v-2.3l-1.07-.21H182Zm4.84,0h-.6v-2.3l-1.07-.21h1.67Zm4.87,0h-.6v-2.3l-1.07-.21h1.67Zm-36.21-28H155v-3.25l-1-.3h1.6Zm0-4.57h-1.47V116h.82l-.4-2.38Zm17.74,4.57h-.59v-3.25l-1-.3h1.59Zm0-4.57h-1.46V116h.82l-.41-2.38Zm22.39,5.1h-.58v-3.83l-1.5-.58h2.08Zm0-5.13h-2V116H195l-.52-3.62Zm-62.22,5.13h-.58v-3.83l-1.49-.58h2.08Zm0-5.13h-2V116h1.28l-.52-3.62Zm33.79-4.81a.26.26,0,1,1,.52,0,.26.26,0,1,1-.52,0Zm-.29,2.15,0-.39h.79l-.21-1.09.63,1.48Zm-1.31,35.69h-.78V142.1a1.73,1.73,0,0,0-1.7-1.87,1.69,1.69,0,0,0-1.11.41,2,2,0,0,1,1.59-.79,2,2,0,0,1,2,2Zm5.35,0h-.62v-7.12a1.3,1.3,0,0,0-1.19-1.44,1.13,1.13,0,0,0-.85.4,1.44,1.44,0,0,1,1.2-.69,1.55,1.55,0,0,1,1.46,1.63Zm-12.48,0h-.62v-7.12a1.28,1.28,0,0,0-1.18-1.44,1.11,1.11,0,0,0-.85.4,1.41,1.41,0,0,1,1.19-.69,1.56,1.56,0,0,1,1.47,1.63Zm12.16-13.37h-.57v-3.65a.58.58,0,0,0-.57-.62.56.56,0,0,0-.41.18.83.83,0,0,1,1.55.41Zm-6.06,0v-3.61a1.32,1.32,0,0,0-2.47-.75,1.65,1.65,0,0,1,1.53-1,1.63,1.63,0,0,1,1.63,1.63v3.78Zm-6.34,0h-.57v-3.65a.58.58,0,0,0-.57-.62.56.56,0,0,0-.41.18.83.83,0,0,1,1.55.41Zm18.81,0h-.57v-3.65a.59.59,0,0,0-.57-.62.56.56,0,0,0-.41.18.83.83,0,0,1,1.55.41Zm4.92,0h-.58v-3.65a.58.58,0,0,0-.56-.62.56.56,0,0,0-.42.18.82.82,0,0,1,.72-.42.84.84,0,0,1,.84.83Zm4.87,0h-.58v-3.65a.58.58,0,0,0-.56-.62.56.56,0,0,0-.42.18.84.84,0,0,1,.73-.42.83.83,0,0,1,.83.83Zm4.82,0h-.57v-3.65a.58.58,0,0,0-.57-.62.56.56,0,0,0-.41.18.82.82,0,0,1,.72-.42.84.84,0,0,1,.84.83Zm-40.5,0h-.57v-3.65a.59.59,0,0,0-.57-.62.6.6,0,0,0-.42.18.85.85,0,0,1,.73-.42.83.83,0,0,1,.83.83Zm-4.83,0h-.57v-3.65a.58.58,0,0,0-.57-.62.56.56,0,0,0-.41.18.83.83,0,0,1,1.55.41Zm-4.87,0h-.57v-3.65a.59.59,0,0,0-.57-.62.56.56,0,0,0-.41.18.83.83,0,0,1,1.55.41Zm-4.91,0H136v-3.65a.58.58,0,0,0-.56-.62.56.56,0,0,0-.42.18.84.84,0,0,1,1.56.41ZM150,115.9a.26.26,0,0,1,.26-.26.26.26,0,0,1,.25.26.25.25,0,0,1-.25.25A.26.26,0,0,1,150,115.9Zm1,3.89h-.53v-2.47a.61.61,0,0,0-.6-.66.6.6,0,0,0-.29.08.83.83,0,0,1,1.42.59Zm-5.16-3.89a.26.26,0,0,1,.25-.26.26.26,0,0,1,.26.26.26.26,0,0,1-.26.25A.25.25,0,0,1,145.83,115.9Zm1,3.89h-.52v-2.47a.62.62,0,0,0-.6-.66.55.55,0,0,0-.29.08.83.83,0,0,1,1.41.59Zm-5.51-3.89a.26.26,0,0,1,.25-.26.26.26,0,0,1,.26.26.26.26,0,0,1-.26.25A.25.25,0,0,1,141.29,115.9Zm1,3.89h-.53v-2.47a.61.61,0,0,0-.59-.66.55.55,0,0,0-.29.08.81.81,0,0,1,.58-.24.83.83,0,0,1,.83.83Zm1.91-5.25h-.47v-1.17a.54.54,0,0,0-.52-.57.43.43,0,0,0-.25.07.72.72,0,0,1,.51-.21.73.73,0,0,1,.73.72Zm4.84,0h-.46v-1.17a.54.54,0,0,0-.52-.57.46.46,0,0,0-.26.07.73.73,0,0,1,1.24.51Zm30,0h-.46v-1.17a.54.54,0,0,0-.52-.57.46.46,0,0,0-.26.07.73.73,0,0,1,1.24.51Zm-2.47,1.36a.26.26,0,0,1,.25-.26.26.26,0,0,1,.26.26.26.26,0,0,1-.26.25A.25.25,0,0,1,176.49,115.9Zm1,3.89h-.53v-2.47a.62.62,0,0,0-.6-.66.57.57,0,0,0-.29.08.83.83,0,0,1,1.42.59Zm6.42-5.25h-.46v-1.17a.54.54,0,0,0-.53-.57.43.43,0,0,0-.25.07.72.72,0,0,1,.51-.21.73.73,0,0,1,.73.72Zm-2.8,1.36a.26.26,0,0,1,.25-.26.26.26,0,0,1,.26.26.26.26,0,0,1-.26.25A.25.25,0,0,1,181.09,115.9Zm1,3.89h-.53v-2.47a.6.6,0,0,0-.89-.58.85.85,0,0,1,.59-.24.83.83,0,0,1,.83.83Zm3.21-3.89a.26.26,0,0,1,.26-.26.26.26,0,0,1,.25.26.25.25,0,0,1-.25.25A.26.26,0,0,1,185.27,115.9Zm1,3.89h-.53v-2.47a.62.62,0,0,0-.6-.66.6.6,0,0,0-.29.08.83.83,0,0,1,1.42.59Zm-50.61-18.21a.28.28,0,1,1,.28.28A.29.29,0,0,1,135.64,101.58Zm1.66,9h-.6v-3.1a1.29,1.29,0,0,0-1.26-1.39,1.26,1.26,0,0,0-.61.16,1.51,1.51,0,0,1,2.47,1.18Zm-.28-5.36h-1.85v-.6h1.17l-.37-2.36Zm53.29-3.69a.28.28,0,1,1,.27.28A.28.28,0,0,1,190.31,101.58Zm1.65,9h-.59v-3.1a1.29,1.29,0,0,0-1.26-1.39,1.26,1.26,0,0,0-.61.16,1.51,1.51,0,0,1,2.47,1.18Zm-.28-5.36h-1.85v-.6H191l-.37-2.36ZM163.62,99a1.43,1.43,0,0,1,1.43,1.36h-.49a1.21,1.21,0,0,0-2.36-.08A1.42,1.42,0,0,1,163.62,99ZM168,122.22h4.28v.58l-4.54-.12c-.48-1.21-2.27-2.1-4.38-2.1s-3.67.79-4.27,1.88c.57-1.2,2.38-2.07,4.52-2.07A5.29,5.29,0,0,1,168,122.22Zm5.32,1.1v13h-.7l0-13Z"/><path class="cls-3" d="M62.8,11.22a6.74,6.74,0,0,0,.45,3.16c.67,1.11,2.32,1.41,3.51,1.41a4.85,4.85,0,0,0,3.51-1.17,3.65,3.65,0,0,0,.78-2.88V5.55c0-1.95-.15-2.38-1.63-2.38-.19,0-.49,0-.49-.29s.23-.3.45-.3c.65,0,1.3.09,2,.09s1.13-.09,1.69-.09c.17,0,.45,0,.45.28s-.5.31-.69.31C71.54,3.17,71.7,4,71.65,5v6.76c0,1.3,0,2.43-1.19,3.44a6.21,6.21,0,0,1-4.07,1.15,7.23,7.23,0,0,1-4-1c-1.26-.93-1.28-2-1.28-3.85V4.94c0-1.56,0-1.77-1.41-1.77-.19,0-.54,0-.54-.29s.15-.3.37-.3c.82,0,1.6.09,2.42.09s1.65-.09,2.47-.09c.2,0,.37.07.37.3s-.37.29-.56.29c-1.41,0-1.41.21-1.41,1.77Z"/><path class="cls-3" d="M75.33,9.79c0-1.34-.11-1.56-.84-1.56-.39,0-.54,0-.54-.17s.3-.3.5-.37a4.84,4.84,0,0,0,1.79-1.12c.11-.11.22-.29.39-.29s.2.13.2.35v1c0,.31,0,.44.06.44s.54-.44,1.15-.89a3.92,3.92,0,0,1,2.34-.87,3.05,3.05,0,0,1,2.55,1.17,4.43,4.43,0,0,1,.65,3v3.42c0,1.13,0,1.78,1,1.78.21,0,.6,0,.6.28s-.11.24-.26.24c-.69,0-1.38-.09-2-.09s-1.39.09-2.06.09c-.15,0-.3-.05-.3-.22s.37-.3.6-.3c1,0,1-.65,1-1.78V10.42a4,4,0,0,0-.39-2.14,2.39,2.39,0,0,0-2-1,3,3,0,0,0-2.14.93,2.36,2.36,0,0,0-.69,2v3.63c0,1.13,0,1.78,1,1.78.22,0,.61,0,.61.28s-.11.24-.26.24c-.69,0-1.39-.09-2-.09s-1.38.09-2.06.09c-.15,0-.3-.05-.3-.22s.37-.3.61-.3c1,0,1-.65,1-1.78Z"/><path class="cls-3" d="M87.91,9.79c0-1.34-.11-1.56-.84-1.56-.39,0-.54,0-.54-.17s.3-.3.49-.37a4.88,4.88,0,0,0,1.8-1.12c.11-.13.22-.29.39-.29s.2.13.2.35v7.23c0,1.21,0,1.78,1,1.78.22,0,.61,0,.61.28s-.11.24-.26.24c-.7,0-1.39-.09-2-.09s-1.38.09-2.06.09c-.15,0-.3-.05-.3-.22s.37-.3.61-.3c1,0,1-.48,1-1.78Zm.72-5.39a1,1,0,0,1-.91-1,1,1,0,0,1,1-1.08,1,1,0,0,1,.91,1,1,1,0,0,1-.95,1.08Z"/><path class="cls-3" d="M95.86,6.78c0,.22-.18.22-.61.22s-.8.19-.8.6a3.86,3.86,0,0,0,.35,1.09L96.16,12A11.63,11.63,0,0,0,97,14a12.28,12.28,0,0,0,1-2c.54-1.15,1.06-2.3,1.58-3.45a3.33,3.33,0,0,0,.28-.93c0-.43-.45-.58-.84-.58-.24,0-.59,0-.59-.28s.15-.22.33-.22c.39,0,1.21.07,1.69.07s1.19-.07,1.49-.07.28,0,.28.17c0,.31-.37.31-.54.33-1,.13-1.41,1.32-1.78,2.12-.93,2-1.88,4.07-2.81,6.11-.26.56-.43,1.1-.65,1.1s-.24-.28-.32-.5c-1-2.53-2.1-5-3.14-7.58C92.63,7.45,92.52,7,91.61,7c-.17,0-.41,0-.41-.28s.09-.22.33-.22c.52,0,1.45.07,2,.07S95,6.5,95.45,6.5c.26,0,.41,0,.41.26Z"/><path class="cls-3" d="M105,10.18c-.75,0-.88,0-.88.67a4.23,4.23,0,0,0,4.2,4.53,3.94,3.94,0,0,0,2.46-.82c.39-.31.61-.59.74-.59a.17.17,0,0,1,.17.17c0,.26-.69.85-.84,1a5.07,5.07,0,0,1-8.36-3.77c0-3.7,3.31-5.07,5.46-5.07a3.57,3.57,0,0,1,3.87,3.53c0,.18,0,.37-.26.37Zm-.71-.78c0,.26.22.26.74.26h1.75a13.87,13.87,0,0,0,2.51-.17c.48-.11.8-.35.8-.87,0-.34-.28-1.95-2.45-1.95a3.43,3.43,0,0,0-3.35,2.71Z"/><path class="cls-3" d="M114.63,9.79c0-1.34-.11-1.56-.85-1.56-.39,0-.54,0-.54-.17s.3-.3.5-.37a4.88,4.88,0,0,0,1.8-1.12c.11-.11.21-.29.39-.29s.19.13.19.35V7.69c0,.35,0,.46.11.46s.37-.44.8-.87a2.55,2.55,0,0,1,1.76-.87,1.12,1.12,0,0,1,1.23,1,.85.85,0,0,1-.91.87,1,1,0,0,1-.74-.41.8.8,0,0,0-.65-.41c-.47,0-.84.45-1.1.78a3.12,3.12,0,0,0-.5,2.16v3.42c0,1.13,0,1.78,1.09,1.78.21,0,.71,0,.71.28s-.11.24-.35.24c-.63,0-1.38-.09-2.1-.09s-1.45.09-2.12.09c-.15,0-.3-.05-.3-.22s.37-.3.6-.3c1,0,1-.65,1-1.78Z"/><path class="cls-3" d="M121.12,9c0-1.3,1.28-2.71,3.71-2.71a7.88,7.88,0,0,1,2.22.37.47.47,0,0,1,.26.48c0,.19,0,.37,0,.54s0,.39,0,.56,0,.46-.23.46-.37-.72-.85-1.3a2.14,2.14,0,0,0-1.79-.74c-.89,0-2,.61-2,1.6,0,1.26,1.37,1.61,2.71,2.08s2.71,1.06,2.71,2.84c0,2.08-2.28,3.16-4.12,3.16a7.28,7.28,0,0,1-2.75-.65.4.4,0,0,1-.26-.26,1.77,1.77,0,0,1,0-.52c0-.47.06-1,.06-1.45,0-.26,0-.48.29-.48s.36.76.62,1.52a2,2,0,0,0,2.21,1.45c1.28,0,2.64-.74,2.64-2.12s-1-1.73-2.07-2.08c-1.35-.43-3.32-1-3.32-2.73Z"/><path class="cls-3" d="M130.82,9.79c0-1.34-.11-1.56-.84-1.56-.39,0-.54,0-.54-.17s.3-.3.49-.37a4.88,4.88,0,0,0,1.8-1.12c.11-.13.22-.29.39-.29s.2.13.2.35v7.23c0,1.21,0,1.78,1,1.78.22,0,.61,0,.61.28s-.11.24-.26.24c-.7,0-1.39-.09-2-.09s-1.39.09-2.06.09c-.15,0-.3-.05-.3-.22s.37-.3.61-.3c1,0,1-.48,1-1.78Zm.72-5.39a1,1,0,0,1-.91-1,1,1,0,0,1,1-1.08,1,1,0,0,1,.91,1,1,1,0,0,1-.95,1.08Z"/><path class="cls-3" d="M137.23,13c0,1,0,2.54,1.28,2.54a1.76,1.76,0,0,0,1-.39c.26-.2.45-.37.54-.37a.17.17,0,0,1,.15.15,2.79,2.79,0,0,1-2.45,1.43,2,2,0,0,1-1.56-.67c-.47-.61-.47-1.21-.47-2.69V7.41c0-.35-.09-.39-.31-.39a4.61,4.61,0,0,0-.52,0c-.19,0-.39,0-.39-.19s.15-.24.26-.33a5,5,0,0,0,2.06-2.18c0-.09.11-.2.22-.2s.17.13.17.26V5.94c0,.28,0,.41.35.43h2.14c.19,0,.19.13.19.3s-.08.37-.28.37L138,7c-.71,0-.8,0-.8.48Z"/><path class="cls-3" d="M142,20.23c0-.83.28-.83,1.06-.83a2,2,0,0,0,.67-.06c.35-.15.58-.95.86-1.6a5.72,5.72,0,0,0,.57-1.52,2.91,2.91,0,0,0-.31-.93L142,8.54c-.29-.68-.52-1.54-1.37-1.54-.17,0-.52,0-.52-.22s.24-.28.41-.28c.7,0,1.39.07,2.1.07s1.39-.07,2.08-.07a.29.29,0,0,1,.31.28c0,.2-.33.22-.52.22-.37,0-1.11.11-1.11.65a2.6,2.6,0,0,0,.26.89c.8,1.92,2.28,5.63,2.43,5.63s1.58-3.62,2.42-5.48a2.78,2.78,0,0,0,.3-.91c0-.65-.67-.78-1.14-.78-.18,0-.5,0-.5-.22a.29.29,0,0,1,.3-.28c.59,0,1.15.07,1.73.07s1.15-.07,1.72-.07a.29.29,0,0,1,.32.3c0,.18-.3.18-.48.2-.69.06-1.08.5-1.69,1.84-1.25,2.77-2.4,5.61-3.59,8.42-.39.93-.89,1.86-1.19,2.82-.24.78-.26.86-1.15.86-.52,0-1.12,0-1.12-.69Z"/><path class="cls-3" d="M166.54,10.4a5.8,5.8,0,0,1-1.75,4,6.5,6.5,0,0,1-4.24,2c-2.3,0-3.64-2.12-3.64-4.22a6.25,6.25,0,0,1,5.82-6,4,4,0,0,1,3.81,4.23Zm-1.49-1c0-1.45-.5-2.79-2.19-2.79A3.64,3.64,0,0,0,160,8.21a8.27,8.27,0,0,0-1.49,4.61c0,1.5.48,3,2.23,3a3.57,3.57,0,0,0,2.88-1.77,9.2,9.2,0,0,0,1.47-4.68Z"/><path class="cls-3" d="M177.41,2.26a.88.88,0,0,1-.93.93.72.72,0,0,1-.8-.52c-.09-.24-.11-.52-.17-.74a.48.48,0,0,0-.5-.37,1.66,1.66,0,0,0-1.06.63,8.36,8.36,0,0,0-1.3,3c-.13.43-.26.86-.41,1.32h1.64c.29,0,.5,0,.5.15a.64.64,0,0,1-.09.3c0,.11-.36.11-.49.11h-1.74c-.9,3-1.81,6-2.75,9a10,10,0,0,1-1.38,3.12A4.4,4.4,0,0,1,164.59,21c-.88,0-1.73-.37-1.73-1.28a.94.94,0,0,1,.89-1,.89.89,0,0,1,.95.8,3.39,3.39,0,0,1,0,.46c0,.32,0,.63.42.63a1.69,1.69,0,0,0,1.19-.76,17.5,17.5,0,0,0,1.47-3.66c.93-3,1.86-6.11,2.79-9.14H169.4c-.35,0-.5,0-.5-.15a.4.4,0,0,1,.09-.3c.09-.11.28-.11.52-.11h1.26a9.27,9.27,0,0,1,1.84-3.92A5.45,5.45,0,0,1,175.83,1c.8,0,1.58.35,1.58,1.25Z"/><path class="cls-3" d="M184.3,3.66c0-.54-.61-.54-1.06-.54-.24,0-.55,0-.55-.32s.37-.22.68-.22l2,.09,2.55-.09c.2,0,.42,0,.42.26s-.44.28-.65.28c-1.37,0-1.5.33-1.91,1.65-1,3.18-1.95,6.39-2.94,9.59a2.81,2.81,0,0,0-.18.76c0,.3.15.41.46.41h.6c1.93,0,3.49.17,4.55-2,.09-.18.22-.57.46-.57a.19.19,0,0,1,.21.2,13.94,13.94,0,0,1-.63,2.21c-.21.69-.23.76-1,.76-1.24,0-2.47-.07-3.68-.07s-2.47.07-3.79.07c-.76,0-1.06,0-1.06-.22s.52-.35,1-.37c1,0,1.15-.82,1.43-1.69.93-3,1.87-6.08,2.8-9.11a4.83,4.83,0,0,0,.26-1.06Z"/><path class="cls-3" d="M194.88,7a6.77,6.77,0,0,1-.36,1.53c-.83,2.71-1.65,5.42-2.47,8.15A8.65,8.65,0,0,1,190.36,20a3.85,3.85,0,0,1-2.6,1.15c-.67,0-1.67-.26-1.67-1.08a.76.76,0,0,1,.74-.76c.45,0,.63.35.84.67s.41.67.87.67a1,1,0,0,0,1-.67,7.28,7.28,0,0,0,.37-1.08C190.92,15.44,192,12,193,8.51a4.86,4.86,0,0,0,.2-.71c0-.17-.07-.39-.26-.39-.37,0-.87.48-1.3.93s-.78.95-.93.95-.15-.06-.15-.17c0-.28.91-1.23,1.08-1.39.54-.51,1.71-1.58,2.53-1.58.52,0,.67.33.67.81Zm1.17-3.62c0,.59-.45,1.41-1.12,1.41-.46,0-.67-.39-.67-.82s.47-1.37,1.1-1.37a.7.7,0,0,1,.69.76Z"/><path class="cls-3" d="M196.59,15.18a6.49,6.49,0,0,1,.41-1.73c.57-1.64,1.13-3.29,1.69-4.91a3.59,3.59,0,0,0,.24-.85c0-.19-.06-.37-.3-.37-.56,0-1.54,1.28-1.82,1.69-.09.13-.28.48-.48.48s-.1-.05-.1-.22c0-.39,2.05-3.12,3.55-3.12.54,0,.69.5.69,1a4.57,4.57,0,0,1-.33,1.43c-.56,1.71-1.14,3.44-1.73,5.17a4.62,4.62,0,0,0-.24,1,.55.55,0,0,0,.59.61c1,0,2.81-1.78,3.42-2.49a15.18,15.18,0,0,0,3.16-5.61c.22-.74.26-.85.37-.89a4,4,0,0,1,1,0c.15,0,.26.06.26.21a2.15,2.15,0,0,1-.13.55c-.67,2.2-1.35,4.43-2,6.66a4.92,4.92,0,0,0-.19.91c0,.2.11.44.34.44.74,0,1.93-1.56,2.28-2.15.06-.08.15-.24.26-.24a.16.16,0,0,1,.15.16c0,.52-2.28,3.46-4.07,3.46-.46,0-.59-.43-.59-.8a23,23,0,0,1,1.28-4.76h-.09c-1.32,2.18-4.22,5.56-6.67,5.56-.69,0-.93-.48-.93-1.13Z"/><path class="cls-3" d="M219.5,9.08c0,3.61-3.46,7.25-7.12,7.25-1.63,0-2.86-.8-2.86-2.51a9,9,0,0,1,.56-2.53c.76-2.52,1.54-5,2.3-7.54a5.3,5.3,0,0,0,.26-1.08c0-.41-.24-.5-.59-.5-.13,0-.76,0-.76-.22s.46-.34.67-.34a3.76,3.76,0,0,0,2.24-.54.29.29,0,0,1,.21-.09c.13,0,.2.06.2.22-.09.32-.18.65-.28,1l-2.71,8.88h0c1-1.71,3.55-4.9,5.63-4.9,1.58,0,2.21,1.54,2.21,2.91ZM217.88,9c0-.75-.22-1.88-1.22-1.88-2.23,0-5.93,5.37-5.93,7.43,0,.95.72,1.38,1.6,1.38,2.86,0,5.55-4.31,5.55-6.9Z"/><path class="cls-3" d="M220.43,15.46a7.24,7.24,0,0,1,.39-1.88q1.5-4.9,3-9.76a5,5,0,0,0,.21-.89c0-.5-.47-.54-.84-.54s-.61,0-.61-.22.35-.28.65-.28a4.74,4.74,0,0,0,2.25-.67c.2-.13.33-.24.44-.24a.17.17,0,0,1,.17.19,3.92,3.92,0,0,1-.13.52q-1.84,6-3.7,12.09a3.75,3.75,0,0,0-.22.91.28.28,0,0,0,.3.32c.52,0,1.63-1.52,1.89-2,.06-.11.15-.28.32-.28s.11.06.11.15a4.22,4.22,0,0,1-.91,1.54c-.49.62-1.73,1.88-2.64,1.88-.56,0-.67-.35-.67-.84Z"/><path class="cls-3" d="M230.74,7a6.81,6.81,0,0,1-.37,1.53c-.83,2.71-1.65,5.42-2.47,8.15A8.51,8.51,0,0,1,226.21,20a3.85,3.85,0,0,1-2.6,1.15c-.67,0-1.67-.26-1.67-1.08a.76.76,0,0,1,.74-.76c.46,0,.63.35.85.67s.41.67.86.67a1,1,0,0,0,1-.67,7.28,7.28,0,0,0,.37-1.08c1.06-3.49,2.12-6.95,3.18-10.42a4.86,4.86,0,0,0,.2-.71c0-.17-.07-.39-.26-.39-.37,0-.87.48-1.3.93s-.78.95-.93.95-.15-.06-.15-.17c0-.28.91-1.23,1.08-1.39.54-.51,1.71-1.58,2.53-1.58.52,0,.68.33.68.81Zm1.16-3.62c0,.59-.45,1.41-1.12,1.41-.46,0-.67-.39-.67-.82s.47-1.37,1.1-1.37a.7.7,0,0,1,.69.76Z"/><path class="cls-3" d="M231.47,14.08A8.84,8.84,0,0,1,234,8.77a7.79,7.79,0,0,1,5.24-2.62,1.75,1.75,0,0,1,1.65.76s.13-.41.26-.71a.32.32,0,0,1,.3-.24c.24,0,.56,0,.78,0s.37,0,.37.21a2.83,2.83,0,0,1-.11.44c-.74,2.42-1.47,4.87-2.23,7.31a2.54,2.54,0,0,0-.18.72c0,.17.05.32.22.32.54,0,1.56-1.36,1.82-1.77.07-.11.22-.39.37-.39a.16.16,0,0,1,.15.17,5.51,5.51,0,0,1-1.15,1.8c-.54.58-1.71,1.6-2.57,1.6a.56.56,0,0,1-.59-.63,4.41,4.41,0,0,1,.24-1.21c.45-1.43.91-2.86,1.34-4.29h0c-1.19,2-4.09,6.13-6.65,6.13-1.21,0-1.71-1.17-1.71-2.23Zm9.07-6.41c0-.78-.65-1.1-1.38-1.1-1.58,0-3.12,1.51-4,2.7a9.62,9.62,0,0,0-2,4.59c0,.61.3,1.32,1,1.32,1.32,0,3.24-2.31,4-3.27.61-.75,2.38-3.22,2.38-4.22Z"/><path class="cls-3" d="M255.31,7.39A5.22,5.22,0,0,1,254.9,9c-.59,1.53-1.17,3.07-1.76,4.63a4.28,4.28,0,0,0-.32,1.11.38.38,0,0,0,.41.43c.5,0,1.23-.76,1.75-1.39.26-.32.59-.89.78-.89a.17.17,0,0,1,.16.16c0,.28-.37.78-1,1.45s-1.86,1.88-2.75,1.88c-.65,0-.93-.35-.93-1a7.13,7.13,0,0,1,.58-2.32c.52-1.36,1-2.73,1.54-4.09a3.76,3.76,0,0,0,.31-1.17.69.69,0,0,0-.76-.76c-1.15,0-2.51,1.6-3.19,2.38a22.4,22.4,0,0,0-3.33,5.93c-.2.63-.22.74-.74.74h-.36c-.26,0-.46,0-.46-.26a2.3,2.3,0,0,1,.13-.5c.65-2.1,1.3-4.2,1.93-6.3a4.36,4.36,0,0,0,.26-1.19c0-.28-.11-.52-.44-.52s-1.32.91-1.75,1.52c-.15.21-.37.62-.5.62a.15.15,0,0,1-.17-.15,5.42,5.42,0,0,1,.93-1.4c.54-.65,1.67-1.74,2.58-1.74.67,0,.89.44.89,1.07a7.19,7.19,0,0,1-.37,1.9c-.31,1-.63,2-.93,3l0,0c1.19-2.16,3.72-6,6.52-6a1.23,1.23,0,0,1,1.34,1.22Z"/><path class="cls-3" d="M257,14.08a8.79,8.79,0,0,1,2.49-5.31,7.79,7.79,0,0,1,5.24-2.62,1.71,1.71,0,0,1,1.64.76,6.16,6.16,0,0,0,.26-.71A.33.33,0,0,1,267,6c.23,0,.56,0,.78,0s.36,0,.36.21a2.84,2.84,0,0,1-.1.44c-.74,2.42-1.48,4.87-2.23,7.31a2.54,2.54,0,0,0-.18.72c0,.17.05.32.22.32.54,0,1.56-1.36,1.82-1.77.06-.11.21-.39.37-.39a.17.17,0,0,1,.15.17,5.51,5.51,0,0,1-1.15,1.8,4.73,4.73,0,0,1-2.58,1.6.56.56,0,0,1-.58-.63,4.41,4.41,0,0,1,.24-1.21c.45-1.43.91-2.86,1.34-4.29h0c-1.2,2-4.1,6.13-6.65,6.13-1.21,0-1.71-1.17-1.71-2.23Zm9.07-6.41c0-.78-.65-1.1-1.39-1.1-1.58,0-3.11,1.51-4,2.7a9.52,9.52,0,0,0-2,4.59c0,.61.3,1.32,1,1.32,1.32,0,3.25-2.31,4-3.27.6-.75,2.38-3.22,2.38-4.22Z"/><path class="cls-3" d="M4.31,35.51c0,1.54,0,1.8,1.5,1.8.19,0,.47,0,.47.26s-.17.28-.37.28c-.82,0-1.6-.08-2.42-.08s-1.65.08-2.47.08c-.19,0-.37,0-.37-.28s.28-.26.54-.26c1.41,0,1.41-.24,1.41-1.8V26.59c0-1.47,0-1.73-1.41-1.73-.21,0-.56,0-.56-.3s.17-.28.37-.28c.93,0,1.88.08,2.81.08,2.21,0,4.42-.08,6.65-.08.35,0,.35.19.35.75s0,1.61,0,1.89,0,.48-.24.48-.39-.63-.61-1.13c-.58-1.34-1.86-1.41-3.55-1.41-2.12,0-2.12,0-2.12,1.19v3.08c0,1,0,1,1.73,1,2,0,2.43,0,2.62-1,.07-.34.09-.9.39-.9.11,0,.24,0,.24.21,0,.61-.08,1.26-.08,1.86s.08,1.35.08,2c0,.35-.13.39-.24.39-.32,0-.32-.65-.43-1-.22-.8-.78-.91-3.23-.91-.86,0-1.08,0-1.08.74Z"/><path class="cls-3" d="M17.8,30.34c0-1.06,0-1.95-1.39-1.95a2.56,2.56,0,0,0-2.49,1.82c-.15.32-.26.63-.6.78a2.71,2.71,0,0,1-.93.28c-.18,0-.28,0-.28-.26,0-1.23,2.33-3,4.78-3a3,3,0,0,1,2,.56c.41.39.43.67.43,1.58v5.11c0,.57,0,1.74.76,1.74a.89.89,0,0,0,.63-.26c.15-.16.26-.29.35-.29s.15.09.15.22a2.71,2.71,0,0,1-2.06,1.26c-.76,0-1-.78-1.23-1.22-.09-.17-.16-.3-.24-.3s-.54.46-1.19.89a4.29,4.29,0,0,1-2.3.76,1.86,1.86,0,0,1-2-1.72c0-1.53,2-2.44,3.2-3L17,32.5c.78-.36.8-.39.8-1.21Zm-4.05,5.43A1.32,1.32,0,0,0,15.24,37a2.92,2.92,0,0,0,2-.87,1.88,1.88,0,0,0,.54-1.62v-1.3c0-.45,0-.61-.11-.61a1.83,1.83,0,0,0-.54.22l-1.71.87c-.84.43-1.69,1-1.69,2Z"/><path class="cls-3" d="M22.5,33.18c0-2.91,2.72-5.2,5.63-5.2a5.08,5.08,0,0,1,2.66.71.56.56,0,0,1,.19.46c0,.13,0,.34,0,.5s0,.36,0,.52,0,.58-.28.58c-.41,0-.71-.87-1.27-1.56a2,2,0,0,0-1.56-.82c-1.78,0-3.75,1.82-3.75,4.39a4.31,4.31,0,0,0,4.05,4.47,3.52,3.52,0,0,0,2.49-1c.06-.06.22-.26.32-.26a.18.18,0,0,1,.16.18A4.23,4.23,0,0,1,27.35,38,4.88,4.88,0,0,1,22.5,33.2Z"/><path class="cls-3" d="M35,33.72c0,1.49,0,3.42,2.55,3.42a3,3,0,0,0,2.32-1c.37-.41.37-.65.37-1.6V30.43c0-1.17,0-1.74-.95-1.74-.2,0-.61,0-.61-.28,0-.11,0-.21.26-.21.43,0,.93.06,1.32.06s.89-.06,1.23-.06.24.08.24.56v7c0,.54.09.89.87.85.37,0,.56-.05.56.15s-.32.24-.45.28a6.46,6.46,0,0,0-2.17.93s-.17.13-.24.13-.1-.06-.1-.17c0-.31,0-.63,0-.93s-.05-.48-.2-.48-.19.09-.37.22A4.35,4.35,0,0,1,36.7,38a3.11,3.11,0,0,1-2.56-1.26,4.73,4.73,0,0,1-.64-3V30.43c0-1.28,0-1.74-1-1.74-.19,0-.58,0-.58-.28,0-.11,0-.21.28-.21s1,.06,1.3.06.8-.06,1.12-.06.35.3.35.8Z"/><path class="cls-3" d="M45.88,25.71c0-1.63,0-1.76-1.06-1.76-.18,0-.35,0-.35-.21s.17-.22.3-.24a4.62,4.62,0,0,0,1.95-.67.91.91,0,0,1,.48-.24c.17,0,.17.11.17.34V35.56c0,1.21,0,1.77,1,1.77.21,0,.6,0,.6.28s-.1.24-.26.24c-.69,0-1.38-.08-2-.08s-1.39.08-2.06.08c-.15,0-.3,0-.3-.21s.37-.31.6-.31c1,0,1-.47,1-1.77Z"/><path class="cls-3" d="M52.46,34.67c0,1,0,2.53,1.28,2.53a1.7,1.7,0,0,0,1-.39c.26-.19.45-.36.54-.36a.16.16,0,0,1,.15.15A2.79,2.79,0,0,1,53,38a2,2,0,0,1-1.56-.68c-.47-.6-.47-1.21-.47-2.68V29.1c0-.34-.09-.38-.31-.38a4.61,4.61,0,0,0-.52,0c-.19,0-.39,0-.39-.2s.16-.24.26-.32A5,5,0,0,0,52.07,26c0-.09.11-.19.22-.19s.17.13.17.26v1.53c0,.28,0,.41.35.44H55c.19,0,.19.13.19.3s-.08.37-.28.37l-1.6,0c-.71,0-.8,0-.8.47Z"/><path class="cls-3" d="M57.27,41.92c0-.82.28-.82,1.06-.82A2,2,0,0,0,59,41c.35-.16.58-1,.87-1.61a5.94,5.94,0,0,0,.56-1.51,2.84,2.84,0,0,0-.31-.93l-2.85-6.76c-.29-.67-.52-1.54-1.37-1.54-.17,0-.52,0-.52-.21s.24-.28.41-.28c.7,0,1.39.06,2.1.06s1.39-.06,2.08-.06a.28.28,0,0,1,.31.28c0,.19-.33.21-.52.21-.37,0-1.11.11-1.11.65a2.6,2.6,0,0,0,.26.89c.8,1.93,2.28,5.63,2.43,5.63s1.58-3.62,2.42-5.48a2.73,2.73,0,0,0,.31-.91c0-.65-.68-.78-1.15-.78-.18,0-.5,0-.5-.21a.28.28,0,0,1,.3-.28c.59,0,1.15.06,1.74.06s1.14-.06,1.71-.06a.28.28,0,0,1,.32.3c0,.17-.3.17-.48.19-.69.07-1.08.5-1.68,1.84-1.26,2.78-2.41,5.61-3.6,8.43-.39.93-.89,1.86-1.19,2.81-.24.78-.26.87-1.15.87-.52,0-1.12,0-1.12-.7Z"/><path class="cls-3" d="M81.21,32.09a5.83,5.83,0,0,1-1.75,4,6.5,6.5,0,0,1-4.25,2c-2.29,0-3.63-2.13-3.63-4.23a6.25,6.25,0,0,1,5.82-5.95,4,4,0,0,1,3.81,4.22Zm-1.49-1c0-1.46-.5-2.8-2.19-2.8a3.61,3.61,0,0,0-2.9,1.63,8.16,8.16,0,0,0-1.49,4.61c0,1.49.47,3,2.23,3a3.59,3.59,0,0,0,2.88-1.78,9.14,9.14,0,0,0,1.47-4.67Z"/><path class="cls-3" d="M92.08,24a.87.87,0,0,1-.93.93.71.71,0,0,1-.8-.52c-.09-.23-.11-.52-.18-.73a.45.45,0,0,0-.49-.37,1.63,1.63,0,0,0-1.06.63,8.23,8.23,0,0,0-1.3,3c-.13.44-.26.87-.41,1.32h1.64c.28,0,.5,0,.5.16a.68.68,0,0,1-.09.3c0,.11-.37.11-.5.11H86.73c-.91,3-1.82,6-2.75,9a10,10,0,0,1-1.38,3.12,4.4,4.4,0,0,1-3.34,1.86c-.89,0-1.73-.36-1.73-1.27a.93.93,0,0,1,.89-1,.89.89,0,0,1,1,.8,3.24,3.24,0,0,1,0,.45c0,.33,0,.63.41.63A1.67,1.67,0,0,0,81,41.53a17.31,17.31,0,0,0,1.48-3.66c.93-3,1.86-6.1,2.79-9.13H84.07c-.35,0-.5,0-.5-.15a.39.39,0,0,1,.09-.31c.08-.11.28-.11.52-.11h1.25a9.41,9.41,0,0,1,1.84-3.91,5.52,5.52,0,0,1,3.23-1.59c.8,0,1.58.35,1.58,1.26Z"/><path class="cls-1" d="M97.6,24.49c0-.23.26-.23.54-.23.5,0,1,0,1.49,0s1,0,1.48,0,.43.51.45.95c.18,3.2.33,6.41.48,9.63h0c2.21-3.27,4.42-6.51,6.63-9.76.24-.35.39-.76.86-.82s.89,0,1.35,0,.91,0,1.43,0c.34,0,.58,0,.58.19,0,.35-.35.37-.58.37-1.33,0-1.41.34-1.74,1.69-.73,3-1.47,6.06-2.23,9.11a6.29,6.29,0,0,0-.19,1c0,.67.63.67,1.1.67.22,0,.65,0,.65.28s-.22.26-.41.26c-.43,0-1.69-.08-2.45-.08s-1.69.08-2.16.08c-.26,0-.59,0-.59-.17,0-.33.31-.39.55-.37,1.42.13,1.53-.67,1.79-1.71q1.24-5.07,2.47-10.13h0L101.24,37.1c-.11.17-.37.6-.63.6s-.24-.69-.24-.84c-.11-2.9-.24-5.81-.37-8.71,0-.88-.06-1.8-.11-2.68h0q-1.48,4-3,8A15.5,15.5,0,0,0,96,36.31c0,.79.41,1,.82,1s.8,0,.8.3-.17.26-.34.26c-.5,0-1.45-.08-2.08-.08s-1.43.08-1.86.08c-.24,0-.5,0-.5-.17,0-.33.26-.39.82-.37,1.24,0,1.45-.76,1.82-1.75,1.15-3.06,2.29-6.09,3.42-9.12a4.42,4.42,0,0,0,.33-1.15c0-.47-.57-.47-.91-.47s-.74.06-.74-.3Z"/><path class="cls-1" d="M111.8,35.77a8.84,8.84,0,0,1,2.49-5.3,7.75,7.75,0,0,1,5.24-2.62,1.75,1.75,0,0,1,1.65.76s.13-.41.26-.72a.33.33,0,0,1,.3-.24c.24,0,.56,0,.78,0s.37,0,.37.22a2.7,2.7,0,0,1-.11.43c-.74,2.43-1.47,4.87-2.23,7.32a2.46,2.46,0,0,0-.17.71c0,.18,0,.33.21.33.54,0,1.56-1.37,1.82-1.78.07-.11.22-.39.37-.39a.17.17,0,0,1,.15.18,5.47,5.47,0,0,1-1.15,1.79A4.7,4.7,0,0,1,119.21,38a.56.56,0,0,1-.59-.63,4.33,4.33,0,0,1,.24-1.21c.45-1.43.91-2.86,1.34-4.29h0c-1.19,2-4.09,6.13-6.65,6.13-1.21,0-1.71-1.17-1.71-2.23Zm9.07-6.41c0-.77-.65-1.1-1.38-1.1-1.58,0-3.12,1.52-4,2.71a9.58,9.58,0,0,0-2,4.59c0,.6.3,1.32,1,1.32,1.32,0,3.24-2.32,4-3.27.61-.76,2.38-3.23,2.38-4.22Z"/><path class="cls-1" d="M124.49,36.86A6.9,6.9,0,0,1,124.9,35c.65-2.1,1.3-4.2,1.93-6.28h-1.24c-.28,0-.5,0-.5-.18a.39.39,0,0,1,.09-.28c.09-.11.26-.11.5-.11H127l.71-2.31a.39.39,0,0,1,.37-.24h.8c.15,0,.28,0,.28.19a2.07,2.07,0,0,1-.13.57c-.17.58-.36,1.19-.56,1.79h1.62c.33,0,.48,0,.48.13a.62.62,0,0,1-.09.31c0,.13-.3.13-.49.13H128.3c-.65,2.16-1.32,4.35-2,6.54a4.1,4.1,0,0,0-.26,1c0,.22.08.46.34.46.52,0,1.32-1,1.63-1.45s.5-.84.63-.84a.17.17,0,0,1,.17.17,3.82,3.82,0,0,1-.65,1.12c-.54.74-1.88,2.26-2.88,2.26-.61,0-.8-.65-.8-1.15Z"/><path class="cls-1" d="M140.81,31c0,2.14-2.55,7-5.39,7-.58,0-1.49-.26-1.49-1.09a.64.64,0,0,1,.69-.63c.43,0,.56.46.76.83a.67.67,0,0,0,.6.43c1.48,0,3-4.35,3.21-6.73.13-1.22-.33-2-1.15-2-1,0-2.83,2-3.44,2.77A16.19,16.19,0,0,0,132,36.88c-.22.69-.22.89-.93.89-.13,0-.72.06-.72-.2a2.93,2.93,0,0,1,.15-.6c1.15-3.73,2.28-7.43,3.4-11.13a5.39,5.39,0,0,0,.31-1.26c0-.58-.28-.67-.8-.67l-.39,0c-.13,0-.24,0-.24-.19s.24-.29.54-.29a6.09,6.09,0,0,0,2.21-.49,2.75,2.75,0,0,1,.61-.29c.08,0,.12.09.12.18a3.29,3.29,0,0,1-.15.56q-1.43,4.65-2.86,9.31l.05,0c.71-1.27,3.31-4.91,5.43-4.91,1.87,0,2.1,1.62,2.1,3.12Z"/><path class="cls-1" d="M151.25,29.93c0,3.12-4.81,3.53-7.13,3.79l-.28,0a5.63,5.63,0,0,0,0,.82,2.22,2.22,0,0,0,2.3,2.49,4.66,4.66,0,0,0,3.39-2c.07-.08.13-.17.24-.17s.15,0,.15.15-.45.72-.56.85a5.82,5.82,0,0,1-4.09,2.1,3.14,3.14,0,0,1-3.12-3.4c0-3.34,3.27-6.78,6.63-6.78a2.27,2.27,0,0,1,2.51,2.06Zm-2.82-1.67c-2.38,0-4,3-4.5,5.07,1.58-.13,4.07-.52,5.07-1.82a3.44,3.44,0,0,0,.73-2,1.13,1.13,0,0,0-1.27-1.23Z"/><path class="cls-1" d="M156.4,28.89a22.82,22.82,0,0,1-1.21,4.55h0c.8-1.39,3.25-5.59,5.37-5.59,1,0,1.28.91,1.28,1.73a15.28,15.28,0,0,1-1,3.92h.05a22.74,22.74,0,0,1,2.38-3.68c.69-.82,2.08-2,3.22-2a1.23,1.23,0,0,1,1.37,1.3,6.53,6.53,0,0,1-.48,2.12c-.54,1.47-1.08,3-1.62,4.46a3.06,3.06,0,0,0-.18.87c0,.24.13.3.35.3.48,0,1.19-.8,1.71-1.49.24-.33.59-.91.72-.91a.15.15,0,0,1,.17.15c0,.39-.85,1.41-1.08,1.66-.54.63-1.69,1.72-2.6,1.72-.63,0-.85-.39-.85-1a9,9,0,0,1,.61-2.34c.39-1,.76-2.08,1.13-3.11a9,9,0,0,0,.56-2.06c0-.52-.24-.72-.72-.72-1.08,0-2.51,1.89-3.05,2.69A23.25,23.25,0,0,0,159.84,37c-.19.67-.26.8-.67.8h-.43c-.24,0-.52,0-.52-.2a3.42,3.42,0,0,1,.17-.67c.61-2,1.22-3.94,1.8-5.89a5.08,5.08,0,0,0,.3-1.39c0-.41-.17-.77-.62-.77-.87,0-2.21,1.66-2.65,2.23a21.07,21.07,0,0,0-3.07,5.84c-.24.82-.26.85-.72.85H153c-.17,0-.43,0-.43-.26a2.52,2.52,0,0,1,.13-.63c.65-2.1,1.3-4.18,1.92-6.26a4.42,4.42,0,0,0,.24-1.19c0-.15-.06-.39-.26-.39s-1.08.67-1.49,1.19c-.28.35-.61.91-.8.91a.16.16,0,0,1-.16-.17,6.27,6.27,0,0,1,1.09-1.48c.58-.58,1.71-1.64,2.6-1.64.54,0,.58.61.58,1Z"/><path class="cls-1" d="M169.67,35.77a8.84,8.84,0,0,1,2.49-5.3,7.75,7.75,0,0,1,5.24-2.62,1.75,1.75,0,0,1,1.65.76s.13-.41.26-.72a.33.33,0,0,1,.3-.24c.24,0,.56,0,.78,0s.37,0,.37.22a2.7,2.7,0,0,1-.11.43c-.74,2.43-1.47,4.87-2.23,7.32a2.46,2.46,0,0,0-.17.71c0,.18,0,.33.21.33.54,0,1.56-1.37,1.82-1.78.07-.11.22-.39.37-.39a.17.17,0,0,1,.15.18,5.47,5.47,0,0,1-1.15,1.79A4.7,4.7,0,0,1,177.08,38a.56.56,0,0,1-.59-.63,4.33,4.33,0,0,1,.24-1.21c.45-1.43.91-2.86,1.34-4.29h0c-1.19,2-4.09,6.13-6.65,6.13-1.21,0-1.71-1.17-1.71-2.23Zm9.07-6.41c0-.77-.65-1.1-1.38-1.1-1.58,0-3.12,1.52-4,2.71a9.58,9.58,0,0,0-2,4.59c0,.6.3,1.32,1,1.32,1.32,0,3.24-2.32,4-3.27.61-.76,2.38-3.23,2.38-4.22Z"/><path class="cls-1" d="M182.36,36.86a6.9,6.9,0,0,1,.41-1.84c.65-2.1,1.3-4.2,1.93-6.28h-1.24c-.28,0-.5,0-.5-.18a.39.39,0,0,1,.09-.28c.09-.11.26-.11.5-.11h1.3l.71-2.31a.39.39,0,0,1,.37-.24h.8c.15,0,.28,0,.28.19a2.07,2.07,0,0,1-.13.57c-.17.58-.36,1.19-.56,1.79h1.62c.33,0,.48,0,.48.13a.62.62,0,0,1-.09.31c0,.13-.3.13-.49.13h-1.67c-.65,2.16-1.32,4.35-2,6.54a4.1,4.1,0,0,0-.26,1c0,.22.08.46.34.46.52,0,1.32-1,1.63-1.45s.5-.84.63-.84a.17.17,0,0,1,.17.17,3.82,3.82,0,0,1-.65,1.12c-.54.74-1.88,2.26-2.88,2.26-.61,0-.8-.65-.8-1.15Z"/><path class="cls-1" d="M193,28.67a6.8,6.8,0,0,1-.37,1.56c-.52,1.73-1.06,3.47-1.6,5.2a3,3,0,0,0-.2.86c0,.22.09.39.29.39.41,0,1.19-.91,1.62-1.56.22-.32.41-.69.58-.69s.13.07.13.15a4.58,4.58,0,0,1-.91,1.54c-.52.65-1.73,1.91-2.64,1.91-.56,0-.67-.37-.67-.87a8.2,8.2,0,0,1,.39-1.91c.52-1.68,1-3.35,1.54-5a4.21,4.21,0,0,0,.17-.74c0-.17,0-.39-.26-.39s-.82.46-1.25.91-.83,1-1,1-.13-.06-.13-.17c0-.28.89-1.24,1.06-1.41.54-.52,1.74-1.58,2.56-1.58.52,0,.67.32.67.8Zm1.17-3.61c0,.58-.48,1.4-1.15,1.4a.71.71,0,0,1-.67-.8c0-.56.48-1.38,1.1-1.38a.71.71,0,0,1,.72.75Z"/><path class="cls-1" d="M203.88,29c0,.41-.41.62-.8.62a1.39,1.39,0,0,1-.91-.3,2.88,2.88,0,0,1-.5-.56.87.87,0,0,0-.76-.41,4.18,4.18,0,0,0-2.49,1.47,7.56,7.56,0,0,0-1.86,4.57c0,1.4.69,2.57,2.21,2.57a4.26,4.26,0,0,0,2.75-1.1c.71-.61,1.17-1.24,1.36-1.24a.14.14,0,0,1,.13.13c0,.33-.71,1.11-.91,1.3a5.68,5.68,0,0,1-3.85,2,3.41,3.41,0,0,1-3.36-3.6A6.55,6.55,0,0,1,197,30a7.25,7.25,0,0,1,4.55-2.12c.63,0,2.36.19,2.36,1.1Z"/><path class="cls-1" d="M210.61,35.12a3.08,3.08,0,0,1-1.25,2.11,4.68,4.68,0,0,1-2.58.8,4.89,4.89,0,0,1-2.49-.74c-.2-.13-.5-.35-.5-.61A3.22,3.22,0,0,1,204,36c0-.17.13-.78.43-.78s.34.22.52.52c.45.69,1,1.82,2.38,1.82a1.9,1.9,0,0,0,1.93-1.67c0-1-.87-1.69-1.74-2.47s-1.73-1.6-1.73-2.62c0-1.88,1.78-2.94,3.49-2.94.43,0,2.62.15,2.62.91a3.83,3.83,0,0,1-.15.63c-.07.17-.11.62-.39.62s-.57-.41-1-.84a2.56,2.56,0,0,0-1.75-.84A1.45,1.45,0,0,0,207,29.78c0,.84.86,1.6,1.73,2.42s1.84,1.76,1.84,2.9Z"/><path class="cls-1" d="M218.12,35.77a8.84,8.84,0,0,1,2.49-5.3,7.75,7.75,0,0,1,5.24-2.62,1.74,1.74,0,0,1,1.65.76s.13-.41.26-.72a.33.33,0,0,1,.3-.24c.24,0,.56,0,.78,0s.37,0,.37.22a2.7,2.7,0,0,1-.11.43q-1.09,3.64-2.23,7.32a2.83,2.83,0,0,0-.17.71c0,.18,0,.33.21.33.55,0,1.56-1.37,1.82-1.78.07-.11.22-.39.37-.39a.17.17,0,0,1,.15.18,5.44,5.44,0,0,1-1.14,1.79c-.55.59-1.72,1.61-2.58,1.61a.56.56,0,0,1-.59-.63,4.33,4.33,0,0,1,.24-1.21c.46-1.43.91-2.86,1.34-4.29h0c-1.19,2-4.09,6.13-6.65,6.13-1.21,0-1.71-1.17-1.71-2.23Zm9.08-6.41c0-.77-.65-1.1-1.39-1.1-1.58,0-3.12,1.52-4,2.71a9.58,9.58,0,0,0-2,4.59c0,.6.31,1.32,1,1.32,1.32,0,3.25-2.32,4-3.27.61-.76,2.39-3.23,2.39-4.22Z"/><path class="cls-1" d="M242,29.08a5.07,5.07,0,0,1-.41,1.56c-.58,1.54-1.17,3.08-1.75,4.64a4,4,0,0,0-.33,1.1.38.38,0,0,0,.41.43c.5,0,1.24-.75,1.76-1.38.26-.33.58-.89.78-.89a.16.16,0,0,1,.15.15c0,.28-.37.78-1,1.45S239.73,38,238.84,38c-.65,0-.93-.35-.93-1a7.21,7.21,0,0,1,.59-2.32c.52-1.36,1-2.72,1.53-4.09a3.76,3.76,0,0,0,.31-1.17.68.68,0,0,0-.76-.75c-1.15,0-2.51,1.6-3.18,2.38A21.85,21.85,0,0,0,233.06,37c-.19.63-.21.74-.73.74H232c-.26,0-.46,0-.46-.26a2.3,2.3,0,0,1,.13-.5c.65-2.1,1.3-4.2,1.93-6.3a4.53,4.53,0,0,0,.26-1.19c0-.29-.11-.52-.43-.52s-1.32.91-1.76,1.51c-.15.22-.36.63-.49.63s-.18,0-.18-.15a5.3,5.3,0,0,1,.93-1.41c.54-.65,1.67-1.73,2.58-1.73.67,0,.89.43.89,1.06a7.26,7.26,0,0,1-.37,1.91c-.3,1-.63,2-.93,3l0,0c1.19-2.17,3.73-6,6.52-6A1.21,1.21,0,0,1,242,29.06Z"/><path class="cls-1" d="M243.8,35.54a8.62,8.62,0,0,1,7.86-7.69,1.48,1.48,0,0,1,1.39.71c.32-1,.62-2,.93-3a6.09,6.09,0,0,0,.21-.89c0-.49-.47-.54-.84-.54s-.61,0-.61-.21.41-.29.63-.29a5.15,5.15,0,0,0,2.17-.58c.21-.13.43-.33.56-.33s.15.09.15.2a4,4,0,0,1-.13.52q-1.85,6-3.7,12.08a3.68,3.68,0,0,0-.22.93c0,.2.09.31.3.31.46,0,1.39-1.2,1.76-1.78.15-.24.28-.48.45-.48s.11.09.11.15a4.17,4.17,0,0,1-.89,1.54c-.52.63-1.75,1.89-2.66,1.89-.54,0-.67-.35-.67-.85a7.38,7.38,0,0,1,.39-1.9c.28-.93.58-1.87.89-2.8l0,0c-1.27,1.8-3.7,5.59-6.17,5.59-1.34,0-1.86-1.32-1.86-2.47Zm9-6.26a1.16,1.16,0,0,0-1.27-1c-1.54,0-3.25,1.43-4.16,2.58a8.89,8.89,0,0,0-1.91,4.72c0,.67.2,1.43,1,1.43,1.49,0,3.36-2.41,4.16-3.47.58-.8,2.18-3.2,2.18-4.2Z"/><path class="cls-1" d="M275,27c0,1.79-1.5,3.31-3.08,4a12.82,12.82,0,0,1-5.35.8h-.41c-.37,1.24-.76,2.47-1.14,3.73a5.85,5.85,0,0,0-.26,1.06c0,.65.6.69,1.08.69.21,0,.65,0,.65.28s-.22.26-.41.26l-2.56-.08-2,.08c-.18,0-.67.11-.67-.21s.39-.33.93-.35c1,0,1.23-.89,1.49-1.75.93-3,1.86-6.07,2.77-9.1a5.47,5.47,0,0,0,.26-1.06c0-.65-.6-.63-1.08-.63-.22,0-.65.05-.65-.28s.22-.24.41-.24c.82,0,1.63.05,2.45.05,1.45,0,3.44-.05,4.35-.05a3.5,3.5,0,0,1,2.14.57A2.6,2.6,0,0,1,275,27Zm-1.82-.26c0-1.74-1.41-2-2.84-2-1.95,0-2.06.18-2.25.78-.56,1.82-1.13,3.64-1.69,5.48-.06.2,0,.28.33.28,1.62,0,3.18,0,4.54-1a4.57,4.57,0,0,0,1.91-3.53Z"/><path class="cls-1" d="M285,31c0,2.14-2.55,7-5.39,7-.58,0-1.49-.26-1.49-1.09a.64.64,0,0,1,.69-.63c.43,0,.56.46.76.83a.67.67,0,0,0,.6.43c1.48,0,2.95-4.35,3.21-6.73.13-1.22-.33-2-1.15-2-1,0-2.84,2-3.44,2.77a16.19,16.19,0,0,0-2.62,5.26c-.22.69-.22.89-.93.89-.13,0-.72.06-.72-.2a2.93,2.93,0,0,1,.15-.6c1.15-3.73,2.28-7.43,3.4-11.13a5.39,5.39,0,0,0,.31-1.26c0-.58-.28-.67-.8-.67l-.39,0c-.13,0-.24,0-.24-.19s.24-.29.54-.29a6.13,6.13,0,0,0,2.21-.49,3,3,0,0,1,.6-.29c.09,0,.13.09.13.18a4.58,4.58,0,0,1-.15.56q-1.43,4.65-2.86,9.31l.05,0c.71-1.27,3.31-4.91,5.43-4.91,1.86,0,2.1,1.62,2.1,3.12Z"/><path class="cls-1" d="M295.65,29.32c0,2.62-3.31,6.56-5,8.55-.35.44-.71.87-1.08,1.3-1.15,1.37-3,3.55-4.9,3.55-.65,0-1.62-.43-1.62-1.19a.73.73,0,0,1,.74-.71,1,1,0,0,1,.88.58,1.2,1.2,0,0,0,.94.59c1.08,0,2.22-1.41,2.68-2.25a5.38,5.38,0,0,0,.63-1.91c.06-.95.11-1.88.15-2.81s0-6.15-1-6.15c-.61,0-1.36,1.23-1.58,1.69-.07.13-.22.56-.41.56s-.11-.11-.11-.17a4.48,4.48,0,0,1,.82-1.63c.46-.6,1.17-1.47,2-1.47,1,0,1.34,1.64,1.47,2.4a25.64,25.64,0,0,1,.3,4.29c0,.89-.11,1.77-.13,2.86l0,0,2.43-3a7.11,7.11,0,0,0,1.62-3.7,2.25,2.25,0,0,0-.26-1,2,2,0,0,1-.28-.84.91.91,0,0,1,.8-1c.69,0,.93.91.93,1.45Z"/><path class="cls-1" d="M301.91,35.12a3.06,3.06,0,0,1-1.26,2.11,4.64,4.64,0,0,1-2.57.8,4.86,4.86,0,0,1-2.49-.74c-.2-.13-.5-.35-.5-.61a3.9,3.9,0,0,1,.19-.69c.05-.17.13-.78.44-.78s.34.22.52.52c.45.69,1,1.82,2.38,1.82a1.89,1.89,0,0,0,1.92-1.67c0-1-.86-1.69-1.73-2.47s-1.73-1.6-1.73-2.62c0-1.88,1.78-2.94,3.49-2.94.43,0,2.62.15,2.62.91a3.83,3.83,0,0,1-.15.63c-.07.17-.11.62-.39.62s-.57-.41-1-.84a2.59,2.59,0,0,0-1.76-.84,1.45,1.45,0,0,0-1.53,1.45c0,.84.86,1.6,1.73,2.42s1.84,1.76,1.84,2.9Z"/><path class="cls-1" d="M308.47,28.67a6.8,6.8,0,0,1-.37,1.56c-.52,1.73-1.06,3.47-1.6,5.2a3,3,0,0,0-.2.86c0,.22.09.39.28.39.42,0,1.2-.91,1.63-1.56.21-.32.41-.69.58-.69s.13.07.13.15a4.58,4.58,0,0,1-.91,1.54c-.52.65-1.73,1.91-2.64,1.91-.56,0-.67-.37-.67-.87a8.2,8.2,0,0,1,.39-1.91c.52-1.68,1-3.35,1.54-5a4.21,4.21,0,0,0,.17-.74c0-.17,0-.39-.26-.39s-.82.46-1.25.91-.83,1-1,1-.13-.06-.13-.17c0-.28.89-1.24,1.06-1.41.54-.52,1.73-1.58,2.56-1.58.52,0,.67.32.67.8Zm1.17-3.61c0,.58-.48,1.4-1.15,1.4a.71.71,0,0,1-.67-.8c0-.56.47-1.38,1.1-1.38a.71.71,0,0,1,.72.75Z"/><path class="cls-1" d="M319.36,29c0,.41-.41.62-.8.62a1.41,1.41,0,0,1-.91-.3,2.88,2.88,0,0,1-.5-.56.87.87,0,0,0-.76-.41,4.18,4.18,0,0,0-2.49,1.47A7.56,7.56,0,0,0,312,34.37c0,1.4.69,2.57,2.21,2.57a4.26,4.26,0,0,0,2.75-1.1c.71-.61,1.17-1.24,1.36-1.24a.14.14,0,0,1,.13.13c0,.33-.71,1.11-.91,1.3a5.64,5.64,0,0,1-3.85,2,3.41,3.41,0,0,1-3.36-3.6A6.55,6.55,0,0,1,312.45,30,7.25,7.25,0,0,1,317,27.85c.63,0,2.36.19,2.36,1.1Z"/><path class="cls-1" d="M326.09,35.12a3.08,3.08,0,0,1-1.25,2.11,4.68,4.68,0,0,1-2.58.8,4.89,4.89,0,0,1-2.49-.74c-.2-.13-.5-.35-.5-.61a3.22,3.22,0,0,1,.2-.69c0-.17.13-.78.43-.78s.35.22.52.52c.45.69,1,1.82,2.38,1.82a1.9,1.9,0,0,0,1.93-1.67c0-1-.87-1.69-1.73-2.47s-1.74-1.6-1.74-2.62c0-1.88,1.78-2.94,3.49-2.94.43,0,2.62.15,2.62.91a3.83,3.83,0,0,1-.15.63c-.07.17-.11.62-.39.62s-.57-.41-1-.84a2.56,2.56,0,0,0-1.75-.84,1.45,1.45,0,0,0-1.54,1.45c0,.84.86,1.6,1.73,2.42s1.84,1.76,1.84,2.9Z"/></svg>