<?xml version="1.0" encoding="UTF-8"?>
<svg width="250px" height="180px" viewBox="0 0 250 180" version="1.1" xmlns="http://www.w3.org/2000/svg" xmlns:xlink="http://www.w3.org/1999/xlink">
    <!-- Generator: Sketch 54 (76480) - https://sketchapp.com -->
    <title>logos/1</title>
    <desc>Created with Sketch.</desc>
    <g id="logos/1" stroke="none" stroke-width="1" fill="none" fill-rule="evenodd">
        <g id="UM" transform="translate(43.000000, 43.000000)" fill="#006385" fill-rule="nonzero">
            <g id="Group" transform="translate(0.000000, 80.000000)">
                <path d="M4.5786802,12.52 C6.74314721,12.52 8.03350254,11.8 8.03350254,9.72 L8.03350254,0.76 L9.19898477,0.76 L9.19898477,9.72 C9.19898477,12.52 7.53401015,13.6 4.53705584,13.6 C1.66497462,13.6 5.68434189e-14,12.56 5.68434189e-14,9.72 L5.68434189e-14,0.76 L1.2071066,0.76 L1.2071066,9.72 C1.24873096,11.8 2.53908629,12.52 4.5786802,12.52 Z" id="Path"></path>
                <path d="M12.6121827,13.4 L12.6121827,4.32 L13.777665,4.32 L13.777665,5 C13.777665,5 15.4010152,4.16 16.8994924,4.16 C19.5218274,4.16 20.1045685,5.32 20.1045685,8.68 L20.1045685,13.4 L18.9807107,13.4 L18.9807107,8.68 C18.9807107,6.04 18.6893401,5.16 16.7329949,5.16 C15.2345178,5.16 13.777665,5.92 13.777665,5.92 L13.777665,13.4 L12.6121827,13.4 L12.6121827,13.4 Z" id="Path"></path>
                <path d="M23.4345178,0.72 L24.6,0.72 L24.6,2.08 L23.4345178,2.08 L23.4345178,0.72 Z M23.4345178,4.36 L24.6,4.36 L24.6,13.44 L23.4345178,13.44 L23.4345178,4.36 Z" id="Shape"></path>
                <polygon id="Path" points="27.9715736 4.36 30.4690355 12.48 31.2182741 12.48 33.7573604 4.36 34.964467 4.36 32.0923858 13.44 29.5532995 13.44 26.7228426 4.36"></polygon>
                <path d="M43.9137056,12.44 L43.9553299,13.36 C43.9553299,13.36 41.7908629,13.6 40.2507614,13.6 C37.3786802,13.6 36.5045685,11.96 36.5045685,8.92 C36.5045685,5.4 38.1279188,4.2 40.4588832,4.2 C42.9563452,4.2 44.2467005,5.44 44.2467005,8.48 L44.2050761,9.36 L37.6284264,9.36 C37.6284264,11.52 38.2944162,12.64 40.2923858,12.64 C41.7908629,12.6 43.9137056,12.44 43.9137056,12.44 Z M43.164467,8.44 C43.164467,6.04 42.3319797,5.16 40.542132,5.16 C38.7939086,5.16 37.7532995,6.08 37.7532995,8.44 L43.164467,8.44 Z" id="Shape"></path>
                <path d="M47.035533,4.36 L48.2010152,4.36 L48.2010152,5.64 C48.2010152,5.64 49.7827411,4.52 51.7390863,4.16 L51.7390863,5.28 C49.9076142,5.64 48.2010152,6.64 48.2010152,6.64 L48.2010152,13.4 L47.035533,13.4 L47.035533,4.36 Z" id="Path"></path>
                <polygon id="Path" points="53.1543147 4.36 60.3137056 4.36 60.3137056 5.36 54.5695431 12.48 60.3137056 12.48 60.3137056 13.44 53.1543147 13.44 53.1543147 12.48 58.9401015 5.36 53.1543147 5.36"></polygon>
                <path d="M69.6375635,11.92 C69.6791878,12.44 70.2619289,12.64 70.8862944,12.72 L70.8446701,13.6 C69.8873096,13.6 69.1796954,13.4 68.680203,12.88 C68.680203,12.88 66.848731,13.64 65.0588832,13.64 C63.3522843,13.64 62.4365482,12.72 62.4365482,10.88 C62.4365482,9.2 63.3106599,8.4 65.2670051,8.24 L68.5553299,7.92 L68.5553299,7.12 C68.5553299,5.76 67.8893401,5.2 66.6822335,5.2 C65.3086294,5.2 63.0192893,5.44 63.0192893,5.44 L62.977665,4.56 C62.977665,4.56 65.1837563,4.2 66.7654822,4.2 C68.7634518,4.2 69.7208122,5.16 69.7208122,7.12 L69.7208122,11.92 L69.6375635,11.92 Z M65.3502538,9.08 C64.0598985,9.2 63.5604061,9.76 63.5604061,10.84 C63.5604061,12 64.1015228,12.64 65.142132,12.64 C66.6822335,12.64 68.4720812,12.04 68.4720812,12.04 L68.4720812,8.76 L65.3502538,9.08 Z" id="Shape"></path>
                <polygon id="Path" points="77.7126904 4.36 80.2101523 12.48 80.9593909 12.48 83.4984772 4.36 84.7055838 4.36 81.8335025 13.44 79.2944162 13.44 76.4639594 4.36"></polygon>
                <polygon id="Path" points="91.5736041 0.76 93.7380711 0.76 97.942132 11.76 102.187817 0.76 104.31066 0.76 104.31066 13.4 103.145178 13.4 103.145178 2 102.895431 2 98.6497462 13 97.2761421 13 93.0304569 2 92.7807107 2 92.7807107 13.4 91.5736041 13.4"></polygon>
                <path d="M114.383756,11.92 C114.425381,12.44 115.008122,12.64 115.632487,12.72 L115.590863,13.6 C114.633503,13.6 113.925888,13.4 113.426396,12.88 C113.426396,12.88 111.594924,13.64 109.805076,13.64 C108.098477,13.64 107.182741,12.72 107.182741,10.88 C107.182741,9.2 108.056853,8.4 110.013198,8.24 L113.301523,7.92 L113.301523,7.12 C113.301523,5.76 112.635533,5.2 111.428426,5.2 C110.054822,5.2 107.765482,5.44 107.765482,5.44 L107.723858,4.56 C107.723858,4.56 109.929949,4.2 111.511675,4.2 C113.509645,4.2 114.467005,5.16 114.467005,7.12 L114.467005,11.92 L114.383756,11.92 Z M110.096447,9.08 C108.806091,9.2 108.306599,9.76 108.306599,10.84 C108.306599,12 108.847716,12.64 109.888325,12.64 C111.428426,12.64 113.218274,12.04 113.218274,12.04 L113.218274,8.76 L110.096447,9.08 Z" id="Shape"></path>
                <path d="M117.963452,4.36 L119.128934,4.36 L119.128934,5.64 C119.128934,5.64 120.71066,4.52 122.667005,4.16 L122.667005,5.28 C120.835533,5.64 119.128934,6.64 119.128934,6.64 L119.128934,13.4 L117.963452,13.4 L117.963452,4.36 Z" id="Path"></path>
                <path d="M124.664975,0.72 L125.830457,0.72 L125.830457,2.08 L124.664975,2.08 L124.664975,0.72 Z M124.664975,4.36 L125.830457,4.36 L125.830457,13.44 L124.664975,13.44 L124.664975,4.36 Z" id="Shape"></path>
                <path d="M136.819289,8.72 C136.819289,12.24 135.861929,13.6 132.323858,13.6 C131.116751,13.6 129.20203,13.4 129.20203,13.4 L129.20203,0.28 L130.367513,0.28 L130.367513,4.8 C130.367513,4.8 131.86599,4.16 133.364467,4.16 C135.986802,4.16 136.819289,5.52 136.819289,8.72 Z M135.612183,8.72 C135.612183,6.24 135.154315,5.16 133.281218,5.16 C131.824365,5.16 130.367513,5.76 130.367513,5.76 L130.367513,12.52 C130.367513,12.52 131.699492,12.64 132.282234,12.64 C135.154315,12.6 135.612183,11.4 135.612183,8.72 Z" id="Shape"></path>
                <path d="M146.975635,8.76 C146.975635,12 146.184772,13.6 142.979695,13.6 C139.732995,13.6 138.900508,12.16 138.900508,8.72 C138.900508,5.52 139.982741,4.16 142.979695,4.16 C145.768528,4.16 146.975635,5.56 146.975635,8.76 Z M145.768528,8.76 C145.768528,6.16 144.936041,5.16 142.938071,5.16 C140.73198,5.16 140.024365,6.04 140.024365,8.72 C140.024365,11.48 140.440609,12.6 142.938071,12.6 C145.435533,12.6 145.768528,11.36 145.768528,8.76 Z" id="Shape"></path>
                <path d="M149.806091,4.36 L150.971574,4.36 L150.971574,5.64 C150.971574,5.64 152.553299,4.52 154.509645,4.16 L154.509645,5.28 C152.678173,5.64 150.971574,6.64 150.971574,6.64 L150.971574,13.4 L149.806091,13.4 L149.806091,4.36 Z" id="Path"></path>
                <path d="M163.833503,4.36 L163.833503,13.44 L162.709645,13.44 L162.709645,12.8 C162.709645,12.8 161.211168,13.6 159.754315,13.6 C157.090355,13.6 156.549239,12.48 156.549239,9.08 L156.549239,4.36 L157.673096,4.36 L157.673096,9.08 C157.673096,11.8 157.964467,12.64 159.879188,12.64 C161.336041,12.64 162.709645,11.88 162.709645,11.88 L162.709645,4.36 L163.833503,4.36 Z" id="Path"></path>
            </g>
            <g id="Group" transform="translate(66.000000, 11.000000)">
                <g transform="translate(31.450000, 0.000000)" id="Path">
                    <path d="M1.105,8.896875 C0.935,8.896875 0.765,8.85625 0.595,8.775 L0.17,9.546875 L0.17,12.91875 L2.295,12.91875 L2.295,9.546875 L1.87,8.775 C1.7,8.85625 1.445,8.896875 1.2325,8.896875 C1.19,8.896875 1.1475,8.896875 1.105,8.896875 Z"></path>
                    <path d="M2.04,8.165625 L1.53,0.690625 C1.53,0.446875 1.36,0.284375 1.1475,0.284375 C0.935,0.284375 0.765,0.446875 0.765,0.690625 L0.51,8.165625 C0.51,8.20625 0.595,8.328125 0.7225,8.409375 C0.85,8.490625 0.9775,8.53125 1.105,8.53125 L1.4025,8.53125 C1.785,8.490625 1.9975,8.2875 2.04,8.165625 Z"></path>
                    <path d="M1.105,8.53125 C1.1475,8.53125 1.19,8.53125 1.19,8.53125 C1.2325,8.53125 1.275,8.53125 1.3175,8.53125 L1.02,8.53125 C1.0625,8.53125 1.105,8.53125 1.105,8.53125 Z"></path>
                </g>
                <g id="Path">
                    <path d="M1.3175,8.896875 C1.4875,8.896875 1.6575,8.85625 1.8275,8.775 L2.2525,9.546875 L2.2525,12.91875 L0.1275,12.91875 L0.1275,9.546875 L0.5525,8.775 C0.7225,8.85625 0.9775,8.896875 1.19,8.896875 C1.2325,8.896875 1.275,8.896875 1.3175,8.896875 Z"></path>
                    <path d="M0.3825,8.165625 L0.8925,0.690625 C0.8925,0.446875 1.0625,0.284375 1.275,0.284375 C1.4875,0.284375 1.6575,0.446875 1.6575,0.690625 L1.9125,8.165625 C1.9125,8.20625 1.8275,8.328125 1.7,8.409375 C1.5725,8.490625 1.445,8.53125 1.3175,8.53125 L1.02,8.53125 C0.6375,8.490625 0.425,8.2875 0.3825,8.165625 Z"></path>
                    <path d="M1.3175,8.53125 C1.275,8.53125 1.2325,8.53125 1.2325,8.53125 C1.19,8.53125 1.1475,8.53125 1.105,8.53125 L1.4025,8.53125 C1.36,8.53125 1.3175,8.53125 1.3175,8.53125 Z"></path>
                </g>
            </g>
            <g id="Group" transform="translate(0.000000, 24.000000)">
                <rect id="Rectangle" x="0" y="0.33442623" width="65.3333333" height="50.5401639"></rect>
                <rect id="Rectangle" x="99.4583333" y="0.33442623" width="65.3333333" height="50.5401639"></rect>
                <g transform="translate(65.833333, 0.000000)">
                    <path d="M3.875,25.4163934 C3.875,25.4163934 4.08333333,23.8696721 5.625,23.8278689 C7.125,23.7860656 7.375,25.4163934 7.375,25.4163934 L7.375,30.6 L12.2083333,30.6 L12.2083333,25.4163934 C12.2083333,25.4163934 12.4166667,23.8696721 13.9583333,23.8278689 C15.4583333,23.7860656 15.7083333,25.4163934 15.7083333,25.4163934 L15.7083333,30.6 L17.5,30.6 L17.5,25.4163934 C17.5,25.4163934 17.7083333,23.8696721 19.25,23.8278689 C20.75,23.7860656 21,25.4163934 21,25.4163934 L21,30.6 L25.6666667,30.6 L25.6666667,25.4163934 C25.6666667,25.4163934 25.875,23.8696721 27.4166667,23.8278689 C28.9166667,23.7860656 29.1666667,25.4163934 29.1666667,25.4163934 L29.1666667,30.6 L33.0416667,30.6 L33.0416667,17.6409836 L0.375,17.6409836 L0.375,30.6 L4,30.6 L4,25.4163934 L3.875,25.4163934 Z M27.1666667,19.6893443 L30.4166667,21.6959016 L30.4166667,21.6959016 L30.2083333,21.9885246 L27.1666667,20.107377 L24.3333333,21.9885246 L24.125,21.6959016 L27.1666667,19.6893443 Z M16.3333333,19.3967213 L22.2916667,21.6959016 L22.2916667,21.6959016 L22.1666667,22.0303279 L16.3333333,19.7729508 L10.875,22.0303279 L10.75,21.6959016 L16.3333333,19.3967213 Z M5.5,19.6893443 L8.75,21.6959016 L8.75,21.6959016 L8.54166667,21.9885246 L5.5,20.107377 L2.66666667,21.9885246 L2.45833333,21.6959016 L5.5,19.6893443 Z" id="Shape"></path>
                    <path d="M3.875,10.8270492 L7.33333333,10.8270492 L7.33333333,17.2647541 L12.1666667,17.2647541 L12.1666667,10.8270492 L15.625,10.8270492 L15.625,17.2647541 L17.4583333,17.2647541 L17.4583333,10.8688525 L20.9166667,10.8688525 L20.9166667,17.2647541 L25.5833333,17.2647541 L25.5833333,10.8688525 L29.0416667,10.8688525 L29.0416667,17.2647541 L32.9166667,17.2647541 L32.9166667,0.33442623 L0.25,0.33442623 L0.25,17.2647541 L3.875,17.2647541 L3.875,10.8270492 L3.875,10.8270492 Z M27.25,6.89754098 C28.625,6.89754098 29.875,7.69180328 30.5,8.86229508 L30.1666667,9.0295082 C29.625,7.98442623 28.5,7.27377049 27.2083333,7.27377049 C25.9583333,7.27377049 24.875,8.02622951 24.3333333,9.0295082 L24.3333333,9.0295082 L24.3333333,9.0295082 C24.3333333,9.0295082 24.3333333,9.0295082 24.3333333,9.0295082 L24,8.86229508 C24.6666667,7.69180328 25.875,6.89754098 27.25,6.89754098 Z M16.3333333,6.43770492 L22.2916667,8.73688525 L22.2916667,8.73688525 L22.1666667,9.07131148 L16.3333333,6.81393443 L10.875,9.07131148 L10.75,8.73688525 L16.3333333,6.43770492 Z M2.66666667,8.98770492 L2.33333333,8.8204918 C2.95833333,7.69180328 4.16666667,6.89754098 5.54166667,6.8557377 C6.91666667,6.8557377 8.16666667,7.65 8.79166667,8.8204918 L8.45833333,8.98770492 C7.91666667,7.94262295 6.79166667,7.23196721 5.54166667,7.23196721 C4.33333333,7.23196721 3.25,7.98442623 2.66666667,8.98770492 L2.66666667,8.98770492 Z" id="Shape"></path>
                    <path d="M0.25,50.9163934 L12.4583333,50.9163934 L12.4583333,40.1311475 C12.4583333,40.1311475 12.9166667,37.1631148 16.5416667,37.1213115 C20.125,37.0795082 20.625,40.1311475 20.625,40.1311475 L20.625,50.9163934 L32.9166667,50.9163934 L32.9166667,33.9860656 L0.25,33.9860656 L0.25,50.9163934 Z M25.5416667,39.1278689 C25.5416667,39.1278689 25.75,37.5811475 27.2916667,37.5811475 C28.7916667,37.5393443 29.0416667,39.1278689 29.0416667,39.1278689 L29.0416667,45.1057377 L25.5833333,45.1057377 L25.5833333,39.1278689 L25.5416667,39.1278689 Z M5.58333333,37.5811475 C7.08333333,37.5393443 7.33333333,39.1278689 7.33333333,39.1278689 L7.33333333,45.1057377 L3.875,45.1057377 L3.875,39.1278689 C3.875,39.1278689 4.04166667,37.5811475 5.58333333,37.5811475 Z" id="Shape"></path>
                    <rect id="Rectangle" x="0.25" y="30.9762295" width="32.6666667" height="2.63360656"></rect>
                    <rect id="Rectangle" x="0.25" y="17.2647541" width="3.625" height="1"></rect>
                    <rect id="Rectangle" x="29" y="17.2647541" width="3.875" height="1"></rect>
                    <rect id="Rectangle" x="20.875" y="17.2647541" width="4.66666667" height="1"></rect>
                    <rect id="Rectangle" x="15.625" y="17.2647541" width="1.83333333" height="1"></rect>
                    <rect id="Rectangle" x="7.33333333" y="17.2647541" width="4.83333333" height="1"></rect>
                </g>
            </g>
            <polygon id="Path" points="76 0 77.0801187 3 88.9614243 3 90 0"></polygon>
            <path d="M88.4487289,3 L76.4839489,3 C70.7944032,5.69230769 67.4476115,11.5470085 68.075135,18 L76.6931234,18 L78.6593634,12.3162393 L77.9900051,11.6324786 L77.9900051,10.5641026 C77.9900051,10.5641026 79.2450519,9.02564103 82.5918436,8.98290598 C85.4784513,8.94017094 86.9426726,10.5641026 86.9426726,10.5641026 L86.9426726,11.6324786 L86.3151492,12.2735043 L88.2813893,18 L96.8993777,18 C97.6942407,11.5897436 93.6780907,5.26495726 88.4487289,3 Z" id="Path"></path>
            <path d="M97,18.3478261 C96.9142857,18.2608696 96.8285714,18.1304348 96.7857143,18 L88,18 L88,23 L96.4857143,23 L96.4857143,19.3478261 L97,18.3478261 Z" id="Path"></path>
            <path d="M68,18.3448276 C68.0861244,18.2586207 68.1722488,18.1293103 68.1722488,18 L77,18 L77,23 L68.4736842,23 L68.4736842,19.3362069 L68,18.3448276 Z" id="Path"></path>
            <path d="M86.0387597,12.869283 L86.7635659,12.0558845 L86.7635659,11.3281068 C86.7635659,11.3281068 85.3992248,9.95817242 82.5852713,10.0009829 C79.7286822,10.0437933 78.3643411,11.3281068 78.3643411,11.3281068 L78.3643411,12.0986949 L79.0891473,12.869283 L77,18.7771251 L77,24 L88,24 L88,18.7771251 L86.0387597,12.869283 Z M85.5271318,12.1415054 C85.0155039,11.62778 83.8217054,11.1996755 82.5426357,11.1996755 C81.2635659,11.1996755 80.1550388,11.5849695 79.6434109,12.1415054 L79.4302326,11.8846427 C80.0697674,11.2852964 81.2209302,10.8571919 82.5852713,10.8571919 C83.9496124,10.8571919 85.1434109,11.2424859 85.7829457,11.8846427 L85.5271318,12.1415054 Z" id="Shape"></path>
        </g>
    </g>
</svg>