<?xml version="1.0" encoding="utf-8"?>
<!-- Generator: Adobe Illustrator 24.0.2, SVG Export Plug-In . SVG Version: 6.00 Build 0)  -->
<svg version="1.1" id="Layer_1" xmlns="http://www.w3.org/2000/svg" xmlns:xlink="http://www.w3.org/1999/xlink" x="0px" y="0px"
	 viewBox="0 0 155.91 212.6" style="enable-background:new 0 0 155.91 212.6;" xml:space="preserve">
<style type="text/css">
	.st0{fill:#005680;}
	.st1{fill:#CBC4C0;}
	.st2{fill:none;}
</style>
<path class="st0" d="M7.82,192.31c0.07-0.2-0.02-0.39-0.16-0.48l-0.79-0.52c-0.27-0.18-0.29-0.38-0.23-0.54
	c0.05-0.14,0.24-0.18,0.46-0.1l4.1,1.45c0.24,0.08,0.29,0.24,0.24,0.39c-0.08,0.21-0.23,0.26-0.53,0.24l-0.82-0.05
	c-0.18,0-0.29,0.06-0.36,0.26l-2.84,8c-0.57,1.61,0.41,3.17,2.39,3.87c1.93,0.68,3.67,0.09,4.24-1.52l2.84-8
	c0.07-0.2,0.02-0.31-0.12-0.42l-0.67-0.48c-0.25-0.17-0.34-0.3-0.26-0.52c0.05-0.14,0.19-0.23,0.43-0.15l3.74,1.33
	c0.22,0.08,0.34,0.22,0.29,0.37c-0.06,0.16-0.2,0.31-0.52,0.28l-0.94-0.09c-0.17-0.02-0.36,0.07-0.43,0.27l-2.75,7.75
	c-0.99,2.79-3.97,3.07-6.43,2.19c-2.48-0.88-4.62-2.97-3.63-5.77L7.82,192.31z"/>
<path class="st0" d="M23.7,197.41c0.03-0.21-0.08-0.38-0.24-0.45l-0.87-0.38c-0.3-0.13-0.35-0.33-0.32-0.5
	c0.03-0.15,0.21-0.22,0.43-0.18l2.7,0.45l6.18,11.66l0.04,0.01l1.53-9.07c0.03-0.21-0.03-0.31-0.19-0.4l-0.75-0.36
	c-0.28-0.12-0.38-0.24-0.35-0.46c0.03-0.15,0.15-0.26,0.4-0.22l3.79,0.64c0.23,0.04,0.38,0.16,0.35,0.31
	c-0.03,0.17-0.14,0.34-0.46,0.37L35,198.91c-0.17,0.01-0.34,0.13-0.38,0.34L32.6,211.3l-1.26-0.21l-6.37-11.9l-0.04-0.01l-1.56,9.27
	c-0.03,0.21,0.03,0.31,0.19,0.4l0.75,0.36c0.28,0.12,0.38,0.24,0.35,0.46c-0.03,0.15-0.15,0.26-0.4,0.22l-3.79-0.64
	c-0.23-0.04-0.38-0.16-0.35-0.31c0.03-0.17,0.14-0.34,0.46-0.36l0.94-0.07c0.17-0.01,0.34-0.13,0.37-0.34L23.7,197.41z"/>
<path class="st0" d="M41.23,199.7c0.01-0.34-0.13-0.46-0.3-0.5l-0.87-0.26c-0.27-0.09-0.43-0.17-0.43-0.34
	c0.01-0.27,0.28-0.35,0.6-0.34l4.09,0.13c0.31,0.01,0.58,0.11,0.57,0.38c-0.01,0.17-0.18,0.24-0.45,0.31l-0.88,0.2
	c-0.17,0.03-0.32,0.14-0.33,0.48l-0.35,10.71c-0.01,0.34,0.13,0.46,0.3,0.5l0.87,0.26c0.27,0.09,0.43,0.17,0.43,0.34
	c-0.01,0.27-0.28,0.35-0.6,0.34l-4.09-0.13c-0.31-0.01-0.58-0.11-0.57-0.38c0.01-0.17,0.18-0.24,0.45-0.31l0.88-0.2
	c0.17-0.03,0.32-0.14,0.33-0.48L41.23,199.7z"/>
<path class="st0" d="M49.23,200.07c-0.26-0.51-0.4-0.65-0.82-0.73l-0.51-0.09c-0.34-0.06-0.52-0.14-0.53-0.33
	c-0.02-0.21,0.16-0.32,0.37-0.34l4.31-0.39c0.27-0.02,0.43,0.09,0.44,0.23c0.02,0.21-0.08,0.33-0.24,0.38l-0.43,0.15
	c-0.55,0.2-0.6,0.36-0.58,0.51c0.01,0.13,0.09,0.26,0.14,0.37l4.23,8.87l0.04,0l2.63-9.63c0.03-0.12,0.06-0.22,0.05-0.33
	c-0.01-0.11-0.15-0.29-0.51-0.34l-0.61-0.06c-0.17-0.02-0.28-0.13-0.3-0.34c-0.01-0.13,0.12-0.28,0.39-0.3l3.68-0.34
	c0.21-0.02,0.4,0.06,0.42,0.27c0.02,0.19-0.14,0.3-0.47,0.42l-0.73,0.3c-0.14,0.05-0.23,0.19-0.28,0.37l-3.7,12.8l-1.23,0.11
	L49.23,200.07z"/>
<path class="st0" d="M65.43,197.82c-0.08-0.33-0.25-0.41-0.42-0.4l-0.91-0.01c-0.28-0.01-0.46-0.04-0.5-0.21
	c-0.06-0.26,0.18-0.42,0.48-0.49l8.75-2.15l0.65,1.76c0.06,0.14,0.09,0.29,0.13,0.44c0.06,0.22-0.07,0.51-0.33,0.57
	c-0.16,0.04-0.35-0.01-0.53-0.24l-0.76-0.89c-0.12-0.13-0.26-0.19-0.49-0.13l-4.18,1.03l1.17,4.76l3.51-0.86
	c0.3-0.07,0.49-0.2,0.5-0.5l0.05-0.76c0.01-0.22,0.11-0.36,0.33-0.41c0.33-0.08,0.46-0.04,0.54,0.28l0.75,3.06
	c0.08,0.31-0.03,0.42-0.35,0.5c-0.22,0.06-0.37-0.03-0.48-0.21l-0.39-0.65c-0.15-0.26-0.37-0.28-0.68-0.21l-3.51,0.86l1.14,4.65
	c0.06,0.26,0.26,0.37,0.55,0.3l3.69-0.91c0.22-0.05,0.37-0.25,0.46-0.43l0.69-1.66c0.08-0.2,0.21-0.37,0.46-0.43
	c0.18-0.04,0.44,0.11,0.48,0.27c0.04,0.17,0.03,0.38,0.03,0.64l-0.05,2.26l-8.89,2.19c-0.3,0.08-0.59,0.05-0.65-0.21
	c-0.04-0.17,0.1-0.28,0.35-0.42l0.8-0.43c0.15-0.08,0.27-0.22,0.19-0.55L65.43,197.82z"/>
<path class="st0" d="M78.81,194.04c-0.13-0.32-0.31-0.37-0.48-0.34l-0.9,0.12c-0.28,0.03-0.46,0.03-0.53-0.13
	c-0.1-0.25,0.12-0.44,0.41-0.56l4.53-1.85c2.77-1.13,4.71-0.57,5.63,1.69c0.55,1.35-0.04,3.18-1.29,4.26l4.63,3.72
	c0.13,0.11,0.26,0.14,0.44,0.13l0.76-0.07c0.5-0.06,0.62-0.03,0.7,0.17c0.07,0.18-0.07,0.32-0.25,0.39l-2.73,1.11l-5.3-4.3
	l-1.45,0.59l1.73,4.24c0.13,0.32,0.24,0.37,0.42,0.36l0.82-0.09c0.3-0.04,0.45,0,0.54,0.21c0.06,0.14,0.01,0.3-0.22,0.4l-3.85,1.57
	c-0.29,0.12-0.58,0.13-0.68-0.11c-0.06-0.16,0.06-0.29,0.28-0.46l0.73-0.54c0.14-0.1,0.23-0.26,0.1-0.58L78.81,194.04z
	 M82.55,197.91l1.2-0.49c1.49-0.61,2.58-1.93,1.87-3.67c-0.6-1.48-1.7-2.08-3.58-1.31l-1.47,0.6L82.55,197.91z"/>
<path class="st0" d="M96.75,184.86l-3.41,2c-0.2,0.12-0.31,0.34-0.33,0.55l-0.14,1.62c-0.01,0.18-0.09,0.3-0.25,0.39
	c-0.29,0.17-0.53,0.18-0.64-0.02c-0.08-0.13-0.15-0.29-0.19-0.44l-0.64-2l7.5-4.39l-0.44,14.75l4.06-2.38
	c0.2-0.12,0.21-0.34,0.23-0.48l0.18-1.64c0.04-0.42,0.1-0.61,0.35-0.76c0.25-0.15,0.46-0.16,0.6,0.07c0.12,0.2,0.18,0.56,0.22,0.71
	l0.53,2.07l-8.06,4.72L96.75,184.86z"/>
<path class="st0" d="M104.29,178.06l1.14-0.88l11.25,6.8c0.15,0.1,0.32,0.14,0.46,0.08l0.73-0.28c0.32-0.13,0.51-0.16,0.63-0.01
	c0.13,0.16,0.04,0.35-0.13,0.48l-3.32,2.58c-0.21,0.17-0.41,0.15-0.52,0.02c-0.09-0.12-0.03-0.24,0.23-0.66l0.32-0.51
	c0.1-0.15,0.08-0.23,0.01-0.32c-0.04-0.05-0.14-0.11-0.25-0.19l-2.24-1.38l-4.12,3.21l0.74,2.38c0.04,0.12,0.1,0.3,0.16,0.38
	c0.06,0.07,0.19,0.14,0.31,0.09l0.7-0.26c0.32-0.13,0.47-0.11,0.57,0.02c0.12,0.15,0.08,0.34-0.13,0.51l-2.95,2.3
	c-0.21,0.17-0.39,0.14-0.5,0c-0.09-0.12-0.08-0.27,0.16-0.61l0.5-0.68c0.07-0.08,0.09-0.33-0.09-0.82L104.29,178.06z M108.05,185.58
	l3.3-2.57l-5.05-3.19l-0.03,0.03L108.05,185.58z"/>
<path class="st0" d="M117.84,167.33c-0.17-0.13-0.38-0.11-0.51,0l-0.74,0.59c-0.25,0.2-0.45,0.15-0.59,0.05
	c-0.12-0.09-0.09-0.28,0.05-0.46l1.67-2.17l13.19,0.05l0.03-0.03l-7.28-5.63c-0.17-0.13-0.29-0.12-0.44-0.02l-0.67,0.49
	c-0.24,0.18-0.39,0.23-0.57,0.09c-0.12-0.09-0.16-0.26-0.01-0.46l2.35-3.04c0.14-0.18,0.32-0.26,0.44-0.16
	c0.14,0.1,0.23,0.29,0.1,0.58l-0.38,0.87c-0.07,0.16-0.04,0.37,0.12,0.49l9.67,7.47l-0.78,1.01l-13.5,0l-0.03,0.03l7.44,5.75
	c0.17,0.13,0.29,0.12,0.44,0.02l0.67-0.49c0.24-0.19,0.39-0.23,0.57-0.09c0.12,0.09,0.16,0.26,0.01,0.46l-2.35,3.04
	c-0.14,0.18-0.32,0.25-0.44,0.16c-0.14-0.1-0.23-0.29-0.1-0.58l0.38-0.87c0.07-0.16,0.04-0.36-0.12-0.49L117.84,167.33z"/>
<path class="st0" d="M128.05,150.7l0.72-1.25l12.98,2.05c0.18,0.03,0.35,0.01,0.45-0.1l0.57-0.54c0.25-0.24,0.42-0.34,0.58-0.25
	c0.18,0.1,0.17,0.31,0.06,0.5l-2.1,3.64c-0.14,0.24-0.32,0.29-0.47,0.21c-0.13-0.07-0.12-0.21-0.04-0.7l0.1-0.59
	c0.03-0.17-0.01-0.25-0.11-0.3c-0.05-0.03-0.17-0.05-0.31-0.08l-2.6-0.44l-2.61,4.53l1.59,1.93c0.08,0.09,0.21,0.24,0.29,0.29
	c0.08,0.05,0.23,0.06,0.32-0.03l0.55-0.5c0.25-0.24,0.4-0.28,0.53-0.2c0.17,0.09,0.21,0.29,0.07,0.52l-1.87,3.24
	c-0.14,0.24-0.31,0.28-0.46,0.19c-0.13-0.08-0.18-0.22-0.08-0.62l0.21-0.82c0.04-0.1-0.05-0.34-0.39-0.73L128.05,150.7z
	 M134.38,156.25l2.09-3.62l-5.89-1.05l-0.02,0.04L134.38,156.25z"/>
<path class="st0" d="M137.63,134.54c-0.33-0.1-0.48,0-0.57,0.15l-0.48,0.77c-0.15,0.24-0.28,0.37-0.44,0.32
	c-0.25-0.08-0.26-0.37-0.17-0.67l1.65-5.22c0.72-2.29,2.42-3.42,4.72-2.7c2.48,0.78,3.13,3.4,2.43,5.61l-0.54,1.71l4.35,1.37
	c0.2,0.06,0.31,0.01,0.42-0.13l0.46-0.69c0.16-0.26,0.29-0.35,0.51-0.28c0.15,0.05,0.24,0.19,0.16,0.43l-1.25,3.97
	c-0.09,0.3-0.27,0.53-0.52,0.45c-0.16-0.05-0.18-0.23-0.18-0.52l0.05-0.91c0.01-0.17-0.05-0.34-0.38-0.45L137.63,134.54z
	 M143.14,134.17l0.53-1.67c0.53-1.69-0.03-2.79-1.92-3.39c-1.54-0.49-2.7,0.03-3.29,1.92l-0.48,1.52L143.14,134.17z"/>
<path class="st0" d="M141.26,121.51c-0.34-0.06-0.47,0.07-0.54,0.23l-0.37,0.83c-0.12,0.26-0.22,0.41-0.39,0.38
	c-0.26-0.04-0.31-0.33-0.26-0.64l0.79-4.83c0.49-2.95,1.98-4.31,4.38-3.92c1.44,0.24,2.69,1.69,2.96,3.33l5.59-2
	c0.16-0.06,0.26-0.15,0.34-0.3l0.34-0.68c0.21-0.45,0.3-0.54,0.51-0.51c0.19,0.03,0.23,0.23,0.2,0.41l-0.48,2.91l-6.44,2.27
	l-0.25,1.55l4.52,0.74c0.34,0.06,0.44-0.01,0.53-0.17l0.35-0.75c0.12-0.28,0.24-0.38,0.46-0.35c0.15,0.03,0.26,0.15,0.22,0.4
	l-0.68,4.1c-0.05,0.31-0.19,0.56-0.45,0.52c-0.17-0.03-0.22-0.2-0.25-0.49l-0.08-0.9c-0.01-0.17-0.1-0.33-0.44-0.39L141.26,121.51z
	 M146.52,120.35l0.21-1.28c0.26-1.59-0.3-3.21-2.16-3.51c-1.57-0.26-2.66,0.37-2.99,2.37l-0.26,1.57L146.52,120.35z"/>
<path class="st0" d="M143.04,107.2c-0.34-0.02-0.46,0.13-0.51,0.29l-0.27,0.87c-0.09,0.27-0.17,0.43-0.34,0.42
	c-0.27-0.01-0.35-0.29-0.33-0.6l0.19-4.09c0.01-0.31,0.12-0.58,0.39-0.57c0.17,0.01,0.24,0.18,0.3,0.45l0.19,0.89
	c0.03,0.17,0.14,0.32,0.48,0.34l10.71,0.49c0.34,0.02,0.46-0.13,0.51-0.29l0.27-0.87c0.09-0.27,0.17-0.43,0.34-0.42
	c0.27,0.01,0.35,0.29,0.33,0.6l-0.18,4.09c-0.02,0.31-0.12,0.58-0.39,0.57c-0.17-0.01-0.24-0.18-0.3-0.45l-0.19-0.89
	c-0.03-0.17-0.14-0.32-0.48-0.34L143.04,107.2z"/>
<path class="st0" d="M143.97,97.77c-0.25,0.01-0.52-0.03-0.78,0c-0.3,0.03-0.37,0.29-0.41,0.59l-0.06,0.49
	c-0.05,0.4-0.14,0.52-0.34,0.54c-0.13,0.01-0.3-0.14-0.34-0.51l-0.33-3.1l10.41-5.44l-11.35-3.43l-0.33-3.1
	c-0.04-0.37,0.09-0.56,0.23-0.57c0.19-0.02,0.31,0.03,0.45,0.46l0.16,0.47c0.11,0.3,0.27,0.56,0.54,0.53
	c0.26-0.03,0.52-0.1,0.77-0.15l10.08-2.02c0.17-0.04,0.25-0.13,0.29-0.33l0.14-0.81c0.04-0.3,0.16-0.46,0.31-0.48
	c0.21-0.02,0.34,0.11,0.37,0.38l0.47,4.36c0.03,0.25-0.08,0.34-0.21,0.36c-0.21,0.02-0.33-0.09-0.49-0.45l-0.31-0.72
	c-0.1-0.24-0.27-0.33-0.53-0.3c-0.17,0.02-0.39,0.06-0.62,0.11l-9.1,1.56l0,0.04l11.68,3.48l0.12,1.14l-10.63,5.36l0,0.04l9.24-0.08
	c0.25-0.01,0.54,0.01,0.72-0.01c0.13-0.01,0.2-0.13,0.26-0.41l0.15-0.73c0.08-0.37,0.14-0.52,0.32-0.54
	c0.19-0.02,0.33,0.22,0.35,0.42l0.41,3.84c0.03,0.27-0.07,0.43-0.28,0.45c-0.15,0.02-0.26-0.08-0.41-0.4l-0.3-0.66
	c-0.1-0.24-0.21-0.36-0.36-0.36L143.97,97.77z"/>
<path class="st0" d="M137.2,73.14c-1.31-4.19,0.89-7.59,4.59-8.75c3.57-1.12,7.55,0.7,8.76,4.57c1.31,4.19-0.89,7.59-4.59,8.75
	C142.38,78.83,138.41,77.01,137.2,73.14z M149.46,69.3c-0.73-2.33-3.33-3.91-7-2.76c-3.61,1.13-5.01,3.58-4.17,6.26
	c0.73,2.33,3.33,3.91,7,2.76C148.89,74.43,150.29,71.97,149.46,69.3z"/>
<path class="st0" d="M134.47,61.27c-0.31,0.15-0.34,0.34-0.3,0.5l0.19,0.89c0.05,0.28,0.06,0.46-0.09,0.54
	c-0.24,0.12-0.44-0.08-0.59-0.36l-2.2-4.37c-1.35-2.67-0.94-4.65,1.23-5.75c1.31-0.66,3.17-0.22,4.35,0.94l3.33-4.91
	c0.1-0.14,0.12-0.27,0.09-0.45l-0.12-0.76c-0.1-0.49-0.08-0.62,0.11-0.71c0.17-0.09,0.32,0.05,0.41,0.22l1.33,2.63l-3.86,5.63
	l0.71,1.4l4.09-2.06c0.3-0.15,0.35-0.27,0.33-0.45l-0.15-0.81c-0.06-0.3-0.04-0.45,0.17-0.55c0.14-0.07,0.3-0.03,0.41,0.19
	l1.87,3.71c0.14,0.28,0.18,0.57-0.06,0.69c-0.15,0.08-0.3-0.04-0.49-0.25l-0.6-0.68c-0.11-0.13-0.28-0.21-0.58-0.06L134.47,61.27z
	 M138.03,57.23l-0.58-1.16c-0.72-1.44-2.13-2.41-3.81-1.56c-1.43,0.72-1.93,1.87-1.02,3.68l0.72,1.42L138.03,57.23z"/>
<path class="st0" d="M136.08,44.73c-0.1,0.09-0.24,0.19-0.33,0.25c-0.28,0.19-0.49,0.19-0.67-0.07c-0.18-0.26-0.05-0.47,0.1-0.76
	l0.76-1.44c0.32-0.58,0.28-1.16-0.47-2.26c-0.82-1.19-2.4-1.77-3.67-0.9c-0.66,0.45-0.91,1.49-0.83,2.25l0.35,3.32
	c0.17,1.58-0.18,2.79-1.4,3.63c-2.06,1.42-4.29,0.07-5.43-1.59c-0.63-0.91-1.19-2.1-1.33-3.2l1.38-1.18
	c0.1-0.09,0.24-0.19,0.33-0.25c0.28-0.19,0.55-0.1,0.71,0.12c0.17,0.24,0.1,0.49-0.08,0.79l-0.58,0.93
	c-0.31,0.52-0.09,1.28,0.46,2.07c0.74,1.07,2.03,1.75,3.11,1c0.64-0.44,0.97-1.38,0.84-2.43l-0.4-3.23
	c-0.18-1.47,0.21-2.84,1.42-3.67c1.71-1.18,4.54-0.51,6.05,1.67c0.66,0.96,1.29,2.21,1.39,3.36L136.08,44.73z"/>
<path class="st0" d="M120.25,38.78c-0.25,0.23-0.24,0.42-0.15,0.57l0.43,0.8c0.13,0.25,0.19,0.43,0.06,0.54
	c-0.2,0.18-0.45,0.05-0.66-0.18l-2.78-3.01c-0.21-0.23-0.33-0.49-0.13-0.67c0.12-0.12,0.3-0.04,0.53,0.1l0.76,0.49
	c0.14,0.1,0.32,0.13,0.58-0.1l3.7-3.41l-0.03-0.03l-6.54,0.29c-0.15,0-0.28,0.03-0.36,0.11c-0.13,0.12-0.12,0.26-0.04,0.41
	l0.26,0.45c0.13,0.22,0.12,0.43,0,0.54c-0.14,0.13-0.32,0.13-0.51-0.07l-2.59-2.81c-0.18-0.2-0.26-0.39-0.09-0.54
	c0.13-0.12,0.29-0.13,0.56,0.05l0.78,0.51c0.1,0.05,0.27,0.09,0.44,0.08l6.35-0.26l1.15-8.17c0.01-0.1-0.04-0.24-0.14-0.46
	l-0.34-0.71c-0.16-0.31-0.2-0.5-0.06-0.63c0.15-0.14,0.35-0.07,0.49,0.09l3.05,3.3c0.2,0.21,0.2,0.41,0.1,0.5
	c-0.15,0.14-0.41,0.09-0.65-0.09l-0.23-0.16c-0.23-0.16-0.34-0.17-0.42-0.09c-0.07,0.06-0.1,0.2-0.12,0.37l-1.06,7.29l0.03,0.03
	l4.15-3.83c0.25-0.23,0.24-0.42,0.15-0.57l-0.43-0.8c-0.13-0.25-0.19-0.43-0.06-0.54c0.2-0.18,0.45-0.05,0.66,0.19l2.78,3.01
	c0.21,0.23,0.33,0.49,0.13,0.68c-0.13,0.12-0.29,0.04-0.53-0.1l-0.76-0.49c-0.14-0.1-0.32-0.13-0.58,0.1L120.25,38.78z"/>
<path class="st0" d="M109.38,27.83c-0.21,0.27-0.17,0.45-0.07,0.58l0.54,0.73c0.16,0.23,0.25,0.39,0.14,0.53
	c-0.17,0.21-0.44,0.11-0.68-0.08l-7.03-5.64l1-1.58c0.08-0.13,0.17-0.25,0.27-0.37c0.14-0.18,0.44-0.25,0.66-0.08
	c0.13,0.1,0.2,0.28,0.13,0.57l-0.25,1.14c-0.03,0.17,0.01,0.32,0.19,0.47l3.36,2.69l3.07-3.82l-2.82-2.26
	c-0.24-0.2-0.45-0.27-0.7-0.1l-0.63,0.42c-0.18,0.12-0.35,0.13-0.53-0.01c-0.26-0.21-0.31-0.35-0.11-0.6l1.97-2.46
	c0.2-0.25,0.35-0.23,0.61-0.02c0.18,0.14,0.21,0.31,0.12,0.51l-0.27,0.71c-0.11,0.27,0,0.46,0.25,0.66l2.82,2.26l3-3.74
	c0.17-0.21,0.13-0.43-0.1-0.61l-2.97-2.38c-0.18-0.14-0.42-0.14-0.61-0.1l-1.74,0.46c-0.21,0.05-0.42,0.05-0.61-0.1
	c-0.15-0.12-0.18-0.41-0.07-0.54c0.11-0.13,0.29-0.26,0.49-0.41l1.82-1.34l7.14,5.73c0.25,0.2,0.4,0.44,0.23,0.65
	c-0.11,0.13-0.28,0.09-0.54-0.02l-0.83-0.37c-0.15-0.08-0.34-0.08-0.55,0.19L109.38,27.83z"/>
<path class="st0" d="M98.26,18.56c-0.14,0.21-0.32,0.41-0.45,0.64c-0.15,0.27,0.03,0.47,0.25,0.68l0.37,0.33
	c0.3,0.27,0.35,0.41,0.25,0.59c-0.06,0.12-0.28,0.17-0.61-0.01l-2.74-1.49l1.44-11.65l-9.28,7.39l-2.74-1.49
	c-0.33-0.18-0.4-0.39-0.34-0.51c0.09-0.17,0.2-0.24,0.63-0.11l0.48,0.13c0.31,0.08,0.61,0.1,0.74-0.14
	c0.13-0.23,0.22-0.49,0.32-0.71l4.07-9.44c0.06-0.16,0.03-0.28-0.1-0.42l-0.59-0.58c-0.22-0.21-0.29-0.39-0.21-0.53
	c0.1-0.18,0.28-0.21,0.52-0.08l3.85,2.1c0.22,0.12,0.24,0.26,0.18,0.38c-0.1,0.18-0.26,0.22-0.65,0.14l-0.77-0.16
	c-0.26-0.05-0.42,0.03-0.55,0.26c-0.08,0.15-0.17,0.36-0.26,0.57l-3.89,8.37l0.04,0.02l9.51-7.63l1.01,0.55L97.1,17.54l0.04,0.02
	l5.19-7.65c0.14-0.21,0.31-0.44,0.4-0.6c0.06-0.12,0.01-0.23-0.19-0.45l-0.51-0.54c-0.26-0.27-0.35-0.41-0.26-0.57
	c0.09-0.17,0.37-0.15,0.55-0.05l3.4,1.85c0.24,0.13,0.31,0.3,0.21,0.48c-0.07,0.13-0.21,0.17-0.56,0.11l-0.71-0.13
	c-0.26-0.05-0.41-0.03-0.5,0.09L98.26,18.56z"/>
<path class="st1" d="M16.27,171.66c0.07-0.2,0-0.38-0.13-0.47l-0.71-0.5c-0.24-0.17-0.25-0.37-0.19-0.53
	c0.05-0.14,0.23-0.18,0.42-0.11l3.71,1.36c0.21,0.08,0.26,0.24,0.2,0.38c-0.08,0.21-0.22,0.26-0.49,0.24l-0.76-0.03
	c-0.16,0-0.27,0.06-0.34,0.26l-2.93,7.97c-0.59,1.61,0.25,3.13,2.05,3.79c1.75,0.64,3.37,0.02,3.96-1.58l2.93-7.97
	c0.07-0.2,0.03-0.31-0.09-0.42l-0.6-0.46c-0.22-0.16-0.3-0.29-0.22-0.51c0.05-0.14,0.19-0.23,0.4-0.16l3.39,1.25
	c0.2,0.07,0.31,0.21,0.25,0.36c-0.06,0.16-0.2,0.31-0.49,0.29l-0.86-0.07c-0.16-0.02-0.33,0.08-0.41,0.28l-2.84,7.72
	c-1.02,2.78-3.77,3.11-6,2.29c-2.25-0.83-4.13-2.85-3.11-5.64L16.27,171.66z"/>
<path class="st1" d="M29.01,175.99c0.03-0.21-0.07-0.38-0.21-0.44l-0.79-0.37c-0.27-0.12-0.31-0.32-0.28-0.49
	c0.03-0.15,0.19-0.22,0.4-0.18l2.45,0.42l5.43,11.55l0.04,0.01l1.55-9.06c0.04-0.21-0.02-0.31-0.16-0.39l-0.67-0.35
	c-0.25-0.12-0.35-0.23-0.31-0.46c0.03-0.15,0.14-0.26,0.37-0.23l3.45,0.59c0.21,0.03,0.34,0.15,0.31,0.3
	c-0.03,0.17-0.14,0.34-0.43,0.37l-0.86,0.08c-0.16,0.01-0.31,0.14-0.35,0.34l-2.06,12.04l-1.14-0.2l-5.6-11.79l-0.04-0.01
	l-1.59,9.27c-0.04,0.21,0.02,0.31,0.16,0.39l0.67,0.35c0.25,0.12,0.35,0.23,0.31,0.46c-0.03,0.15-0.14,0.27-0.37,0.23l-3.45-0.59
	c-0.21-0.04-0.34-0.15-0.31-0.3c0.03-0.17,0.14-0.34,0.43-0.37l0.86-0.08c0.16-0.01,0.31-0.14,0.35-0.34L29.01,175.99z"/>
<path class="st1" d="M43.26,177.94c0.01-0.34-0.12-0.46-0.27-0.5l-0.79-0.25c-0.24-0.08-0.39-0.17-0.39-0.34
	c0.01-0.27,0.26-0.35,0.54-0.34l3.72,0.13c0.28,0.01,0.53,0.11,0.52,0.38c-0.01,0.17-0.16,0.24-0.41,0.31l-0.81,0.2
	c-0.15,0.03-0.29,0.14-0.3,0.48l-0.36,10.71c-0.01,0.34,0.12,0.46,0.27,0.5l0.79,0.25c0.24,0.08,0.39,0.17,0.39,0.34
	c-0.01,0.27-0.26,0.35-0.54,0.34l-3.72-0.13c-0.28-0.01-0.53-0.11-0.52-0.38c0.01-0.17,0.16-0.24,0.41-0.31l0.81-0.2
	c0.15-0.03,0.29-0.14,0.3-0.48L43.26,177.94z"/>
<path class="st1" d="M48.86,178.34c-0.24-0.51-0.36-0.65-0.75-0.73l-0.47-0.09c-0.31-0.07-0.47-0.15-0.49-0.34
	c-0.02-0.21,0.14-0.32,0.33-0.34l3.92-0.35c0.25-0.02,0.39,0.1,0.4,0.23c0.02,0.21-0.07,0.33-0.21,0.38l-0.39,0.15
	c-0.5,0.2-0.54,0.35-0.53,0.51c0.01,0.13,0.08,0.26,0.13,0.37l3.91,8.9l0.04,0l2.32-9.6c0.03-0.12,0.06-0.22,0.05-0.33
	c-0.01-0.11-0.14-0.29-0.47-0.34l-0.56-0.06c-0.15-0.02-0.26-0.13-0.28-0.34c-0.01-0.13,0.11-0.28,0.35-0.3l3.35-0.3
	c0.19-0.02,0.37,0.06,0.39,0.27c0.02,0.19-0.12,0.3-0.42,0.42l-0.66,0.29c-0.13,0.05-0.21,0.19-0.25,0.37l-3.28,12.75l-1.12,0.1
	L48.86,178.34z"/>
<path class="st1" d="M61.91,176.56c-0.08-0.33-0.24-0.41-0.4-0.41l-0.83-0.03c-0.26-0.01-0.42-0.05-0.47-0.22
	c-0.06-0.26,0.15-0.41,0.43-0.48l7.95-1.98l0.63,1.76c0.06,0.14,0.09,0.29,0.13,0.44c0.06,0.22-0.05,0.5-0.29,0.56
	c-0.15,0.04-0.32-0.02-0.49-0.25l-0.71-0.9c-0.11-0.13-0.24-0.19-0.45-0.14l-3.8,0.95l1.19,4.76l3.19-0.8
	c0.28-0.07,0.44-0.19,0.45-0.48l0.03-0.75c0-0.22,0.09-0.35,0.29-0.41c0.29-0.07,0.42-0.03,0.5,0.29l0.76,3.06
	c0.08,0.31-0.01,0.41-0.31,0.49c-0.2,0.05-0.34-0.03-0.45-0.22l-0.38-0.65c-0.14-0.26-0.35-0.29-0.62-0.22l-3.19,0.8l1.16,4.65
	c0.06,0.26,0.25,0.37,0.51,0.3l3.35-0.84c0.2-0.05,0.33-0.24,0.41-0.41l0.59-1.64c0.07-0.19,0.19-0.36,0.41-0.41
	c0.17-0.04,0.4,0.12,0.44,0.28c0.04,0.17,0.04,0.38,0.04,0.64l0.01,2.25l-8.08,2.02c-0.28,0.07-0.54,0.04-0.6-0.22
	c-0.04-0.17,0.09-0.28,0.31-0.41l0.72-0.41c0.14-0.07,0.24-0.22,0.16-0.55L61.91,176.56z"/>
<path class="st1" d="M72.46,173.6c-0.13-0.32-0.3-0.37-0.45-0.35l-0.82,0.1c-0.26,0.02-0.43,0.01-0.49-0.15
	c-0.1-0.25,0.09-0.43,0.35-0.54l4.11-1.71c2.51-1.04,4.32-0.44,5.26,1.81c0.56,1.35,0.09,3.13-1.03,4.17l4.41,3.78
	c0.13,0.11,0.25,0.15,0.41,0.14l0.7-0.04c0.45-0.04,0.57-0.01,0.65,0.18c0.07,0.18-0.06,0.31-0.21,0.38l-2.47,1.03l-5.05-4.38
	l-1.32,0.55l1.76,4.23c0.13,0.32,0.24,0.38,0.4,0.37l0.75-0.07c0.28-0.03,0.42,0.01,0.5,0.22c0.06,0.14,0.02,0.3-0.19,0.39
	l-3.49,1.45c-0.26,0.11-0.53,0.12-0.63-0.13c-0.07-0.16,0.05-0.29,0.24-0.45l0.65-0.52c0.13-0.09,0.21-0.25,0.07-0.57L72.46,173.6z
	 M76.06,177.52l1.09-0.45c1.35-0.56,2.3-1.84,1.58-3.58c-0.61-1.47-1.65-2.09-3.35-1.38l-1.33,0.55L76.06,177.52z"/>
<path class="st1" d="M86.28,177.63c-0.08-0.1-0.17-0.25-0.23-0.35c-0.17-0.29-0.16-0.5,0.08-0.64c0.25-0.14,0.44,0,0.7,0.18
	l1.32,0.9c0.53,0.37,1.08,0.4,2.12-0.22c1.13-0.67,1.72-2.14,0.94-3.46c-0.41-0.69-1.37-1.05-2.07-1.05l-3.1-0.02
	c-1.48-0.01-2.6-0.48-3.35-1.75c-1.27-2.16,0.05-4.18,1.62-5.1c0.87-0.51,1.99-0.93,3.02-0.94l1.06,1.47
	c0.08,0.1,0.17,0.25,0.23,0.35c0.17,0.29,0.08,0.55-0.13,0.67c-0.23,0.13-0.46,0.05-0.74-0.16l-0.86-0.66
	c-0.48-0.36-1.19-0.22-1.94,0.22c-1.01,0.6-1.68,1.79-1.02,2.92c0.4,0.67,1.26,1.09,2.25,1.08l3.02-0.04
	c1.38-0.02,2.64,0.52,3.39,1.78c1.05,1.78,0.36,4.46-1.72,5.69c-0.92,0.54-2.09,1.01-3.17,0.99L86.28,177.63z"/>
<path class="st1" d="M90.96,163.7c-0.2-0.27-0.38-0.29-0.52-0.23l-0.78,0.29c-0.24,0.09-0.41,0.12-0.51-0.02
	c-0.16-0.21-0.02-0.44,0.21-0.61l2.99-2.22c0.23-0.17,0.48-0.24,0.64-0.03c0.1,0.14,0.03,0.29-0.13,0.5l-0.5,0.66
	c-0.1,0.12-0.14,0.29,0.07,0.57l6.4,8.6c0.2,0.27,0.38,0.29,0.52,0.23l0.78-0.29c0.24-0.09,0.41-0.12,0.51,0.02
	c0.16,0.21,0.02,0.44-0.21,0.61l-2.99,2.22c-0.23,0.17-0.48,0.24-0.64,0.03c-0.1-0.14-0.03-0.29,0.13-0.5l0.5-0.66
	c0.1-0.12,0.14-0.29-0.07-0.57L90.96,163.7z"/>
<path class="st1" d="M97.69,157.84l-1.57,1.49c-0.17,0.16-0.18,0.28-0.13,0.47l0.37,1.3c0.09,0.28,0.08,0.5-0.14,0.71
	c-0.18,0.17-0.45,0.16-0.66-0.06c-0.16-0.17-0.29-0.36-0.41-0.55l-1.02-1.55l6.9-6.53l1.49,1.1c0.18,0.14,0.37,0.28,0.53,0.44
	c0.21,0.22,0.2,0.49,0.02,0.66c-0.22,0.21-0.44,0.2-0.71,0.1l-1.28-0.44c-0.19-0.06-0.31-0.05-0.47,0.11l-1.57,1.49l7.55,7.98
	c0.23,0.25,0.41,0.24,0.55,0.16l0.74-0.38c0.23-0.11,0.39-0.16,0.51-0.04c0.18,0.19,0.07,0.43-0.14,0.63l-2.7,2.56
	c-0.21,0.2-0.45,0.3-0.64,0.1c-0.12-0.12-0.06-0.28,0.07-0.51l0.42-0.71c0.08-0.13,0.1-0.31-0.13-0.56L97.69,157.84z"/>
<path class="st1" d="M113.72,137.56c-0.31-0.14-0.47-0.06-0.57,0.06l-0.53,0.64c-0.17,0.19-0.3,0.3-0.46,0.23
	c-0.24-0.11-0.23-0.37-0.11-0.63l1.91-4.28c1.7-3.8,5.71-4.53,8.76-3.16c3.63,1.62,5.11,5.28,3.61,8.65l-1.93,4.32
	c-0.12,0.26-0.3,0.45-0.55,0.34c-0.16-0.07-0.16-0.24-0.13-0.5l0.12-0.82c0.03-0.15-0.02-0.32-0.33-0.46L113.72,137.56z
	 M124.11,140.2c0.24,0.11,0.44,0.03,0.55-0.21l0.67-1.49c1.05-2.36-0.44-4.88-3.46-6.23c-3.47-1.55-5.97-0.23-6.89,1.83l-0.75,1.68
	L124.11,140.2z"/>
<path class="st1" d="M118.84,124.93c-0.33-0.09-0.47,0.01-0.55,0.15l-0.42,0.71c-0.14,0.22-0.25,0.35-0.41,0.3
	c-0.26-0.07-0.29-0.33-0.21-0.61l2.07-7.92l1.85,0.29c0.15,0.02,0.3,0.06,0.45,0.1c0.22,0.06,0.42,0.29,0.35,0.52
	c-0.04,0.15-0.17,0.27-0.46,0.31l-1.13,0.2c-0.17,0.03-0.29,0.12-0.34,0.32l-0.99,3.79l4.74,1.24l0.83-3.18
	c0.07-0.28,0.05-0.48-0.21-0.62l-0.65-0.38c-0.19-0.11-0.27-0.25-0.22-0.45c0.08-0.29,0.18-0.39,0.49-0.3l3.05,0.8
	c0.31,0.08,0.36,0.21,0.28,0.51c-0.05,0.2-0.19,0.28-0.41,0.29l-0.75,0.02c-0.29,0-0.42,0.17-0.49,0.44l-0.83,3.18l4.63,1.21
	c0.26,0.07,0.44-0.04,0.51-0.3l0.87-3.35c0.05-0.2-0.05-0.41-0.17-0.56l-1.15-1.3c-0.14-0.15-0.23-0.33-0.17-0.56
	c0.04-0.17,0.29-0.3,0.46-0.25c0.17,0.04,0.35,0.15,0.58,0.27l1.98,1.07l-2.1,8.05c-0.07,0.28-0.23,0.49-0.48,0.42
	c-0.17-0.04-0.2-0.21-0.21-0.47l-0.02-0.83c0-0.16-0.08-0.31-0.41-0.4L118.84,124.93z"/>
<path class="st1" d="M121.28,114.23c-0.34-0.04-0.47,0.08-0.52,0.23l-0.32,0.77c-0.1,0.24-0.2,0.38-0.37,0.36
	c-0.27-0.03-0.33-0.29-0.3-0.57l0.42-3.7c0.03-0.28,0.15-0.52,0.42-0.49c0.17,0.02,0.23,0.18,0.28,0.43l0.14,0.82
	c0.02,0.16,0.12,0.3,0.46,0.34l10.5,1.2c0.26,0.03,0.43-0.1,0.46-0.37l0.37-3.23c0.02-0.21-0.11-0.39-0.25-0.53l-1.32-1.13
	c-0.16-0.13-0.27-0.3-0.25-0.53c0.02-0.17,0.25-0.34,0.42-0.32c0.17,0.02,0.37,0.1,0.61,0.18l2.11,0.78l-0.92,8.06
	c-0.03,0.28-0.15,0.52-0.42,0.49c-0.17-0.02-0.23-0.18-0.28-0.43l-0.14-0.82c-0.02-0.16-0.12-0.3-0.46-0.34L121.28,114.23z"/>
<path class="st1" d="M122.02,98.09c-0.34,0.03-0.44,0.18-0.46,0.33l-0.15,0.82c-0.05,0.25-0.11,0.41-0.28,0.43
	c-0.27,0.03-0.38-0.21-0.41-0.49l-0.37-3.71c-0.03-0.28,0.04-0.54,0.31-0.56c0.17-0.02,0.26,0.13,0.36,0.37l0.31,0.77
	c0.05,0.15,0.18,0.27,0.52,0.24l10.51-1.04c0.26-0.03,0.4-0.19,0.38-0.46l-0.32-3.23c-0.02-0.21-0.19-0.36-0.35-0.46l-1.53-0.82
	c-0.18-0.1-0.33-0.24-0.35-0.46c-0.02-0.17,0.17-0.38,0.34-0.4c0.17-0.02,0.38,0.02,0.63,0.05l2.23,0.32l0.8,8.07
	c0.03,0.28-0.04,0.54-0.31,0.56c-0.17,0.02-0.26-0.13-0.36-0.37l-0.31-0.77c-0.05-0.15-0.18-0.27-0.52-0.24L122.02,98.09z"/>
<path class="st1" d="M120.63,87.75c-0.33,0.07-0.42,0.22-0.42,0.38l-0.06,0.83c-0.02,0.26-0.07,0.42-0.23,0.46
	c-0.26,0.06-0.4-0.17-0.46-0.44l-0.78-3.64c-0.06-0.28-0.02-0.54,0.24-0.6c0.17-0.04,0.27,0.1,0.4,0.32l0.39,0.73
	c0.07,0.14,0.21,0.25,0.54,0.18l10.48-2.24c0.33-0.07,0.42-0.23,0.42-0.38l0.06-0.83c0.02-0.26,0.07-0.42,0.23-0.46
	c0.26-0.06,0.4,0.17,0.46,0.44l0.78,3.64c0.06,0.28,0.02,0.54-0.24,0.6c-0.17,0.04-0.27-0.1-0.4-0.32l-0.39-0.73
	c-0.07-0.14-0.21-0.25-0.54-0.18L120.63,87.75z"/>
<path class="st1" d="M118.1,79.2l0.7,2.05c0.07,0.22,0.18,0.28,0.37,0.32l1.34,0.21c0.29,0.04,0.49,0.13,0.59,0.42
	c0.08,0.23-0.04,0.48-0.33,0.57c-0.22,0.07-0.44,0.11-0.67,0.15l-1.83,0.29l-3.08-8.99l1.62-0.9c0.2-0.11,0.41-0.22,0.62-0.29
	c0.29-0.1,0.53,0.02,0.61,0.25c0.1,0.29,0,0.48-0.2,0.69l-0.93,0.98c-0.13,0.15-0.17,0.26-0.1,0.48l0.7,2.05l10.39-3.56
	c0.32-0.11,0.39-0.27,0.37-0.43l-0.04-0.83c-0.01-0.26,0.01-0.43,0.18-0.48c0.25-0.09,0.42,0.12,0.51,0.39l1.21,3.52
	c0.09,0.27,0.08,0.53-0.17,0.62c-0.16,0.06-0.28-0.06-0.44-0.27l-0.47-0.68c-0.09-0.13-0.24-0.22-0.56-0.11L118.1,79.2z"/>
<path class="st1" d="M111.46,67.33c-1.92-3.5-0.32-7.06,3.08-8.93c3.28-1.8,7.41-1.03,9.18,2.21c1.92,3.5,0.32,7.06-3.08,8.93
	C117.35,71.34,113.23,70.57,111.46,67.33z M122.72,61.16c-1.07-1.95-3.83-2.8-7.2-0.96c-3.32,1.82-4.29,4.34-3.07,6.58
	c1.07,1.95,3.83,2.8,7.2,0.95C122.97,65.92,123.94,63.4,122.72,61.16z"/>
<path class="st1" d="M107.96,58.6c-0.27,0.21-0.27,0.39-0.21,0.53l0.32,0.77c0.09,0.24,0.13,0.41,0,0.51
	c-0.21,0.17-0.44,0.03-0.61-0.19l-2.76-3.48c-1.69-2.13-1.6-4.04,0.3-5.55c1.15-0.91,2.99-0.94,4.29-0.15l2.43-5.28
	c0.07-0.15,0.07-0.28,0.02-0.43l-0.24-0.66c-0.17-0.43-0.17-0.55,0-0.68c0.15-0.12,0.31-0.03,0.42,0.1l1.66,2.1l-2.83,6.06
	l0.89,1.12l3.59-2.85c0.27-0.21,0.3-0.33,0.25-0.49l-0.27-0.71c-0.11-0.26-0.1-0.4,0.08-0.55c0.12-0.09,0.28-0.1,0.42,0.08
	l2.35,2.96c0.18,0.22,0.26,0.48,0.05,0.64c-0.13,0.11-0.29,0.03-0.5-0.11l-0.68-0.48c-0.12-0.1-0.29-0.13-0.56,0.08L107.96,58.6z
	 M110.74,54.06l-0.73-0.92c-0.91-1.15-2.4-1.71-3.87-0.54c-1.25,0.99-1.56,2.16-0.42,3.6l0.9,1.13L110.74,54.06z"/>
<path class="st1" d="M97.17,48.6l-0.97-0.89l5.15-11.93c0.07-0.16,0.09-0.33,0.02-0.44l-0.35-0.63c-0.16-0.28-0.21-0.45-0.08-0.59
	c0.14-0.15,0.33-0.11,0.47,0.02l2.81,2.58c0.18,0.17,0.19,0.36,0.07,0.48c-0.1,0.11-0.23,0.08-0.65-0.08l-0.52-0.19
	c-0.15-0.06-0.23-0.03-0.31,0.05c-0.04,0.04-0.09,0.15-0.15,0.28l-1.05,2.39l3.5,3.21l2.17-1.18c0.1-0.06,0.28-0.16,0.34-0.23
	c0.06-0.07,0.11-0.21,0.05-0.31l-0.32-0.6c-0.16-0.28-0.15-0.42-0.05-0.54c0.13-0.14,0.32-0.15,0.5,0.02l2.51,2.3
	c0.18,0.17,0.18,0.34,0.06,0.47c-0.1,0.11-0.25,0.13-0.59-0.03l-0.7-0.33c-0.08-0.05-0.32-0.01-0.77,0.25L97.17,48.6z M103.86,43.54
	l-2.8-2.57l-2.44,5.39l0.03,0.03L103.86,43.54z"/>
<path class="st1" d="M91.1,41.7c-0.19,0.28-0.14,0.45-0.04,0.57l0.54,0.63c0.16,0.2,0.25,0.35,0.15,0.49
	c-0.15,0.22-0.41,0.16-0.64,0l-3.09-2.08c-0.24-0.16-0.39-0.38-0.24-0.6c0.09-0.14,0.26-0.12,0.51-0.05l0.79,0.26
	c0.15,0.05,0.32,0.03,0.51-0.25l5.89-8.77c0.15-0.22,0.11-0.43-0.11-0.58l-2.7-1.81c-0.18-0.12-0.4-0.09-0.58-0.02l-1.61,0.66
	c-0.19,0.08-0.39,0.1-0.58-0.02c-0.14-0.1-0.18-0.37-0.09-0.52c0.1-0.14,0.26-0.28,0.44-0.46l1.66-1.52l6.74,4.52
	c0.24,0.16,0.39,0.38,0.24,0.6c-0.1,0.14-0.26,0.12-0.51,0.05l-0.79-0.26c-0.15-0.05-0.32-0.03-0.51,0.25L91.1,41.7z"/>
<path class="st1" d="M82.41,36.21c-0.15,0.31-0.08,0.47,0.04,0.57l0.62,0.55c0.19,0.18,0.29,0.31,0.22,0.46
	c-0.12,0.24-0.38,0.22-0.64,0.09l-7.38-3.56l0.64-1.76c0.05-0.15,0.12-0.28,0.18-0.42c0.1-0.21,0.36-0.35,0.58-0.25
	c0.14,0.07,0.23,0.22,0.22,0.51l-0.03,1.15c0,0.17,0.06,0.31,0.25,0.4l3.53,1.7l2.13-4.42l-2.96-1.43
	c-0.26-0.12-0.46-0.14-0.65,0.09l-0.5,0.56c-0.14,0.16-0.29,0.22-0.48,0.13c-0.27-0.13-0.34-0.25-0.2-0.54l1.37-2.84
	c0.14-0.29,0.28-0.31,0.55-0.18c0.19,0.09,0.24,0.24,0.2,0.46l-0.13,0.74c-0.06,0.29,0.08,0.44,0.34,0.56l2.96,1.43l2.08-4.31
	c0.12-0.24,0.04-0.44-0.19-0.56l-3.12-1.5c-0.19-0.09-0.41-0.03-0.58,0.06l-1.5,0.88c-0.18,0.1-0.37,0.16-0.58,0.06
	c-0.15-0.07-0.23-0.35-0.16-0.5c0.07-0.15,0.22-0.32,0.38-0.51l1.43-1.74l7.5,3.62c0.26,0.12,0.44,0.32,0.32,0.56
	c-0.07,0.15-0.24,0.16-0.5,0.12l-0.82-0.14c-0.15-0.03-0.32,0.01-0.47,0.32L82.41,36.21z"/>
<g>
	<g>
		<path class="st1" d="M118.95,151.94c-0.15-0.12-0.32-0.06-0.58,0.12l-0.6,0.39c-0.11,0.08-0.28,0.07-0.44,0.01l-12.26-4.31
			l-0.82,1.03l6.7,10.71c0.29,0.43,0.35,0.66,0.3,0.75l-0.28,0.72c-0.14,0.35-0.11,0.5,0.01,0.59c0.13,0.11,0.31,0.1,0.46-0.09
			l2.12-2.66c0.15-0.19,0.13-0.38-0.02-0.5c-0.12-0.09-0.27-0.09-0.53,0.09l-0.58,0.36c-0.1,0.07-0.24,0.03-0.31-0.03
			c-0.07-0.06-0.19-0.22-0.25-0.32l-1.33-2.08l2.96-3.71l2.45,0.89c0.13,0.05,0.24,0.09,0.29,0.13c0.09,0.07,0.12,0.15,0.07,0.3
			l-0.16,0.53c-0.13,0.43-0.15,0.56-0.03,0.65c0.13,0.11,0.32,0.09,0.47-0.11l2.38-2.99C119.08,152.26,119.12,152.07,118.95,151.94z
			 M109.75,155.5l-3.2-5.01l0.02-0.03l5.55,2.06L109.75,155.5z M104.04,147.81l-3.24-1.25c-0.05-0.04-0.19-0.07-0.31-0.1
			c-0.41-0.1-0.82,0.13-0.92,0.52c-0.1,0.39,0.17,0.81,0.56,0.91l0.14,0.03l3.58,0.51c0.26,0.03,0.4-0.02,0.44-0.2
			C104.33,148.05,104.24,147.91,104.04,147.81z"/>
	</g>
</g>
<path class="st2" d="M134.46,102.94l-12.9-0.01v27.42l12.65,0.01c0.33,0,0.64-0.02,0.97-0.03v-27.37
	C134.93,102.96,134.72,102.94,134.46,102.94z"/>
<path class="st2" d="M152.15,116.17c0-5.29-2.66-9.55-7.22-11.6V128C149.5,125.6,152.15,121.46,152.15,116.17z"/>
<path class="st2" d="M121.56,136.01v12.37c4.76-0.98,8.61-3.03,10.96-6.04c1.5-1.79,2.27-3.77,2.54-6.38
	c-0.67,0.03-1.34,0.06-2.02,0.06L121.56,136.01z"/>
<path class="st0" d="M41.4,132.52c-1.87,0-3.64-0.1-5.38-0.26v4.1c0,1.82-0.39,2.3-1.95,2.68l-5.46,1.25
	c-1.56,0.39-2.21,0.87-2.21,1.73c0,1.15,1.04,1.63,3.64,1.63h24.45c2.21,0,3.25-0.48,3.25-1.63c0-0.77-0.52-1.25-1.69-1.53
	l-4.94-1.15c-2.08-0.58-2.47-0.96-2.47-2.97v-4.32C46.35,132.34,43.95,132.52,41.4,132.52z"/>
<path class="st0" d="M27.96,78.73l5.72,1.15c1.69,0.38,2.34,1.24,2.34,2.88v43.71c1.88,0.32,3.88,0.5,5.98,0.5
	c2.37,0,4.58-0.24,6.63-0.67v-12.37l11.48,0.01c0.68,0,1.35-0.04,2.02-0.06c3.45-0.13,6.74-0.6,9.8-1.36
	c11.87-2.96,20.18-10.27,20.18-19c0-6.24-3.9-12.08-10.01-15.15c-2.82-1.42-5.79-2.26-10.08-2.69v6.82
	c4.56,2.05,7.22,6.31,7.22,11.6c0,5.3-2.65,9.43-7.22,11.83c-2.65,1.4-5.96,2.21-9.76,2.33c-0.32,0.01-0.64,0.03-0.97,0.03
	l-12.65-0.01V80.84l12.9,0.01c0.26,0,0.46,0.02,0.71,0.02v-5.58l-32.86-0.01c-2.34,0-3.38,0.48-3.38,1.63
	C26,77.77,26.79,78.44,27.96,78.73z"/>
<path class="st1" d="M55.14,66.45l4.82,1.34c1.81,0.48,2.29,1.06,2.29,2.88v4.62v5.58v27.37c3.81-0.12,7.11-0.93,9.76-2.33V82.49
	v-6.82v-5.38c0-1.82,0.36-2.2,2.05-2.68l4.7-1.05c1.45-0.29,2.17-0.96,2.17-1.92c0-1.05-0.96-1.63-2.89-1.63H56.46
	c-2.29,0-3.25,0.48-3.25,1.63C53.21,65.49,53.93,66.16,55.14,66.45z"/>
<path class="st1" d="M62.13,113.87c-0.27,2.6-1.03,4.58-2.54,6.38c-2.35,3.01-6.2,5.06-10.96,6.04c-2.06,0.43-4.27,0.67-6.63,0.67
	c-2.1,0-4.1-0.18-5.98-0.5c-5.87-1-10.45-3.49-12.46-6.98c-1.09-2.11-1.57-4.22-1.57-7.67V70.47c0-2.11,0.12-2.3,2.29-2.88
	l4.22-1.05c1.57-0.39,2.29-0.96,2.29-1.92c0-1.24-0.72-1.63-3.5-1.63H3.43c-1.69,0-2.53,0.48-2.53,1.54c0,0.86,0.6,1.34,1.93,1.72
	l5.06,1.34c1.93,0.57,2.29,1.05,2.29,2.97v40.85c0,11.59,10.01,19.4,25.84,20.84c1.73,0.16,3.51,0.26,5.38,0.26
	c2.55,0,4.95-0.18,7.24-0.48c8.12-1.07,14.59-3.99,18.92-8.63c3.04-3.31,4.11-5.84,4.38-10.9
	C68.88,113.27,65.58,113.74,62.13,113.87z"/>
</svg>
